M48
; DRILL file {KiCad 8.0.2-1.fc40} date 2025-03-27T00:28:44+0700
; FORMAT={-:-/ absolute / inch / decimal}
; #@! TF.CreationDate,2025-03-27T00:28:44+07:00
; #@! TF.GenerationSoftware,Kicad,Pcbnew,8.0.2-1.fc40
; #@! TF.FileFunction,Plated,1,2,PTH
FMAT,2
INCH
; #@! TA.AperFunction,Plated,PTH,ViaDrill
T1C0.0079
; #@! TA.AperFunction,Plated,PTH,ViaDrill
T2C0.0118
; #@! TA.AperFunction,Plated,PTH,ViaDrill
T3C0.0157
; #@! TA.AperFunction,Plated,PTH,ComponentDrill
T4C0.0197
; #@! TA.AperFunction,Plated,PTH,ComponentDrill
T5C0.0394
%
G90
G05
T1
X4.3044Y-4.1514
X4.3206Y-4.1714
X4.3239Y-3.1659
X4.3239Y-3.2059
X4.3239Y-3.2459
X4.3244Y-2.9914
X4.3244Y-3.7714
X4.3244Y-3.8114
X4.3244Y-3.8514
X4.3244Y-4.3114
X4.3244Y-4.4114
X4.3244Y-4.4714
X4.3344Y-4.8302
X4.3344Y-4.8702
X4.3344Y-4.9102
X4.3386Y-4.1514
X4.3444Y-3.4314
X4.3444Y-3.5514
X4.3444Y-3.5914
X4.3444Y-3.3666
X4.3524Y-4.6024
X4.3544Y-3.9964
X4.3544Y-4.0364
X4.3544Y-4.0764
X4.3554Y-4.6254
X4.3583Y-4.1714
X4.3604Y-4.6702
X4.3604Y-4.7002
X4.3644Y-2.9914
X4.3701Y-4.7854
X4.378Y-4.1004
X4.3794Y-4.6284
X4.3839Y-3.1659
X4.3839Y-3.2059
X4.3839Y-3.2459
X4.3964Y-4.8802
X4.3976Y-4.0807
X4.4044Y-2.9914
X4.4044Y-3.5514
X4.4044Y-3.5914
X4.4044Y-4.3114
X4.4044Y-4.4114
X4.4094Y-3.9664
X4.4094Y-3.9902
X4.4204Y-4.8422
X4.4213Y-4.7185
X4.4384Y-4.9222
X4.4439Y-3.1659
X4.4439Y-3.2059
X4.4444Y-2.9914
X4.4459Y-4.7185
X4.4488Y-4.5728
X4.4488Y-4.6079
X4.4504Y-4.8284
X4.4514Y-4.7984
X4.4844Y-2.9914
X4.4894Y-3.9314
X4.4924Y-3.8314
X4.4943Y-3.4814
X4.4961Y-4.7854
X4.4964Y-3.9714
X4.4964Y-4.9462
X4.5044Y-3.8694
X4.5044Y-4.4114
X4.5044Y-4.4514
X4.5084Y-4.0074
X4.5198Y-4.8284
X4.5236Y-4.9233
X4.5244Y-2.9914
X4.5244Y-4.3114
X4.5294Y-3.9291
X4.5404Y-4.4622
X4.5424Y-3.9474
X4.5484Y-4.9974
X4.5504Y-4.8322
X4.5514Y-4.8714
X4.5644Y-2.9914
X4.5804Y-4.9662
X4.5844Y-4.7102
X4.6024Y-4.9922
X4.6044Y-2.9914
X4.6044Y-4.2514
X4.6063Y-4.7539
X4.6204Y-4.9042
X4.6209Y-3.6024
X4.6209Y-3.6654
X4.6215Y-3.3023
X4.6215Y-3.3423
X4.6215Y-3.3823
X4.6233Y-3.4414
X4.6233Y-3.4814
X4.6233Y-3.5214
X4.6244Y-3.7114
X4.6244Y-3.7514
X4.6244Y-3.7914
X4.6244Y-4.7902
X4.6444Y-2.9914
X4.6444Y-4.2514
X4.6612Y-4.8248
X4.6612Y-4.9676
X4.6644Y-3.7114
X4.6644Y-3.7514
X4.6644Y-3.7914
X4.6644Y-4.1314
X4.6644Y-4.1714
X4.6644Y-4.5314
X4.6844Y-2.9914
X4.6844Y-3.1514
X4.6844Y-3.1914
X4.6844Y-4.2114
X4.6844Y-4.2514
X4.6844Y-4.5114
X4.6864Y-4.0494
X4.7044Y-3.7114
X4.7044Y-3.7514
X4.7044Y-3.7914
X4.7044Y-4.1314
X4.7044Y-4.1714
X4.7244Y-2.9914
X4.7244Y-3.1514
X4.7244Y-3.1914
X4.7244Y-4.5914
X4.7244Y-4.6314
X4.7244Y-4.6714
X4.7362Y-4.8248
T2
X4.6744Y-4.2974
T3
X4.5057Y-3.1055
X4.6845Y-3.2376
T4
X5.6086Y-4.6841
X5.7852Y-4.8416
T5
X4.8839Y-4.9665
X4.9839Y-4.9665
X5.0839Y-4.9665
X5.1839Y-4.9665
X5.2839Y-4.9665
X5.3839Y-4.9665
M30
