%TF.GenerationSoftware,KiCad,Pcbnew,8.0.2-1.fc40*%
%TF.CreationDate,2025-03-27T00:28:51+07:00*%
%TF.ProjectId,magic-epaper,6d616769-632d-4657-9061-7065722e6b69,rev?*%
%TF.SameCoordinates,Original*%
%TF.FileFunction,Legend,Bot*%
%TF.FilePolarity,Positive*%
%FSLAX46Y46*%
G04 Gerber Fmt 4.6, Leading zero omitted, Abs format (unit mm)*
G04 Created by KiCad (PCBNEW 8.0.2-1.fc40) date 2025-03-27 00:28:51*
%MOMM*%
%LPD*%
G01*
G04 APERTURE LIST*
%ADD10C,0.197500*%
%ADD11C,0.000000*%
%ADD12C,0.100000*%
%ADD13C,0.300000*%
%ADD14C,0.150000*%
%ADD15C,0.120000*%
%ADD16C,0.010000*%
G04 APERTURE END LIST*
D10*
X154511786Y-89217201D02*
X153918371Y-89217201D01*
X153918371Y-88251365D01*
X153662823Y-88251365D01*
X153612405Y-88250876D01*
X153563339Y-88249407D01*
X153515626Y-88246959D01*
X153469265Y-88243531D01*
X153424257Y-88239123D01*
X153380600Y-88233736D01*
X153338295Y-88227368D01*
X153297342Y-88220020D01*
X153257739Y-88211692D01*
X153219488Y-88202384D01*
X153182587Y-88192094D01*
X153147036Y-88180824D01*
X153112835Y-88168573D01*
X153079984Y-88155341D01*
X153048482Y-88141127D01*
X153018330Y-88125932D01*
X152988896Y-88109935D01*
X152960534Y-88093313D01*
X152933245Y-88076069D01*
X152907028Y-88058200D01*
X152881884Y-88039709D01*
X152857814Y-88020593D01*
X152834818Y-88000853D01*
X152812896Y-87980490D01*
X152792049Y-87959503D01*
X152772277Y-87937892D01*
X152753580Y-87915657D01*
X152735960Y-87892798D01*
X152719416Y-87869315D01*
X152703948Y-87845208D01*
X152689558Y-87820476D01*
X152676245Y-87795121D01*
X152663871Y-87768874D01*
X152652296Y-87742419D01*
X152641519Y-87715756D01*
X152631542Y-87688884D01*
X152622363Y-87661805D01*
X152613983Y-87634518D01*
X152606402Y-87607023D01*
X152599619Y-87579320D01*
X152593634Y-87551409D01*
X152588448Y-87523291D01*
X152584060Y-87494964D01*
X152580470Y-87466429D01*
X152577678Y-87437686D01*
X152575683Y-87408736D01*
X152574487Y-87379577D01*
X152574345Y-87369101D01*
X153175470Y-87369101D01*
X153176053Y-87395735D01*
X153177802Y-87421450D01*
X153180718Y-87446246D01*
X153184801Y-87470121D01*
X153190049Y-87493077D01*
X153196465Y-87515112D01*
X153204047Y-87536227D01*
X153212796Y-87556421D01*
X153222712Y-87575694D01*
X153233794Y-87594046D01*
X153246044Y-87611477D01*
X153259461Y-87627986D01*
X153274045Y-87643573D01*
X153289796Y-87658238D01*
X153306714Y-87671980D01*
X153324800Y-87684800D01*
X153343394Y-87696312D01*
X153362819Y-87707081D01*
X153383074Y-87717107D01*
X153404160Y-87726390D01*
X153426076Y-87734930D01*
X153448823Y-87742728D01*
X153472398Y-87749783D01*
X153496804Y-87756095D01*
X153522038Y-87761665D01*
X153548101Y-87766491D01*
X153574992Y-87770575D01*
X153602712Y-87773917D01*
X153631260Y-87776516D01*
X153660635Y-87778372D01*
X153690838Y-87779486D01*
X153721868Y-87779857D01*
X153918371Y-87779857D01*
X153918371Y-86973760D01*
X153647203Y-86973760D01*
X153590088Y-86975303D01*
X153536656Y-86979934D01*
X153486908Y-86987651D01*
X153463415Y-86992668D01*
X153440843Y-86998456D01*
X153419192Y-87005017D01*
X153398462Y-87012350D01*
X153378653Y-87020455D01*
X153359765Y-87029332D01*
X153341798Y-87038981D01*
X153324752Y-87049402D01*
X153308627Y-87060596D01*
X153293424Y-87072562D01*
X153279141Y-87085301D01*
X153265780Y-87098812D01*
X153253340Y-87113095D01*
X153241822Y-87128152D01*
X153231225Y-87143980D01*
X153221549Y-87160582D01*
X153212794Y-87177956D01*
X153204961Y-87196102D01*
X153198049Y-87215022D01*
X153192059Y-87234714D01*
X153186990Y-87255180D01*
X153182843Y-87276418D01*
X153179617Y-87298429D01*
X153177313Y-87321213D01*
X153175931Y-87344771D01*
X153175470Y-87369101D01*
X152574345Y-87369101D01*
X152574088Y-87350211D01*
X152575072Y-87301444D01*
X152578023Y-87254013D01*
X152582940Y-87207916D01*
X152589825Y-87163156D01*
X152598676Y-87119731D01*
X152609492Y-87077643D01*
X152622275Y-87036891D01*
X152637023Y-86997475D01*
X152653736Y-86959396D01*
X152672415Y-86922655D01*
X152693058Y-86887251D01*
X152715665Y-86853184D01*
X152740236Y-86820455D01*
X152766771Y-86789065D01*
X152795270Y-86759012D01*
X152825732Y-86730299D01*
X152857834Y-86702670D01*
X152892237Y-86676822D01*
X152928942Y-86652757D01*
X152967948Y-86630473D01*
X153009257Y-86609972D01*
X153052867Y-86591252D01*
X153098780Y-86574315D01*
X153146995Y-86559160D01*
X153197514Y-86545788D01*
X153250335Y-86534198D01*
X153305461Y-86524391D01*
X153362890Y-86516367D01*
X153422623Y-86510126D01*
X153484660Y-86505668D01*
X153549003Y-86502993D01*
X153615650Y-86502101D01*
X154511786Y-86502101D01*
X154511786Y-87779857D01*
X154511786Y-89217201D01*
G36*
X154511786Y-89217201D02*
G01*
X153918371Y-89217201D01*
X153918371Y-88251365D01*
X153662823Y-88251365D01*
X153612405Y-88250876D01*
X153563339Y-88249407D01*
X153515626Y-88246959D01*
X153469265Y-88243531D01*
X153424257Y-88239123D01*
X153380600Y-88233736D01*
X153338295Y-88227368D01*
X153297342Y-88220020D01*
X153257739Y-88211692D01*
X153219488Y-88202384D01*
X153182587Y-88192094D01*
X153147036Y-88180824D01*
X153112835Y-88168573D01*
X153079984Y-88155341D01*
X153048482Y-88141127D01*
X153018330Y-88125932D01*
X152988896Y-88109935D01*
X152960534Y-88093313D01*
X152933245Y-88076069D01*
X152907028Y-88058200D01*
X152881884Y-88039709D01*
X152857814Y-88020593D01*
X152834818Y-88000853D01*
X152812896Y-87980490D01*
X152792049Y-87959503D01*
X152772277Y-87937892D01*
X152753580Y-87915657D01*
X152735960Y-87892798D01*
X152719416Y-87869315D01*
X152703948Y-87845208D01*
X152689558Y-87820476D01*
X152676245Y-87795121D01*
X152663871Y-87768874D01*
X152652296Y-87742419D01*
X152641519Y-87715756D01*
X152631542Y-87688884D01*
X152622363Y-87661805D01*
X152613983Y-87634518D01*
X152606402Y-87607023D01*
X152599619Y-87579320D01*
X152593634Y-87551409D01*
X152588448Y-87523291D01*
X152584060Y-87494964D01*
X152580470Y-87466429D01*
X152577678Y-87437686D01*
X152575683Y-87408736D01*
X152574487Y-87379577D01*
X152574345Y-87369101D01*
X153175470Y-87369101D01*
X153176053Y-87395735D01*
X153177802Y-87421450D01*
X153180718Y-87446246D01*
X153184801Y-87470121D01*
X153190049Y-87493077D01*
X153196465Y-87515112D01*
X153204047Y-87536227D01*
X153212796Y-87556421D01*
X153222712Y-87575694D01*
X153233794Y-87594046D01*
X153246044Y-87611477D01*
X153259461Y-87627986D01*
X153274045Y-87643573D01*
X153289796Y-87658238D01*
X153306714Y-87671980D01*
X153324800Y-87684800D01*
X153343394Y-87696312D01*
X153362819Y-87707081D01*
X153383074Y-87717107D01*
X153404160Y-87726390D01*
X153426076Y-87734930D01*
X153448823Y-87742728D01*
X153472398Y-87749783D01*
X153496804Y-87756095D01*
X153522038Y-87761665D01*
X153548101Y-87766491D01*
X153574992Y-87770575D01*
X153602712Y-87773917D01*
X153631260Y-87776516D01*
X153660635Y-87778372D01*
X153690838Y-87779486D01*
X153721868Y-87779857D01*
X153918371Y-87779857D01*
X153918371Y-86973760D01*
X153647203Y-86973760D01*
X153590088Y-86975303D01*
X153536656Y-86979934D01*
X153486908Y-86987651D01*
X153463415Y-86992668D01*
X153440843Y-86998456D01*
X153419192Y-87005017D01*
X153398462Y-87012350D01*
X153378653Y-87020455D01*
X153359765Y-87029332D01*
X153341798Y-87038981D01*
X153324752Y-87049402D01*
X153308627Y-87060596D01*
X153293424Y-87072562D01*
X153279141Y-87085301D01*
X153265780Y-87098812D01*
X153253340Y-87113095D01*
X153241822Y-87128152D01*
X153231225Y-87143980D01*
X153221549Y-87160582D01*
X153212794Y-87177956D01*
X153204961Y-87196102D01*
X153198049Y-87215022D01*
X153192059Y-87234714D01*
X153186990Y-87255180D01*
X153182843Y-87276418D01*
X153179617Y-87298429D01*
X153177313Y-87321213D01*
X153175931Y-87344771D01*
X153175470Y-87369101D01*
X152574345Y-87369101D01*
X152574088Y-87350211D01*
X152575072Y-87301444D01*
X152578023Y-87254013D01*
X152582940Y-87207916D01*
X152589825Y-87163156D01*
X152598676Y-87119731D01*
X152609492Y-87077643D01*
X152622275Y-87036891D01*
X152637023Y-86997475D01*
X152653736Y-86959396D01*
X152672415Y-86922655D01*
X152693058Y-86887251D01*
X152715665Y-86853184D01*
X152740236Y-86820455D01*
X152766771Y-86789065D01*
X152795270Y-86759012D01*
X152825732Y-86730299D01*
X152857834Y-86702670D01*
X152892237Y-86676822D01*
X152928942Y-86652757D01*
X152967948Y-86630473D01*
X153009257Y-86609972D01*
X153052867Y-86591252D01*
X153098780Y-86574315D01*
X153146995Y-86559160D01*
X153197514Y-86545788D01*
X153250335Y-86534198D01*
X153305461Y-86524391D01*
X153362890Y-86516367D01*
X153422623Y-86510126D01*
X153484660Y-86505668D01*
X153549003Y-86502993D01*
X153615650Y-86502101D01*
X154511786Y-86502101D01*
X154511786Y-87779857D01*
X154511786Y-89217201D01*
G37*
D11*
G36*
X130285826Y-85397952D02*
G01*
X130308063Y-85398914D01*
X130329884Y-85400518D01*
X130351290Y-85402763D01*
X130372280Y-85405649D01*
X130392854Y-85409177D01*
X130413013Y-85413345D01*
X130432756Y-85418155D01*
X130452083Y-85423607D01*
X130470995Y-85429699D01*
X130489491Y-85436433D01*
X130507572Y-85443808D01*
X130525236Y-85451825D01*
X130542486Y-85460483D01*
X130559319Y-85469782D01*
X130575737Y-85479723D01*
X130608352Y-85502009D01*
X130638863Y-85525957D01*
X130667270Y-85551567D01*
X130693573Y-85578839D01*
X130717771Y-85607772D01*
X130739865Y-85638367D01*
X130759855Y-85670623D01*
X130777740Y-85704541D01*
X130793522Y-85740121D01*
X130807199Y-85777362D01*
X130818772Y-85816265D01*
X130828241Y-85856829D01*
X130835606Y-85899055D01*
X130840866Y-85942942D01*
X130844022Y-85988492D01*
X130845074Y-86035702D01*
X130844451Y-86071617D01*
X130842581Y-86106599D01*
X130839463Y-86140649D01*
X130835099Y-86173765D01*
X130829488Y-86205948D01*
X130822630Y-86237199D01*
X130814525Y-86267517D01*
X130805173Y-86296902D01*
X130794574Y-86325353D01*
X130782728Y-86352873D01*
X130769635Y-86379459D01*
X130755295Y-86405112D01*
X130739709Y-86429833D01*
X130722875Y-86453620D01*
X130704794Y-86476475D01*
X130685467Y-86498397D01*
X130664724Y-86518730D01*
X130643227Y-86537751D01*
X130620977Y-86555460D01*
X130597974Y-86571858D01*
X130574218Y-86586944D01*
X130549708Y-86600718D01*
X130524445Y-86613180D01*
X130498428Y-86624331D01*
X130471658Y-86634169D01*
X130444135Y-86642696D01*
X130415858Y-86649911D01*
X130386828Y-86655814D01*
X130357044Y-86660406D01*
X130326507Y-86663685D01*
X130295217Y-86665653D01*
X130263173Y-86666309D01*
X130263173Y-86666311D01*
X128500844Y-86670043D01*
X128489592Y-86670196D01*
X128478698Y-86670656D01*
X128468161Y-86671421D01*
X128457981Y-86672493D01*
X128448159Y-86673870D01*
X128438693Y-86675554D01*
X128429585Y-86677543D01*
X128420834Y-86679839D01*
X128412440Y-86682441D01*
X128404403Y-86685349D01*
X128396723Y-86688563D01*
X128389401Y-86692083D01*
X128382436Y-86695909D01*
X128375828Y-86700042D01*
X128369577Y-86704480D01*
X128363683Y-86709224D01*
X128358147Y-86714275D01*
X128352968Y-86719632D01*
X128348145Y-86725294D01*
X128343680Y-86731263D01*
X128339573Y-86737538D01*
X128335822Y-86744119D01*
X128332429Y-86751006D01*
X128329392Y-86758199D01*
X128326713Y-86765699D01*
X128324391Y-86773504D01*
X128322427Y-86781615D01*
X128320819Y-86790033D01*
X128319569Y-86798757D01*
X128318676Y-86807786D01*
X128318140Y-86817122D01*
X128317961Y-86826764D01*
X128318140Y-86836636D01*
X128318676Y-86846194D01*
X128319569Y-86855438D01*
X128320819Y-86864370D01*
X128322427Y-86872988D01*
X128324392Y-86881292D01*
X128326713Y-86889283D01*
X128329393Y-86896961D01*
X128332429Y-86904326D01*
X128335822Y-86911377D01*
X128339573Y-86918114D01*
X128343681Y-86924539D01*
X128348146Y-86930650D01*
X128352968Y-86936447D01*
X128358147Y-86941932D01*
X128363684Y-86947102D01*
X128369577Y-86951960D01*
X128375828Y-86956504D01*
X128382436Y-86960735D01*
X128389401Y-86964652D01*
X128396724Y-86968256D01*
X128404403Y-86971546D01*
X128412440Y-86974524D01*
X128420834Y-86977187D01*
X128429585Y-86979538D01*
X128438693Y-86981575D01*
X128448159Y-86983298D01*
X128457982Y-86984709D01*
X128478698Y-86986589D01*
X128500844Y-86987216D01*
X130845074Y-86983483D01*
X130845074Y-87472296D01*
X128391114Y-87472296D01*
X128368072Y-87471990D01*
X128345498Y-87471072D01*
X128323391Y-87469542D01*
X128301752Y-87467399D01*
X128280580Y-87464644D01*
X128259876Y-87461277D01*
X128239639Y-87457298D01*
X128219870Y-87452706D01*
X128200569Y-87447503D01*
X128181735Y-87441687D01*
X128163369Y-87435259D01*
X128145470Y-87428219D01*
X128128038Y-87420567D01*
X128111075Y-87412302D01*
X128094578Y-87403426D01*
X128078549Y-87393937D01*
X128045935Y-87372525D01*
X128015425Y-87349335D01*
X127987019Y-87324367D01*
X127960717Y-87297620D01*
X127936518Y-87269095D01*
X127914425Y-87238792D01*
X127894435Y-87206710D01*
X127876549Y-87172851D01*
X127860768Y-87137213D01*
X127847090Y-87099797D01*
X127835517Y-87060602D01*
X127826048Y-87019630D01*
X127818683Y-86976879D01*
X127813422Y-86932350D01*
X127810265Y-86886043D01*
X127809212Y-86837957D01*
X127809849Y-86802043D01*
X127811759Y-86767061D01*
X127814942Y-86733012D01*
X127819397Y-86699896D01*
X127825125Y-86667712D01*
X127832127Y-86636462D01*
X127840401Y-86606144D01*
X127849947Y-86576759D01*
X127860767Y-86548307D01*
X127872860Y-86520788D01*
X127886225Y-86494202D01*
X127900863Y-86468549D01*
X127916774Y-86443828D01*
X127933958Y-86420040D01*
X127952415Y-86397185D01*
X127972144Y-86375263D01*
X127992485Y-86354478D01*
X128013606Y-86335033D01*
X128035506Y-86316930D01*
X128058185Y-86300168D01*
X128081643Y-86284746D01*
X128105880Y-86270666D01*
X128130897Y-86257927D01*
X128156693Y-86246529D01*
X128183268Y-86236471D01*
X128210623Y-86227755D01*
X128238756Y-86220380D01*
X128267669Y-86214345D01*
X128297362Y-86209651D01*
X128327833Y-86206299D01*
X128359084Y-86204287D01*
X128391114Y-86203616D01*
X130153442Y-86199884D01*
X130164694Y-86199731D01*
X130175588Y-86199272D01*
X130186126Y-86198507D01*
X130196306Y-86197436D01*
X130206129Y-86196059D01*
X130215595Y-86194375D01*
X130224703Y-86192386D01*
X130233455Y-86190090D01*
X130241849Y-86187488D01*
X130249886Y-86184580D01*
X130257565Y-86181366D01*
X130264888Y-86177846D01*
X130271853Y-86174020D01*
X130278461Y-86169888D01*
X130284712Y-86165450D01*
X130290606Y-86160705D01*
X130296143Y-86155655D01*
X130301322Y-86150298D01*
X130306144Y-86144636D01*
X130310609Y-86138667D01*
X130314717Y-86132392D01*
X130318467Y-86125811D01*
X130321861Y-86118924D01*
X130324897Y-86111731D01*
X130327576Y-86104232D01*
X130329897Y-86096426D01*
X130331862Y-86088315D01*
X130333469Y-86079897D01*
X130334719Y-86071174D01*
X130335612Y-86062144D01*
X130336148Y-86052809D01*
X130336327Y-86043167D01*
X130336148Y-86033525D01*
X130335612Y-86024189D01*
X130334719Y-86015159D01*
X130333469Y-86006436D01*
X130331862Y-85998018D01*
X130329897Y-85989907D01*
X130327576Y-85982101D01*
X130324897Y-85974602D01*
X130321860Y-85967409D01*
X130318467Y-85960522D01*
X130314717Y-85953941D01*
X130310609Y-85947666D01*
X130306144Y-85941697D01*
X130301322Y-85936034D01*
X130296142Y-85930678D01*
X130290606Y-85925627D01*
X130284712Y-85920883D01*
X130278461Y-85916444D01*
X130271853Y-85912312D01*
X130264888Y-85908486D01*
X130257565Y-85904966D01*
X130249885Y-85901752D01*
X130241848Y-85898844D01*
X130233454Y-85896242D01*
X130224703Y-85893946D01*
X130215594Y-85891956D01*
X130196306Y-85888895D01*
X130175588Y-85887058D01*
X130153442Y-85886446D01*
X127908967Y-85886446D01*
X127908967Y-85397631D01*
X130263173Y-85397631D01*
X130285826Y-85397952D01*
G37*
G36*
X132353042Y-88152044D02*
G01*
X131769978Y-88152044D01*
X131769978Y-87687686D01*
X132353042Y-87687686D01*
X132353042Y-88152044D01*
G37*
G36*
X133489756Y-85397952D02*
G01*
X133511993Y-85398914D01*
X133533815Y-85400518D01*
X133555220Y-85402763D01*
X133576210Y-85405649D01*
X133596785Y-85409177D01*
X133616943Y-85413345D01*
X133636686Y-85418155D01*
X133656014Y-85423607D01*
X133674925Y-85429699D01*
X133693422Y-85436433D01*
X133711502Y-85443808D01*
X133729167Y-85451825D01*
X133746416Y-85460483D01*
X133763250Y-85469782D01*
X133779668Y-85479723D01*
X133812283Y-85502009D01*
X133842794Y-85525957D01*
X133871200Y-85551567D01*
X133897503Y-85578839D01*
X133921701Y-85607772D01*
X133943795Y-85638367D01*
X133963785Y-85670623D01*
X133981671Y-85704541D01*
X133997452Y-85740121D01*
X134011129Y-85777362D01*
X134022702Y-85816265D01*
X134032171Y-85856829D01*
X134039536Y-85899055D01*
X134044797Y-85942942D01*
X134047953Y-85988492D01*
X134049005Y-86035702D01*
X134048381Y-86071617D01*
X134046511Y-86106599D01*
X134043394Y-86140649D01*
X134039029Y-86173765D01*
X134033418Y-86205948D01*
X134026560Y-86237199D01*
X134018455Y-86267517D01*
X134009103Y-86296902D01*
X133998504Y-86325353D01*
X133986658Y-86352873D01*
X133973566Y-86379459D01*
X133959226Y-86405112D01*
X133943639Y-86429833D01*
X133926805Y-86453620D01*
X133908725Y-86476475D01*
X133889397Y-86498397D01*
X133868654Y-86518730D01*
X133847158Y-86537751D01*
X133824908Y-86555460D01*
X133801904Y-86571858D01*
X133778148Y-86586944D01*
X133753638Y-86600718D01*
X133728374Y-86613180D01*
X133702358Y-86624331D01*
X133675587Y-86634169D01*
X133648064Y-86642696D01*
X133619787Y-86649911D01*
X133590757Y-86655814D01*
X133560974Y-86660406D01*
X133530437Y-86663685D01*
X133499147Y-86665653D01*
X133467104Y-86666309D01*
X133467104Y-86666311D01*
X131704774Y-86670043D01*
X131693522Y-86670196D01*
X131682628Y-86670656D01*
X131672091Y-86671421D01*
X131661911Y-86672493D01*
X131652089Y-86673870D01*
X131642623Y-86675554D01*
X131633515Y-86677543D01*
X131624764Y-86679839D01*
X131616370Y-86682441D01*
X131608333Y-86685349D01*
X131600654Y-86688563D01*
X131593331Y-86692083D01*
X131586366Y-86695909D01*
X131579758Y-86700042D01*
X131573507Y-86704480D01*
X131567613Y-86709224D01*
X131562077Y-86714275D01*
X131556898Y-86719632D01*
X131552075Y-86725294D01*
X131547611Y-86731263D01*
X131543503Y-86737538D01*
X131539752Y-86744119D01*
X131536359Y-86751006D01*
X131533322Y-86758199D01*
X131530643Y-86765699D01*
X131528322Y-86773504D01*
X131526357Y-86781615D01*
X131524749Y-86790033D01*
X131523499Y-86798757D01*
X131522606Y-86807786D01*
X131522070Y-86817122D01*
X131521891Y-86826764D01*
X131522070Y-86836636D01*
X131522606Y-86846194D01*
X131523499Y-86855438D01*
X131524749Y-86864370D01*
X131526357Y-86872988D01*
X131528322Y-86881292D01*
X131530643Y-86889283D01*
X131533322Y-86896961D01*
X131536359Y-86904326D01*
X131539752Y-86911377D01*
X131543503Y-86918114D01*
X131547611Y-86924539D01*
X131552075Y-86930650D01*
X131556898Y-86936447D01*
X131562077Y-86941932D01*
X131567613Y-86947102D01*
X131573507Y-86951960D01*
X131579758Y-86956504D01*
X131586366Y-86960735D01*
X131593331Y-86964652D01*
X131600654Y-86968256D01*
X131608333Y-86971546D01*
X131616370Y-86974524D01*
X131624764Y-86977187D01*
X131633515Y-86979538D01*
X131642623Y-86981575D01*
X131652089Y-86983298D01*
X131661911Y-86984709D01*
X131682628Y-86986589D01*
X131704774Y-86987216D01*
X134049005Y-86983483D01*
X134049005Y-87472296D01*
X131595044Y-87472296D01*
X131572002Y-87471990D01*
X131549428Y-87471072D01*
X131527321Y-87469542D01*
X131505682Y-87467399D01*
X131484510Y-87464644D01*
X131463806Y-87461277D01*
X131443570Y-87457298D01*
X131423801Y-87452706D01*
X131404499Y-87447503D01*
X131385665Y-87441687D01*
X131367299Y-87435259D01*
X131349400Y-87428219D01*
X131331969Y-87420567D01*
X131315005Y-87412302D01*
X131298509Y-87403426D01*
X131282480Y-87393937D01*
X131249866Y-87372525D01*
X131219356Y-87349335D01*
X131190949Y-87324367D01*
X131164647Y-87297620D01*
X131140449Y-87269095D01*
X131118355Y-87238792D01*
X131098365Y-87206710D01*
X131080480Y-87172851D01*
X131064698Y-87137213D01*
X131051021Y-87099797D01*
X131039448Y-87060602D01*
X131029978Y-87019630D01*
X131022613Y-86976879D01*
X131017353Y-86932350D01*
X131014196Y-86886043D01*
X131013143Y-86837957D01*
X131013780Y-86802043D01*
X131015690Y-86767061D01*
X131018873Y-86733012D01*
X131023328Y-86699896D01*
X131029056Y-86667712D01*
X131036057Y-86636462D01*
X131044331Y-86606144D01*
X131053878Y-86576759D01*
X131064698Y-86548307D01*
X131076790Y-86520788D01*
X131090156Y-86494202D01*
X131104794Y-86468549D01*
X131120705Y-86443828D01*
X131137889Y-86420040D01*
X131156345Y-86397185D01*
X131176075Y-86375263D01*
X131196416Y-86354478D01*
X131217537Y-86335033D01*
X131239436Y-86316930D01*
X131262115Y-86300168D01*
X131285573Y-86284746D01*
X131309811Y-86270666D01*
X131334827Y-86257927D01*
X131360623Y-86246529D01*
X131387199Y-86236471D01*
X131414553Y-86227755D01*
X131442687Y-86220380D01*
X131471600Y-86214345D01*
X131501292Y-86209651D01*
X131531763Y-86206299D01*
X131563014Y-86204287D01*
X131595044Y-86203616D01*
X133357373Y-86199884D01*
X133368624Y-86199731D01*
X133379519Y-86199272D01*
X133390056Y-86198507D01*
X133400236Y-86197436D01*
X133410059Y-86196058D01*
X133419525Y-86194375D01*
X133428634Y-86192386D01*
X133437385Y-86190090D01*
X133445779Y-86187488D01*
X133453816Y-86184580D01*
X133461496Y-86181366D01*
X133468818Y-86177846D01*
X133475784Y-86174020D01*
X133482392Y-86169888D01*
X133488643Y-86165450D01*
X133494537Y-86160705D01*
X133500073Y-86155655D01*
X133505252Y-86150298D01*
X133510075Y-86144636D01*
X133514539Y-86138667D01*
X133518647Y-86132392D01*
X133522398Y-86125811D01*
X133525791Y-86118924D01*
X133528827Y-86111731D01*
X133531506Y-86104232D01*
X133533828Y-86096426D01*
X133535792Y-86088315D01*
X133537400Y-86079897D01*
X133538650Y-86071174D01*
X133539543Y-86062144D01*
X133540078Y-86052809D01*
X133540257Y-86043167D01*
X133540078Y-86033525D01*
X133539543Y-86024189D01*
X133538650Y-86015159D01*
X133537399Y-86006436D01*
X133535792Y-85998018D01*
X133533827Y-85989907D01*
X133531506Y-85982101D01*
X133528827Y-85974602D01*
X133525790Y-85967409D01*
X133522397Y-85960522D01*
X133518647Y-85953941D01*
X133514539Y-85947666D01*
X133510074Y-85941697D01*
X133505252Y-85936034D01*
X133500072Y-85930678D01*
X133494536Y-85925627D01*
X133488642Y-85920883D01*
X133482391Y-85916444D01*
X133475783Y-85912312D01*
X133468818Y-85908486D01*
X133461495Y-85904966D01*
X133453816Y-85901752D01*
X133445779Y-85898844D01*
X133437385Y-85896242D01*
X133428633Y-85893946D01*
X133419525Y-85891956D01*
X133400236Y-85888895D01*
X133379519Y-85887058D01*
X133357373Y-85886446D01*
X131112897Y-85886446D01*
X131112897Y-85397631D01*
X133467104Y-85397631D01*
X133489756Y-85397952D01*
G37*
D10*
X143232905Y-86464866D02*
X143284447Y-86466957D01*
X143334977Y-86470443D01*
X143384494Y-86475324D01*
X143432998Y-86481600D01*
X143480490Y-86489272D01*
X143526968Y-86498339D01*
X143572433Y-86508802D01*
X143616885Y-86520662D01*
X143660324Y-86533918D01*
X143702749Y-86548571D01*
X143744160Y-86564621D01*
X143784557Y-86582068D01*
X143823941Y-86600913D01*
X143862310Y-86621156D01*
X143899665Y-86642798D01*
X143935483Y-86665674D01*
X143970226Y-86689623D01*
X144003893Y-86714644D01*
X144036485Y-86740737D01*
X144068001Y-86767900D01*
X144098442Y-86796134D01*
X144127808Y-86825439D01*
X144156099Y-86855813D01*
X144183315Y-86887257D01*
X144209457Y-86919770D01*
X144234525Y-86953352D01*
X144258518Y-86988002D01*
X144281437Y-87023720D01*
X144303282Y-87060505D01*
X144324053Y-87098357D01*
X144343751Y-87137277D01*
X144362314Y-87177100D01*
X144379682Y-87217667D01*
X144395854Y-87258976D01*
X144410829Y-87301028D01*
X144424609Y-87343822D01*
X144437192Y-87387359D01*
X144448578Y-87431639D01*
X144458767Y-87476662D01*
X144467758Y-87522427D01*
X144475552Y-87568935D01*
X144482147Y-87616186D01*
X144487544Y-87664180D01*
X144491742Y-87712916D01*
X144494741Y-87762395D01*
X144496541Y-87812616D01*
X144497141Y-87863580D01*
X144496618Y-87915465D01*
X144495050Y-87966546D01*
X144492436Y-88016825D01*
X144488777Y-88066301D01*
X144484073Y-88114974D01*
X144478325Y-88162844D01*
X144471532Y-88209912D01*
X144463695Y-88256178D01*
X144454814Y-88301642D01*
X144444889Y-88346304D01*
X144433920Y-88390164D01*
X144421909Y-88433222D01*
X144408854Y-88475478D01*
X144394756Y-88516934D01*
X144379615Y-88557588D01*
X144363432Y-88597441D01*
X144346160Y-88635883D01*
X144327752Y-88673257D01*
X144308207Y-88709562D01*
X144287527Y-88744798D01*
X144265710Y-88778965D01*
X144242758Y-88812063D01*
X144218669Y-88844091D01*
X144193444Y-88875050D01*
X144167083Y-88904940D01*
X144139586Y-88933760D01*
X144110953Y-88961510D01*
X144081183Y-88988190D01*
X144050278Y-89013801D01*
X144018236Y-89038342D01*
X143985058Y-89061812D01*
X143950743Y-89084212D01*
X143914787Y-89104933D01*
X143877666Y-89124316D01*
X143839379Y-89142361D01*
X143799927Y-89159069D01*
X143759308Y-89174440D01*
X143717524Y-89188473D01*
X143674573Y-89201169D01*
X143630456Y-89212528D01*
X143585172Y-89222550D01*
X143538720Y-89231236D01*
X143491102Y-89238585D01*
X143442316Y-89244597D01*
X143392362Y-89249273D01*
X143341240Y-89252613D01*
X143288949Y-89254617D01*
X143235491Y-89255285D01*
X143180156Y-89254747D01*
X143126169Y-89253133D01*
X143073531Y-89250446D01*
X143022243Y-89246688D01*
X142972306Y-89241860D01*
X142923721Y-89235965D01*
X142876490Y-89229004D01*
X142830612Y-89220979D01*
X142785352Y-89211833D01*
X142739969Y-89201504D01*
X142694465Y-89189990D01*
X142648837Y-89177290D01*
X142603087Y-89163402D01*
X142557214Y-89148323D01*
X142511217Y-89132053D01*
X142465097Y-89114588D01*
X142465097Y-88631595D01*
X142514777Y-88648234D01*
X142563592Y-88663928D01*
X142611545Y-88678674D01*
X142658637Y-88692471D01*
X142704869Y-88705318D01*
X142750242Y-88717212D01*
X142794759Y-88728153D01*
X142838421Y-88738138D01*
X142880734Y-88747046D01*
X142923168Y-88754759D01*
X142965725Y-88761280D01*
X143008403Y-88766610D01*
X143051205Y-88770752D01*
X143094130Y-88773708D01*
X143137178Y-88775480D01*
X143180351Y-88776070D01*
X143225751Y-88775149D01*
X143269589Y-88772387D01*
X143311862Y-88767782D01*
X143352571Y-88761336D01*
X143391715Y-88753048D01*
X143429295Y-88742919D01*
X143465309Y-88730947D01*
X143499757Y-88717134D01*
X143532640Y-88701479D01*
X143563956Y-88683981D01*
X143593705Y-88664642D01*
X143621887Y-88643461D01*
X143648502Y-88620438D01*
X143673549Y-88595573D01*
X143697028Y-88568866D01*
X143718938Y-88540316D01*
X143738926Y-88509614D01*
X143757623Y-88477399D01*
X143775027Y-88443671D01*
X143791140Y-88408429D01*
X143805961Y-88371674D01*
X143819492Y-88333404D01*
X143831732Y-88293620D01*
X143842682Y-88252321D01*
X143852343Y-88209507D01*
X143860714Y-88165178D01*
X143867796Y-88119333D01*
X143873590Y-88071971D01*
X143878096Y-88023094D01*
X143881314Y-87972699D01*
X143883244Y-87920788D01*
X143883887Y-87867359D01*
X143883182Y-87814360D01*
X143881066Y-87762786D01*
X143877538Y-87712638D01*
X143872599Y-87663916D01*
X143866248Y-87616619D01*
X143858486Y-87570749D01*
X143849311Y-87526304D01*
X143838725Y-87483285D01*
X143826725Y-87441692D01*
X143813313Y-87401525D01*
X143798488Y-87362784D01*
X143782250Y-87325470D01*
X143764599Y-87289581D01*
X143745534Y-87255119D01*
X143725055Y-87222083D01*
X143703162Y-87190473D01*
X143679932Y-87160542D01*
X143655441Y-87132540D01*
X143629691Y-87106467D01*
X143602680Y-87082325D01*
X143574410Y-87060113D01*
X143544880Y-87039832D01*
X143514091Y-87021481D01*
X143482042Y-87005061D01*
X143448735Y-86990572D01*
X143414169Y-86978014D01*
X143378345Y-86967387D01*
X143341262Y-86958693D01*
X143302921Y-86951930D01*
X143263322Y-86947099D01*
X143222465Y-86944200D01*
X143180351Y-86943234D01*
X143161176Y-86943443D01*
X143141973Y-86944070D01*
X143122741Y-86945115D01*
X143103481Y-86946578D01*
X143084192Y-86948458D01*
X143064873Y-86950755D01*
X143026145Y-86956598D01*
X142987294Y-86964105D01*
X142948318Y-86973272D01*
X142909213Y-86984098D01*
X142869976Y-86996580D01*
X142829744Y-87010184D01*
X142789627Y-87024379D01*
X142749626Y-87039165D01*
X142709744Y-87054544D01*
X142669986Y-87070517D01*
X142630353Y-87087085D01*
X142590849Y-87104250D01*
X142551478Y-87122013D01*
X142358879Y-86654284D01*
X142407336Y-86633012D01*
X142456409Y-86612926D01*
X142506099Y-86594028D01*
X142556405Y-86576318D01*
X142607324Y-86559796D01*
X142658856Y-86544462D01*
X142711001Y-86530319D01*
X142763756Y-86517365D01*
X142815833Y-86504889D01*
X142867908Y-86494080D01*
X142919981Y-86484937D01*
X142972053Y-86477458D01*
X143024126Y-86471643D01*
X143076199Y-86467490D01*
X143128274Y-86464999D01*
X143180351Y-86464169D01*
X143232905Y-86464866D01*
G36*
X143232905Y-86464866D02*
G01*
X143284447Y-86466957D01*
X143334977Y-86470443D01*
X143384494Y-86475324D01*
X143432998Y-86481600D01*
X143480490Y-86489272D01*
X143526968Y-86498339D01*
X143572433Y-86508802D01*
X143616885Y-86520662D01*
X143660324Y-86533918D01*
X143702749Y-86548571D01*
X143744160Y-86564621D01*
X143784557Y-86582068D01*
X143823941Y-86600913D01*
X143862310Y-86621156D01*
X143899665Y-86642798D01*
X143935483Y-86665674D01*
X143970226Y-86689623D01*
X144003893Y-86714644D01*
X144036485Y-86740737D01*
X144068001Y-86767900D01*
X144098442Y-86796134D01*
X144127808Y-86825439D01*
X144156099Y-86855813D01*
X144183315Y-86887257D01*
X144209457Y-86919770D01*
X144234525Y-86953352D01*
X144258518Y-86988002D01*
X144281437Y-87023720D01*
X144303282Y-87060505D01*
X144324053Y-87098357D01*
X144343751Y-87137277D01*
X144362314Y-87177100D01*
X144379682Y-87217667D01*
X144395854Y-87258976D01*
X144410829Y-87301028D01*
X144424609Y-87343822D01*
X144437192Y-87387359D01*
X144448578Y-87431639D01*
X144458767Y-87476662D01*
X144467758Y-87522427D01*
X144475552Y-87568935D01*
X144482147Y-87616186D01*
X144487544Y-87664180D01*
X144491742Y-87712916D01*
X144494741Y-87762395D01*
X144496541Y-87812616D01*
X144497141Y-87863580D01*
X144496618Y-87915465D01*
X144495050Y-87966546D01*
X144492436Y-88016825D01*
X144488777Y-88066301D01*
X144484073Y-88114974D01*
X144478325Y-88162844D01*
X144471532Y-88209912D01*
X144463695Y-88256178D01*
X144454814Y-88301642D01*
X144444889Y-88346304D01*
X144433920Y-88390164D01*
X144421909Y-88433222D01*
X144408854Y-88475478D01*
X144394756Y-88516934D01*
X144379615Y-88557588D01*
X144363432Y-88597441D01*
X144346160Y-88635883D01*
X144327752Y-88673257D01*
X144308207Y-88709562D01*
X144287527Y-88744798D01*
X144265710Y-88778965D01*
X144242758Y-88812063D01*
X144218669Y-88844091D01*
X144193444Y-88875050D01*
X144167083Y-88904940D01*
X144139586Y-88933760D01*
X144110953Y-88961510D01*
X144081183Y-88988190D01*
X144050278Y-89013801D01*
X144018236Y-89038342D01*
X143985058Y-89061812D01*
X143950743Y-89084212D01*
X143914787Y-89104933D01*
X143877666Y-89124316D01*
X143839379Y-89142361D01*
X143799927Y-89159069D01*
X143759308Y-89174440D01*
X143717524Y-89188473D01*
X143674573Y-89201169D01*
X143630456Y-89212528D01*
X143585172Y-89222550D01*
X143538720Y-89231236D01*
X143491102Y-89238585D01*
X143442316Y-89244597D01*
X143392362Y-89249273D01*
X143341240Y-89252613D01*
X143288949Y-89254617D01*
X143235491Y-89255285D01*
X143180156Y-89254747D01*
X143126169Y-89253133D01*
X143073531Y-89250446D01*
X143022243Y-89246688D01*
X142972306Y-89241860D01*
X142923721Y-89235965D01*
X142876490Y-89229004D01*
X142830612Y-89220979D01*
X142785352Y-89211833D01*
X142739969Y-89201504D01*
X142694465Y-89189990D01*
X142648837Y-89177290D01*
X142603087Y-89163402D01*
X142557214Y-89148323D01*
X142511217Y-89132053D01*
X142465097Y-89114588D01*
X142465097Y-88631595D01*
X142514777Y-88648234D01*
X142563592Y-88663928D01*
X142611545Y-88678674D01*
X142658637Y-88692471D01*
X142704869Y-88705318D01*
X142750242Y-88717212D01*
X142794759Y-88728153D01*
X142838421Y-88738138D01*
X142880734Y-88747046D01*
X142923168Y-88754759D01*
X142965725Y-88761280D01*
X143008403Y-88766610D01*
X143051205Y-88770752D01*
X143094130Y-88773708D01*
X143137178Y-88775480D01*
X143180351Y-88776070D01*
X143225751Y-88775149D01*
X143269589Y-88772387D01*
X143311862Y-88767782D01*
X143352571Y-88761336D01*
X143391715Y-88753048D01*
X143429295Y-88742919D01*
X143465309Y-88730947D01*
X143499757Y-88717134D01*
X143532640Y-88701479D01*
X143563956Y-88683981D01*
X143593705Y-88664642D01*
X143621887Y-88643461D01*
X143648502Y-88620438D01*
X143673549Y-88595573D01*
X143697028Y-88568866D01*
X143718938Y-88540316D01*
X143738926Y-88509614D01*
X143757623Y-88477399D01*
X143775027Y-88443671D01*
X143791140Y-88408429D01*
X143805961Y-88371674D01*
X143819492Y-88333404D01*
X143831732Y-88293620D01*
X143842682Y-88252321D01*
X143852343Y-88209507D01*
X143860714Y-88165178D01*
X143867796Y-88119333D01*
X143873590Y-88071971D01*
X143878096Y-88023094D01*
X143881314Y-87972699D01*
X143883244Y-87920788D01*
X143883887Y-87867359D01*
X143883182Y-87814360D01*
X143881066Y-87762786D01*
X143877538Y-87712638D01*
X143872599Y-87663916D01*
X143866248Y-87616619D01*
X143858486Y-87570749D01*
X143849311Y-87526304D01*
X143838725Y-87483285D01*
X143826725Y-87441692D01*
X143813313Y-87401525D01*
X143798488Y-87362784D01*
X143782250Y-87325470D01*
X143764599Y-87289581D01*
X143745534Y-87255119D01*
X143725055Y-87222083D01*
X143703162Y-87190473D01*
X143679932Y-87160542D01*
X143655441Y-87132540D01*
X143629691Y-87106467D01*
X143602680Y-87082325D01*
X143574410Y-87060113D01*
X143544880Y-87039832D01*
X143514091Y-87021481D01*
X143482042Y-87005061D01*
X143448735Y-86990572D01*
X143414169Y-86978014D01*
X143378345Y-86967387D01*
X143341262Y-86958693D01*
X143302921Y-86951930D01*
X143263322Y-86947099D01*
X143222465Y-86944200D01*
X143180351Y-86943234D01*
X143161176Y-86943443D01*
X143141973Y-86944070D01*
X143122741Y-86945115D01*
X143103481Y-86946578D01*
X143084192Y-86948458D01*
X143064873Y-86950755D01*
X143026145Y-86956598D01*
X142987294Y-86964105D01*
X142948318Y-86973272D01*
X142909213Y-86984098D01*
X142869976Y-86996580D01*
X142829744Y-87010184D01*
X142789627Y-87024379D01*
X142749626Y-87039165D01*
X142709744Y-87054544D01*
X142669986Y-87070517D01*
X142630353Y-87087085D01*
X142590849Y-87104250D01*
X142551478Y-87122013D01*
X142358879Y-86654284D01*
X142407336Y-86633012D01*
X142456409Y-86612926D01*
X142506099Y-86594028D01*
X142556405Y-86576318D01*
X142607324Y-86559796D01*
X142658856Y-86544462D01*
X142711001Y-86530319D01*
X142763756Y-86517365D01*
X142815833Y-86504889D01*
X142867908Y-86494080D01*
X142919981Y-86484937D01*
X142972053Y-86477458D01*
X143024126Y-86471643D01*
X143076199Y-86467490D01*
X143128274Y-86464999D01*
X143180351Y-86464169D01*
X143232905Y-86464866D01*
G37*
X156380501Y-86518658D02*
X156442056Y-86522502D01*
X156502884Y-86528844D01*
X156562929Y-86537632D01*
X156622137Y-86548811D01*
X156680453Y-86562329D01*
X156794188Y-86596169D01*
X156903693Y-86638728D01*
X157008528Y-86689581D01*
X157108253Y-86748304D01*
X157202427Y-86814471D01*
X157290611Y-86887658D01*
X157372363Y-86967441D01*
X157447244Y-87053396D01*
X157514814Y-87145097D01*
X157574631Y-87242121D01*
X157626257Y-87344042D01*
X157669250Y-87450436D01*
X157687372Y-87505177D01*
X157703170Y-87560878D01*
X157000256Y-87560878D01*
X156987931Y-87538670D01*
X156974859Y-87516919D01*
X156961058Y-87495639D01*
X156946543Y-87474848D01*
X156931333Y-87454561D01*
X156915443Y-87434796D01*
X156898890Y-87415569D01*
X156881691Y-87396895D01*
X156863862Y-87378792D01*
X156845421Y-87361275D01*
X156826382Y-87344361D01*
X156806764Y-87328066D01*
X156786583Y-87312407D01*
X156765856Y-87297400D01*
X156744598Y-87283061D01*
X156722828Y-87269406D01*
X156700560Y-87256453D01*
X156677813Y-87244217D01*
X156654603Y-87232714D01*
X156630946Y-87221962D01*
X156606858Y-87211975D01*
X156582358Y-87202772D01*
X156557460Y-87194367D01*
X156532183Y-87186778D01*
X156506542Y-87180020D01*
X156480554Y-87174111D01*
X156454236Y-87169065D01*
X156427604Y-87164901D01*
X156400675Y-87161633D01*
X156373466Y-87159279D01*
X156345994Y-87157854D01*
X156318274Y-87157376D01*
X156278866Y-87158343D01*
X156239967Y-87161215D01*
X156201627Y-87165943D01*
X156163893Y-87172482D01*
X156126815Y-87180783D01*
X156090441Y-87190801D01*
X156054821Y-87202487D01*
X156020001Y-87215796D01*
X155986031Y-87230680D01*
X155952961Y-87247092D01*
X155920837Y-87264985D01*
X155889709Y-87284312D01*
X155859626Y-87305026D01*
X155830636Y-87327081D01*
X155802787Y-87350429D01*
X155776129Y-87375023D01*
X155750710Y-87400817D01*
X155726579Y-87427763D01*
X155703784Y-87455814D01*
X155682373Y-87484924D01*
X155662396Y-87515045D01*
X155643901Y-87546131D01*
X155626937Y-87578134D01*
X155611552Y-87611008D01*
X155597795Y-87644705D01*
X155585714Y-87679179D01*
X155575359Y-87714382D01*
X155566777Y-87750268D01*
X155560018Y-87786790D01*
X155555130Y-87823900D01*
X155552161Y-87861552D01*
X155551161Y-87899699D01*
X155552161Y-87937816D01*
X155555130Y-87975439D01*
X155560018Y-88012521D01*
X155566777Y-88049016D01*
X155575359Y-88084876D01*
X155585714Y-88120055D01*
X155597795Y-88154506D01*
X155611552Y-88188181D01*
X155626937Y-88221033D01*
X155643901Y-88253016D01*
X155662396Y-88284083D01*
X155682373Y-88314186D01*
X155703784Y-88343278D01*
X155726579Y-88371314D01*
X155750710Y-88398245D01*
X155776129Y-88424024D01*
X155802787Y-88448605D01*
X155830636Y-88471941D01*
X155859626Y-88493985D01*
X155889709Y-88514689D01*
X155920837Y-88534007D01*
X155952961Y-88551891D01*
X155986031Y-88568295D01*
X156020001Y-88583172D01*
X156054821Y-88596475D01*
X156090441Y-88608157D01*
X156126815Y-88618170D01*
X156163893Y-88626468D01*
X156201627Y-88633004D01*
X156239967Y-88637730D01*
X156278866Y-88640601D01*
X156318274Y-88641568D01*
X156373466Y-88639667D01*
X156427604Y-88634052D01*
X156480554Y-88624852D01*
X156532183Y-88612197D01*
X156582358Y-88596216D01*
X156630946Y-88577040D01*
X156677813Y-88554798D01*
X156722828Y-88529620D01*
X156765856Y-88501635D01*
X156806764Y-88470974D01*
X156845421Y-88437766D01*
X156881691Y-88402141D01*
X156915443Y-88364229D01*
X156946543Y-88324159D01*
X156974859Y-88282062D01*
X157000256Y-88238066D01*
X157703170Y-88238066D01*
X157687372Y-88293778D01*
X157669250Y-88348530D01*
X157648860Y-88402271D01*
X157626257Y-88454947D01*
X157601496Y-88506505D01*
X157574631Y-88556892D01*
X157545719Y-88606055D01*
X157514814Y-88653941D01*
X157481971Y-88700496D01*
X157447244Y-88745667D01*
X157410690Y-88789402D01*
X157372363Y-88831647D01*
X157332318Y-88872349D01*
X157290611Y-88911455D01*
X157247295Y-88948911D01*
X157202427Y-88984666D01*
X157156061Y-89018665D01*
X157108253Y-89050856D01*
X157059057Y-89081185D01*
X157008528Y-89109599D01*
X156956722Y-89136045D01*
X156903693Y-89160470D01*
X156849497Y-89182822D01*
X156794188Y-89203046D01*
X156737822Y-89221089D01*
X156680453Y-89236899D01*
X156622137Y-89250423D01*
X156562929Y-89261607D01*
X156502884Y-89270398D01*
X156442056Y-89276743D01*
X156380501Y-89280589D01*
X156318274Y-89281882D01*
X156244854Y-89280081D01*
X156172388Y-89274735D01*
X156100966Y-89265931D01*
X156030678Y-89253758D01*
X155961615Y-89238302D01*
X155893866Y-89219651D01*
X155827523Y-89197892D01*
X155762675Y-89173113D01*
X155699414Y-89145402D01*
X155637828Y-89114845D01*
X155578009Y-89081531D01*
X155520046Y-89045546D01*
X155464031Y-89006978D01*
X155410053Y-88965914D01*
X155358202Y-88922442D01*
X155308570Y-88876650D01*
X155261246Y-88828624D01*
X155216320Y-88778453D01*
X155173884Y-88726223D01*
X155134027Y-88672022D01*
X155096839Y-88615937D01*
X155062412Y-88558057D01*
X155030834Y-88498467D01*
X155002197Y-88437257D01*
X154976591Y-88374512D01*
X154954106Y-88310322D01*
X154934832Y-88244772D01*
X154918861Y-88177951D01*
X154906281Y-88109945D01*
X154897184Y-88040843D01*
X154891659Y-87970732D01*
X154889797Y-87899699D01*
X154891659Y-87828656D01*
X154897184Y-87758535D01*
X154906281Y-87689424D01*
X154918861Y-87621409D01*
X154934832Y-87554580D01*
X154954106Y-87489022D01*
X154976591Y-87424823D01*
X155002197Y-87362071D01*
X155030834Y-87300854D01*
X155062412Y-87241258D01*
X155096839Y-87183371D01*
X155134027Y-87127280D01*
X155173884Y-87073074D01*
X155216320Y-87020838D01*
X155261246Y-86970662D01*
X155308570Y-86922631D01*
X155358202Y-86876835D01*
X155410053Y-86833359D01*
X155464031Y-86792291D01*
X155520046Y-86753720D01*
X155578009Y-86717732D01*
X155637828Y-86684414D01*
X155699414Y-86653855D01*
X155762675Y-86626142D01*
X155827523Y-86601361D01*
X155893866Y-86579601D01*
X155961615Y-86560948D01*
X156030678Y-86545491D01*
X156100966Y-86533317D01*
X156172388Y-86524513D01*
X156244854Y-86519166D01*
X156318274Y-86517364D01*
X156380501Y-86518658D01*
G36*
X156380501Y-86518658D02*
G01*
X156442056Y-86522502D01*
X156502884Y-86528844D01*
X156562929Y-86537632D01*
X156622137Y-86548811D01*
X156680453Y-86562329D01*
X156794188Y-86596169D01*
X156903693Y-86638728D01*
X157008528Y-86689581D01*
X157108253Y-86748304D01*
X157202427Y-86814471D01*
X157290611Y-86887658D01*
X157372363Y-86967441D01*
X157447244Y-87053396D01*
X157514814Y-87145097D01*
X157574631Y-87242121D01*
X157626257Y-87344042D01*
X157669250Y-87450436D01*
X157687372Y-87505177D01*
X157703170Y-87560878D01*
X157000256Y-87560878D01*
X156987931Y-87538670D01*
X156974859Y-87516919D01*
X156961058Y-87495639D01*
X156946543Y-87474848D01*
X156931333Y-87454561D01*
X156915443Y-87434796D01*
X156898890Y-87415569D01*
X156881691Y-87396895D01*
X156863862Y-87378792D01*
X156845421Y-87361275D01*
X156826382Y-87344361D01*
X156806764Y-87328066D01*
X156786583Y-87312407D01*
X156765856Y-87297400D01*
X156744598Y-87283061D01*
X156722828Y-87269406D01*
X156700560Y-87256453D01*
X156677813Y-87244217D01*
X156654603Y-87232714D01*
X156630946Y-87221962D01*
X156606858Y-87211975D01*
X156582358Y-87202772D01*
X156557460Y-87194367D01*
X156532183Y-87186778D01*
X156506542Y-87180020D01*
X156480554Y-87174111D01*
X156454236Y-87169065D01*
X156427604Y-87164901D01*
X156400675Y-87161633D01*
X156373466Y-87159279D01*
X156345994Y-87157854D01*
X156318274Y-87157376D01*
X156278866Y-87158343D01*
X156239967Y-87161215D01*
X156201627Y-87165943D01*
X156163893Y-87172482D01*
X156126815Y-87180783D01*
X156090441Y-87190801D01*
X156054821Y-87202487D01*
X156020001Y-87215796D01*
X155986031Y-87230680D01*
X155952961Y-87247092D01*
X155920837Y-87264985D01*
X155889709Y-87284312D01*
X155859626Y-87305026D01*
X155830636Y-87327081D01*
X155802787Y-87350429D01*
X155776129Y-87375023D01*
X155750710Y-87400817D01*
X155726579Y-87427763D01*
X155703784Y-87455814D01*
X155682373Y-87484924D01*
X155662396Y-87515045D01*
X155643901Y-87546131D01*
X155626937Y-87578134D01*
X155611552Y-87611008D01*
X155597795Y-87644705D01*
X155585714Y-87679179D01*
X155575359Y-87714382D01*
X155566777Y-87750268D01*
X155560018Y-87786790D01*
X155555130Y-87823900D01*
X155552161Y-87861552D01*
X155551161Y-87899699D01*
X155552161Y-87937816D01*
X155555130Y-87975439D01*
X155560018Y-88012521D01*
X155566777Y-88049016D01*
X155575359Y-88084876D01*
X155585714Y-88120055D01*
X155597795Y-88154506D01*
X155611552Y-88188181D01*
X155626937Y-88221033D01*
X155643901Y-88253016D01*
X155662396Y-88284083D01*
X155682373Y-88314186D01*
X155703784Y-88343278D01*
X155726579Y-88371314D01*
X155750710Y-88398245D01*
X155776129Y-88424024D01*
X155802787Y-88448605D01*
X155830636Y-88471941D01*
X155859626Y-88493985D01*
X155889709Y-88514689D01*
X155920837Y-88534007D01*
X155952961Y-88551891D01*
X155986031Y-88568295D01*
X156020001Y-88583172D01*
X156054821Y-88596475D01*
X156090441Y-88608157D01*
X156126815Y-88618170D01*
X156163893Y-88626468D01*
X156201627Y-88633004D01*
X156239967Y-88637730D01*
X156278866Y-88640601D01*
X156318274Y-88641568D01*
X156373466Y-88639667D01*
X156427604Y-88634052D01*
X156480554Y-88624852D01*
X156532183Y-88612197D01*
X156582358Y-88596216D01*
X156630946Y-88577040D01*
X156677813Y-88554798D01*
X156722828Y-88529620D01*
X156765856Y-88501635D01*
X156806764Y-88470974D01*
X156845421Y-88437766D01*
X156881691Y-88402141D01*
X156915443Y-88364229D01*
X156946543Y-88324159D01*
X156974859Y-88282062D01*
X157000256Y-88238066D01*
X157703170Y-88238066D01*
X157687372Y-88293778D01*
X157669250Y-88348530D01*
X157648860Y-88402271D01*
X157626257Y-88454947D01*
X157601496Y-88506505D01*
X157574631Y-88556892D01*
X157545719Y-88606055D01*
X157514814Y-88653941D01*
X157481971Y-88700496D01*
X157447244Y-88745667D01*
X157410690Y-88789402D01*
X157372363Y-88831647D01*
X157332318Y-88872349D01*
X157290611Y-88911455D01*
X157247295Y-88948911D01*
X157202427Y-88984666D01*
X157156061Y-89018665D01*
X157108253Y-89050856D01*
X157059057Y-89081185D01*
X157008528Y-89109599D01*
X156956722Y-89136045D01*
X156903693Y-89160470D01*
X156849497Y-89182822D01*
X156794188Y-89203046D01*
X156737822Y-89221089D01*
X156680453Y-89236899D01*
X156622137Y-89250423D01*
X156562929Y-89261607D01*
X156502884Y-89270398D01*
X156442056Y-89276743D01*
X156380501Y-89280589D01*
X156318274Y-89281882D01*
X156244854Y-89280081D01*
X156172388Y-89274735D01*
X156100966Y-89265931D01*
X156030678Y-89253758D01*
X155961615Y-89238302D01*
X155893866Y-89219651D01*
X155827523Y-89197892D01*
X155762675Y-89173113D01*
X155699414Y-89145402D01*
X155637828Y-89114845D01*
X155578009Y-89081531D01*
X155520046Y-89045546D01*
X155464031Y-89006978D01*
X155410053Y-88965914D01*
X155358202Y-88922442D01*
X155308570Y-88876650D01*
X155261246Y-88828624D01*
X155216320Y-88778453D01*
X155173884Y-88726223D01*
X155134027Y-88672022D01*
X155096839Y-88615937D01*
X155062412Y-88558057D01*
X155030834Y-88498467D01*
X155002197Y-88437257D01*
X154976591Y-88374512D01*
X154954106Y-88310322D01*
X154934832Y-88244772D01*
X154918861Y-88177951D01*
X154906281Y-88109945D01*
X154897184Y-88040843D01*
X154891659Y-87970732D01*
X154889797Y-87899699D01*
X154891659Y-87828656D01*
X154897184Y-87758535D01*
X154906281Y-87689424D01*
X154918861Y-87621409D01*
X154934832Y-87554580D01*
X154954106Y-87489022D01*
X154976591Y-87424823D01*
X155002197Y-87362071D01*
X155030834Y-87300854D01*
X155062412Y-87241258D01*
X155096839Y-87183371D01*
X155134027Y-87127280D01*
X155173884Y-87073074D01*
X155216320Y-87020838D01*
X155261246Y-86970662D01*
X155308570Y-86922631D01*
X155358202Y-86876835D01*
X155410053Y-86833359D01*
X155464031Y-86792291D01*
X155520046Y-86753720D01*
X155578009Y-86717732D01*
X155637828Y-86684414D01*
X155699414Y-86653855D01*
X155762675Y-86626142D01*
X155827523Y-86601361D01*
X155893866Y-86579601D01*
X155961615Y-86560948D01*
X156030678Y-86545491D01*
X156100966Y-86533317D01*
X156172388Y-86524513D01*
X156244854Y-86519166D01*
X156318274Y-86517364D01*
X156380501Y-86518658D01*
G37*
X146572299Y-89217201D02*
X144957005Y-89217201D01*
X144957005Y-88741915D01*
X145978883Y-88741915D01*
X145978883Y-88042209D01*
X145027763Y-88042209D01*
X145027763Y-87570701D01*
X145978883Y-87570701D01*
X145978883Y-86973760D01*
X144957003Y-86973760D01*
X144957003Y-86502101D01*
X146572299Y-86502101D01*
X146572299Y-89217201D01*
G36*
X146572299Y-89217201D02*
G01*
X144957005Y-89217201D01*
X144957005Y-88741915D01*
X145978883Y-88741915D01*
X145978883Y-88042209D01*
X145027763Y-88042209D01*
X145027763Y-87570701D01*
X145978883Y-87570701D01*
X145978883Y-86973760D01*
X144957003Y-86973760D01*
X144957003Y-86502101D01*
X146572299Y-86502101D01*
X146572299Y-89217201D01*
G37*
D11*
G36*
X132353042Y-90288782D02*
G01*
X131769978Y-90288782D01*
X131769978Y-88347563D01*
X132353042Y-88347563D01*
X132353042Y-90288782D01*
G37*
G36*
X131061414Y-89691756D02*
G01*
X131060773Y-89726615D01*
X131058849Y-89760493D01*
X131055644Y-89793388D01*
X131051157Y-89825302D01*
X131045388Y-89856233D01*
X131038337Y-89886183D01*
X131030004Y-89915150D01*
X131020389Y-89943136D01*
X131009492Y-89970140D01*
X130997313Y-89996161D01*
X130983852Y-90021201D01*
X130969108Y-90045259D01*
X130953083Y-90068335D01*
X130935776Y-90090429D01*
X130917187Y-90111541D01*
X130897316Y-90131671D01*
X130876327Y-90150696D01*
X130854383Y-90168494D01*
X130831484Y-90185064D01*
X130807631Y-90200407D01*
X130782823Y-90214523D01*
X130757060Y-90227411D01*
X130730343Y-90239071D01*
X130702671Y-90249504D01*
X130674044Y-90258710D01*
X130644462Y-90266688D01*
X130613926Y-90273439D01*
X130582435Y-90278962D01*
X130549989Y-90283258D01*
X130516589Y-90286327D01*
X130482234Y-90288168D01*
X130446924Y-90288782D01*
X127845827Y-90288782D01*
X127845827Y-89534641D01*
X128428892Y-89534641D01*
X128428892Y-89831410D01*
X130293303Y-89831410D01*
X130304688Y-89831267D01*
X130315711Y-89830838D01*
X130326373Y-89830122D01*
X130336673Y-89829120D01*
X130346612Y-89827832D01*
X130356190Y-89826257D01*
X130365406Y-89824395D01*
X130374260Y-89822247D01*
X130382754Y-89819813D01*
X130390885Y-89817092D01*
X130398656Y-89814085D01*
X130406065Y-89810792D01*
X130413112Y-89807212D01*
X130419799Y-89803345D01*
X130426123Y-89799192D01*
X130432087Y-89794753D01*
X130437689Y-89790027D01*
X130442929Y-89785015D01*
X130447808Y-89779717D01*
X130452326Y-89774132D01*
X130456482Y-89768260D01*
X130460277Y-89762103D01*
X130463711Y-89755658D01*
X130466783Y-89748928D01*
X130469493Y-89741911D01*
X130471843Y-89734607D01*
X130473830Y-89727017D01*
X130475457Y-89719141D01*
X130476722Y-89710978D01*
X130477625Y-89702529D01*
X130478167Y-89693794D01*
X130478348Y-89684772D01*
X130478167Y-89675535D01*
X130477625Y-89666592D01*
X130476722Y-89657942D01*
X130475457Y-89649585D01*
X130473830Y-89641522D01*
X130471843Y-89633751D01*
X130469493Y-89626274D01*
X130466783Y-89619090D01*
X130463711Y-89612199D01*
X130460277Y-89605602D01*
X130456482Y-89599297D01*
X130452326Y-89593286D01*
X130447808Y-89587568D01*
X130442929Y-89582144D01*
X130437689Y-89577012D01*
X130432087Y-89572174D01*
X130426123Y-89567629D01*
X130419799Y-89563377D01*
X130413112Y-89559419D01*
X130406065Y-89555754D01*
X130398656Y-89552382D01*
X130390885Y-89549303D01*
X130382754Y-89546517D01*
X130374260Y-89544025D01*
X130356190Y-89539920D01*
X130336673Y-89536987D01*
X130315711Y-89535228D01*
X130293303Y-89534641D01*
X128428892Y-89534641D01*
X127845827Y-89534641D01*
X127845827Y-89105197D01*
X127846319Y-89055990D01*
X127847792Y-89009621D01*
X127850248Y-88966087D01*
X127853685Y-88925391D01*
X127858104Y-88887531D01*
X127863504Y-88852507D01*
X127866572Y-88836059D01*
X127869886Y-88820320D01*
X127873445Y-88805290D01*
X127877250Y-88790970D01*
X127883237Y-88772354D01*
X127889852Y-88754038D01*
X127897094Y-88736022D01*
X127904964Y-88718306D01*
X127913461Y-88700890D01*
X127922585Y-88683774D01*
X127932337Y-88666958D01*
X127942716Y-88650442D01*
X127953722Y-88634226D01*
X127965355Y-88618311D01*
X127977616Y-88602695D01*
X127990504Y-88587379D01*
X128004019Y-88572363D01*
X128018162Y-88557647D01*
X128032932Y-88543231D01*
X128048329Y-88529116D01*
X128074201Y-88507131D01*
X128101192Y-88486564D01*
X128129301Y-88467416D01*
X128158528Y-88449686D01*
X128188873Y-88433375D01*
X128220337Y-88418482D01*
X128252919Y-88405007D01*
X128286619Y-88392951D01*
X128321438Y-88382313D01*
X128357374Y-88373093D01*
X128394430Y-88365292D01*
X128432603Y-88358909D01*
X128471895Y-88353945D01*
X128512305Y-88350398D01*
X128553833Y-88348270D01*
X128596480Y-88347561D01*
X130925248Y-88347561D01*
X130925248Y-88804938D01*
X128739627Y-88804938D01*
X128715133Y-88805156D01*
X128692276Y-88805811D01*
X128671055Y-88806902D01*
X128651471Y-88808429D01*
X128633522Y-88810393D01*
X128625162Y-88811538D01*
X128617211Y-88812793D01*
X128609668Y-88814157D01*
X128602535Y-88815629D01*
X128595811Y-88817211D01*
X128589496Y-88818902D01*
X128570048Y-88825244D01*
X128551855Y-88832923D01*
X128534917Y-88841938D01*
X128519233Y-88852289D01*
X128504804Y-88863978D01*
X128491630Y-88877002D01*
X128479710Y-88891363D01*
X128469045Y-88907061D01*
X128459634Y-88924095D01*
X128451478Y-88942466D01*
X128444577Y-88962174D01*
X128438931Y-88983217D01*
X128434539Y-89005598D01*
X128431402Y-89029315D01*
X128429519Y-89054368D01*
X128428892Y-89080758D01*
X128428892Y-89098216D01*
X130446924Y-89098216D01*
X130481825Y-89098830D01*
X130515826Y-89100671D01*
X130548926Y-89103740D01*
X130581126Y-89108036D01*
X130612426Y-89113560D01*
X130642826Y-89120310D01*
X130672326Y-89128289D01*
X130700925Y-89137495D01*
X130728624Y-89147928D01*
X130755424Y-89159589D01*
X130781323Y-89172477D01*
X130806322Y-89186592D01*
X130830421Y-89201935D01*
X130853619Y-89218506D01*
X130875918Y-89236304D01*
X130897316Y-89255329D01*
X130917187Y-89275037D01*
X130935776Y-89295753D01*
X130953083Y-89317479D01*
X130969108Y-89340214D01*
X130983852Y-89363959D01*
X130997313Y-89388712D01*
X131009492Y-89414475D01*
X131020389Y-89441246D01*
X131030004Y-89469028D01*
X131038337Y-89497818D01*
X131045388Y-89527618D01*
X131051157Y-89558427D01*
X131055644Y-89590245D01*
X131058849Y-89623073D01*
X131060773Y-89656910D01*
X131061285Y-89684772D01*
X131061414Y-89691756D01*
G37*
G36*
X139360136Y-85371921D02*
G01*
X139393699Y-85373146D01*
X139425808Y-85375187D01*
X139456461Y-85378043D01*
X139485660Y-85381716D01*
X139513404Y-85386205D01*
X139539694Y-85391510D01*
X139564528Y-85397631D01*
X139576530Y-85401158D01*
X139588428Y-85405211D01*
X139600222Y-85409788D01*
X139611912Y-85414890D01*
X139623498Y-85420516D01*
X139634980Y-85426667D01*
X139646358Y-85433343D01*
X139657633Y-85440544D01*
X139668803Y-85448269D01*
X139679870Y-85456519D01*
X139690832Y-85465293D01*
X139701691Y-85474593D01*
X139712446Y-85484416D01*
X139723096Y-85494765D01*
X139733643Y-85505638D01*
X139744086Y-85517036D01*
X139754257Y-85528770D01*
X139763985Y-85540649D01*
X139773272Y-85552674D01*
X139782118Y-85564845D01*
X139790522Y-85577162D01*
X139798484Y-85589624D01*
X139806004Y-85602232D01*
X139813083Y-85614986D01*
X139819721Y-85627885D01*
X139825916Y-85640931D01*
X139831670Y-85654122D01*
X139836983Y-85667458D01*
X139841854Y-85680941D01*
X139846283Y-85694569D01*
X139850270Y-85708343D01*
X139853816Y-85722262D01*
X139860051Y-85750190D01*
X139865454Y-85779867D01*
X139870026Y-85811293D01*
X139873767Y-85844468D01*
X139876677Y-85879392D01*
X139878755Y-85916064D01*
X139880002Y-85954486D01*
X139880417Y-85994656D01*
X139880417Y-86199882D01*
X140229558Y-86199882D01*
X140229558Y-86688697D01*
X139880417Y-86688697D01*
X139880417Y-88274546D01*
X139325118Y-88274546D01*
X139325118Y-86688697D01*
X137659218Y-86681234D01*
X137659218Y-86192419D01*
X139325118Y-86199882D01*
X139325118Y-86147643D01*
X139324832Y-86127922D01*
X139323975Y-86108872D01*
X139322546Y-86090492D01*
X139320546Y-86072783D01*
X139317974Y-86055744D01*
X139314831Y-86039376D01*
X139311116Y-86023678D01*
X139306830Y-86008650D01*
X139301972Y-85994293D01*
X139296543Y-85980606D01*
X139290542Y-85967590D01*
X139283969Y-85955244D01*
X139276825Y-85943568D01*
X139269110Y-85932563D01*
X139260823Y-85922229D01*
X139251964Y-85912564D01*
X139241314Y-85904519D01*
X139236105Y-85900759D01*
X139230975Y-85897174D01*
X139225922Y-85893763D01*
X139220948Y-85890527D01*
X139216051Y-85887467D01*
X139211232Y-85884581D01*
X139206491Y-85881869D01*
X139201828Y-85879333D01*
X139197243Y-85876972D01*
X139192736Y-85874785D01*
X139188306Y-85872774D01*
X139183955Y-85870937D01*
X139179682Y-85869275D01*
X139175486Y-85867788D01*
X139163588Y-85866040D01*
X139151171Y-85864525D01*
X139138235Y-85863243D01*
X139124778Y-85862194D01*
X139110802Y-85861378D01*
X139096306Y-85860794D01*
X139081291Y-85860444D01*
X139065756Y-85860327D01*
X137659218Y-85860327D01*
X137659218Y-85375244D01*
X139325118Y-85371512D01*
X139360136Y-85371921D01*
G37*
D10*
X149123251Y-86981316D02*
X148360667Y-86981316D01*
X148360667Y-89217201D01*
X147767253Y-89217201D01*
X147767253Y-86981316D01*
X147004668Y-86981316D01*
X147004668Y-86502101D01*
X149123251Y-86502101D01*
X149123251Y-86981316D01*
G36*
X149123251Y-86981316D02*
G01*
X148360667Y-86981316D01*
X148360667Y-89217201D01*
X147767253Y-89217201D01*
X147767253Y-86981316D01*
X147004668Y-86981316D01*
X147004668Y-86502101D01*
X149123251Y-86502101D01*
X149123251Y-86981316D01*
G37*
D11*
G36*
X135519175Y-88347861D02*
G01*
X135542524Y-88348762D01*
X135565437Y-88350262D01*
X135587913Y-88352363D01*
X135609952Y-88355063D01*
X135631555Y-88358364D01*
X135652722Y-88362265D01*
X135673452Y-88366766D01*
X135693746Y-88371866D01*
X135713603Y-88377567D01*
X135733024Y-88383868D01*
X135752009Y-88390769D01*
X135770557Y-88398270D01*
X135788669Y-88406370D01*
X135806344Y-88415071D01*
X135823583Y-88424372D01*
X135857828Y-88445226D01*
X135889865Y-88467634D01*
X135919692Y-88491597D01*
X135947309Y-88517114D01*
X135972717Y-88544187D01*
X135995916Y-88572814D01*
X136016905Y-88602995D01*
X136035685Y-88634732D01*
X136052256Y-88668023D01*
X136066617Y-88702868D01*
X136078768Y-88739269D01*
X136088711Y-88777224D01*
X136096443Y-88816734D01*
X136101967Y-88857799D01*
X136105281Y-88900418D01*
X136106386Y-88944592D01*
X136105731Y-88978197D01*
X136103767Y-89010930D01*
X136100494Y-89042789D01*
X136095912Y-89073775D01*
X136090020Y-89103889D01*
X136082819Y-89133130D01*
X136074309Y-89161498D01*
X136064489Y-89188993D01*
X136053361Y-89215615D01*
X136040922Y-89241364D01*
X136027175Y-89266240D01*
X136012119Y-89290243D01*
X135995753Y-89313374D01*
X135978078Y-89335631D01*
X135959093Y-89357015D01*
X135938799Y-89377527D01*
X135917019Y-89396552D01*
X135894447Y-89414350D01*
X135871085Y-89430921D01*
X135846932Y-89446264D01*
X135821987Y-89460380D01*
X135796252Y-89473268D01*
X135769725Y-89484929D01*
X135742408Y-89495362D01*
X135714299Y-89504568D01*
X135685399Y-89512547D01*
X135655709Y-89519298D01*
X135625227Y-89524822D01*
X135593954Y-89529118D01*
X135561891Y-89532187D01*
X135529036Y-89534028D01*
X135495390Y-89534641D01*
X133644945Y-89538130D01*
X133633131Y-89538273D01*
X133621692Y-89538702D01*
X133610629Y-89539419D01*
X133599940Y-89540421D01*
X133589626Y-89541710D01*
X133579687Y-89543285D01*
X133570124Y-89545147D01*
X133560935Y-89547295D01*
X133552121Y-89549729D01*
X133543683Y-89552450D01*
X133535619Y-89555457D01*
X133527931Y-89558751D01*
X133520617Y-89562331D01*
X133513679Y-89566198D01*
X133507115Y-89570350D01*
X133500927Y-89574790D01*
X133495114Y-89579515D01*
X133489675Y-89584528D01*
X133484612Y-89589826D01*
X133479924Y-89595411D01*
X133475611Y-89601282D01*
X133471673Y-89607440D01*
X133468110Y-89613884D01*
X133464922Y-89620614D01*
X133462109Y-89627631D01*
X133459671Y-89634934D01*
X133457608Y-89642524D01*
X133455920Y-89650400D01*
X133454607Y-89658562D01*
X133453669Y-89667011D01*
X133453106Y-89675746D01*
X133452918Y-89684768D01*
X133453106Y-89694004D01*
X133453669Y-89702948D01*
X133454607Y-89711598D01*
X133455919Y-89719955D01*
X133457607Y-89728018D01*
X133459670Y-89735789D01*
X133462108Y-89743266D01*
X133464921Y-89750450D01*
X133468109Y-89757341D01*
X133471672Y-89763938D01*
X133475610Y-89770242D01*
X133479924Y-89776254D01*
X133484612Y-89781971D01*
X133489675Y-89787396D01*
X133495113Y-89792527D01*
X133500927Y-89797366D01*
X133507115Y-89801911D01*
X133513678Y-89806162D01*
X133520617Y-89810121D01*
X133527930Y-89813786D01*
X133535619Y-89817158D01*
X133543682Y-89820237D01*
X133552121Y-89823023D01*
X133560935Y-89825515D01*
X133579687Y-89829620D01*
X133599940Y-89832553D01*
X133621692Y-89834312D01*
X133644945Y-89834898D01*
X136106387Y-89831410D01*
X136106387Y-90288782D01*
X133529728Y-90288782D01*
X133505535Y-90288495D01*
X133481832Y-90287636D01*
X133458620Y-90286204D01*
X133435899Y-90284199D01*
X133413669Y-90281621D01*
X133391929Y-90278471D01*
X133370681Y-90274747D01*
X133349924Y-90270451D01*
X133329657Y-90265582D01*
X133309882Y-90260140D01*
X133290597Y-90254126D01*
X133271803Y-90247538D01*
X133253501Y-90240378D01*
X133235689Y-90232645D01*
X133218368Y-90224339D01*
X133201537Y-90215461D01*
X133167292Y-90195426D01*
X133135256Y-90173727D01*
X133105429Y-90150365D01*
X133077812Y-90125339D01*
X133052404Y-90098649D01*
X133029206Y-90070295D01*
X133008216Y-90040277D01*
X132989436Y-90008596D01*
X132972866Y-89975251D01*
X132958504Y-89940242D01*
X132946352Y-89903569D01*
X132936410Y-89865232D01*
X132928677Y-89825231D01*
X132923153Y-89783566D01*
X132919838Y-89740237D01*
X132918733Y-89695244D01*
X132919402Y-89661639D01*
X132921407Y-89628907D01*
X132924749Y-89597048D01*
X132929427Y-89566061D01*
X132935442Y-89535948D01*
X132942793Y-89506708D01*
X132951481Y-89478340D01*
X132961505Y-89450845D01*
X132972865Y-89424223D01*
X132985563Y-89398474D01*
X132999596Y-89373598D01*
X133014966Y-89349595D01*
X133031673Y-89326464D01*
X133049716Y-89304206D01*
X133069096Y-89282821D01*
X133089812Y-89262309D01*
X133111170Y-89242861D01*
X133133346Y-89224667D01*
X133156341Y-89207728D01*
X133180154Y-89192044D01*
X133204785Y-89177614D01*
X133230234Y-89164440D01*
X133256502Y-89152520D01*
X133283587Y-89141854D01*
X133311491Y-89132444D01*
X133340213Y-89124288D01*
X133369754Y-89117387D01*
X133400112Y-89111741D01*
X133431289Y-89107349D01*
X133463284Y-89104212D01*
X133496097Y-89102330D01*
X133529728Y-89101703D01*
X135380174Y-89098213D01*
X135391989Y-89098070D01*
X135403428Y-89097640D01*
X135414492Y-89096924D01*
X135425181Y-89095922D01*
X135435495Y-89094634D01*
X135445434Y-89093058D01*
X135454998Y-89091197D01*
X135464186Y-89089049D01*
X135473000Y-89086615D01*
X135481439Y-89083894D01*
X135489503Y-89080887D01*
X135497191Y-89077593D01*
X135504505Y-89074013D01*
X135511443Y-89070147D01*
X135518007Y-89065994D01*
X135524195Y-89061555D01*
X135530008Y-89056829D01*
X135535447Y-89051817D01*
X135540510Y-89046519D01*
X135545198Y-89040934D01*
X135549511Y-89035062D01*
X135553449Y-89028905D01*
X135557012Y-89022461D01*
X135560200Y-89015730D01*
X135563013Y-89008713D01*
X135565451Y-89001410D01*
X135567514Y-88993820D01*
X135569201Y-88985943D01*
X135570514Y-88977781D01*
X135571452Y-88969332D01*
X135572014Y-88960596D01*
X135572202Y-88951574D01*
X135572014Y-88942553D01*
X135571452Y-88933817D01*
X135570514Y-88925369D01*
X135569201Y-88917206D01*
X135567514Y-88909330D01*
X135565451Y-88901741D01*
X135563013Y-88894438D01*
X135560200Y-88887421D01*
X135557012Y-88880691D01*
X135553449Y-88874247D01*
X135549511Y-88868089D01*
X135545198Y-88862218D01*
X135540510Y-88856633D01*
X135535447Y-88851335D01*
X135530009Y-88846323D01*
X135524195Y-88841597D01*
X135518007Y-88837158D01*
X135511443Y-88833005D01*
X135504505Y-88829138D01*
X135497191Y-88825558D01*
X135489503Y-88822265D01*
X135481439Y-88819257D01*
X135464187Y-88814102D01*
X135445434Y-88810092D01*
X135425181Y-88807228D01*
X135403428Y-88805509D01*
X135380174Y-88804936D01*
X133023475Y-88804936D01*
X133023475Y-88347561D01*
X135495390Y-88347561D01*
X135519175Y-88347861D01*
G37*
G36*
X137443974Y-86703623D02*
G01*
X137443182Y-86742919D01*
X137440805Y-86781516D01*
X137436843Y-86819414D01*
X137431297Y-86856611D01*
X137424166Y-86893109D01*
X137415451Y-86928907D01*
X137405150Y-86964006D01*
X137393266Y-86998405D01*
X137379796Y-87032104D01*
X137364742Y-87065104D01*
X137348104Y-87097404D01*
X137329880Y-87129004D01*
X137310072Y-87159905D01*
X137288680Y-87190106D01*
X137265702Y-87219607D01*
X137241140Y-87248409D01*
X137215474Y-87275972D01*
X137189185Y-87301757D01*
X137162272Y-87325763D01*
X137134736Y-87347991D01*
X137106576Y-87368441D01*
X137077792Y-87387113D01*
X137048386Y-87404006D01*
X137018355Y-87419121D01*
X136987702Y-87432458D01*
X136956424Y-87444017D01*
X136924524Y-87453797D01*
X136892000Y-87461799D01*
X136858852Y-87468023D01*
X136825081Y-87472468D01*
X136790686Y-87475136D01*
X136755668Y-87476025D01*
X134973388Y-87476025D01*
X134937981Y-87475136D01*
X134903249Y-87472468D01*
X134869193Y-87468023D01*
X134835812Y-87461799D01*
X134803106Y-87453797D01*
X134771075Y-87444016D01*
X134739720Y-87432457D01*
X134709041Y-87419121D01*
X134679036Y-87404005D01*
X134649708Y-87387112D01*
X134621054Y-87368440D01*
X134593076Y-87347990D01*
X134565773Y-87325762D01*
X134539145Y-87301756D01*
X134513193Y-87275972D01*
X134487916Y-87248409D01*
X134463355Y-87219607D01*
X134440378Y-87190106D01*
X134418986Y-87159905D01*
X134399178Y-87129004D01*
X134380955Y-87097404D01*
X134364316Y-87065104D01*
X134349262Y-87032104D01*
X134335793Y-86998405D01*
X134323908Y-86964006D01*
X134313608Y-86928907D01*
X134304892Y-86893109D01*
X134297761Y-86856611D01*
X134292215Y-86819414D01*
X134288253Y-86781516D01*
X134285875Y-86742919D01*
X134285082Y-86703623D01*
X134285082Y-86128985D01*
X134883609Y-86128985D01*
X134883609Y-86643919D01*
X134883934Y-86660098D01*
X134884908Y-86675985D01*
X134886532Y-86691581D01*
X134888806Y-86706886D01*
X134891728Y-86721899D01*
X134895300Y-86736620D01*
X134899522Y-86751050D01*
X134904393Y-86765189D01*
X134909913Y-86779036D01*
X134916083Y-86792591D01*
X134922902Y-86805855D01*
X134930370Y-86818828D01*
X134938488Y-86831509D01*
X134947255Y-86843898D01*
X134956671Y-86855996D01*
X134966737Y-86867802D01*
X134977259Y-86879099D01*
X134988040Y-86889666D01*
X134999081Y-86899505D01*
X135010382Y-86908615D01*
X135021942Y-86916996D01*
X135033762Y-86924648D01*
X135045842Y-86931572D01*
X135058181Y-86937766D01*
X135070780Y-86943232D01*
X135083639Y-86947969D01*
X135096758Y-86951978D01*
X135110136Y-86955257D01*
X135123774Y-86957808D01*
X135137672Y-86959630D01*
X135151830Y-86960723D01*
X135166247Y-86961087D01*
X136589411Y-86961087D01*
X136603829Y-86960723D01*
X136617987Y-86959630D01*
X136631885Y-86957808D01*
X136645523Y-86955257D01*
X136658902Y-86951978D01*
X136672020Y-86947969D01*
X136684879Y-86943232D01*
X136697478Y-86937766D01*
X136709818Y-86931572D01*
X136721897Y-86924648D01*
X136733717Y-86916996D01*
X136745277Y-86908615D01*
X136756578Y-86899505D01*
X136767618Y-86889666D01*
X136778399Y-86879099D01*
X136788920Y-86867802D01*
X136798986Y-86855996D01*
X136808403Y-86843898D01*
X136817171Y-86831509D01*
X136825289Y-86818828D01*
X136832757Y-86805856D01*
X136839576Y-86792592D01*
X136845746Y-86779036D01*
X136851266Y-86765189D01*
X136856137Y-86751051D01*
X136860359Y-86736621D01*
X136863930Y-86721899D01*
X136866853Y-86706886D01*
X136869126Y-86691582D01*
X136870749Y-86675986D01*
X136871723Y-86660098D01*
X136872048Y-86643919D01*
X136872048Y-86128985D01*
X136871724Y-86112806D01*
X136870750Y-86096918D01*
X136869126Y-86081322D01*
X136866853Y-86066018D01*
X136863931Y-86051005D01*
X136860359Y-86036283D01*
X136856137Y-86021853D01*
X136851267Y-86007715D01*
X136845746Y-85993867D01*
X136839577Y-85980312D01*
X136832757Y-85967048D01*
X136825289Y-85954075D01*
X136817171Y-85941394D01*
X136808403Y-85929005D01*
X136798986Y-85916906D01*
X136788920Y-85905100D01*
X136778399Y-85893804D01*
X136767618Y-85883237D01*
X136756578Y-85873398D01*
X136745277Y-85864289D01*
X136733717Y-85855908D01*
X136721897Y-85848256D01*
X136709818Y-85841333D01*
X136697478Y-85835138D01*
X136684879Y-85829672D01*
X136672020Y-85824935D01*
X136658902Y-85820927D01*
X136645523Y-85817647D01*
X136631885Y-85815096D01*
X136617987Y-85813273D01*
X136603829Y-85812180D01*
X136589411Y-85811815D01*
X135166247Y-85811815D01*
X135151830Y-85812180D01*
X135137672Y-85813273D01*
X135123774Y-85815096D01*
X135110136Y-85817647D01*
X135096758Y-85820927D01*
X135083639Y-85824935D01*
X135070780Y-85829672D01*
X135058181Y-85835138D01*
X135045841Y-85841333D01*
X135033762Y-85848256D01*
X135021942Y-85855908D01*
X135010381Y-85864289D01*
X134999081Y-85873398D01*
X134988040Y-85883237D01*
X134977259Y-85893804D01*
X134966737Y-85905100D01*
X134956671Y-85916906D01*
X134947255Y-85929005D01*
X134938488Y-85941394D01*
X134930370Y-85954075D01*
X134922902Y-85967048D01*
X134916083Y-85980312D01*
X134909913Y-85993867D01*
X134904393Y-86007715D01*
X134899522Y-86021853D01*
X134895300Y-86036283D01*
X134891728Y-86051005D01*
X134888806Y-86066018D01*
X134886532Y-86081322D01*
X134884908Y-86096918D01*
X134883934Y-86112806D01*
X134883609Y-86128985D01*
X134285082Y-86128985D01*
X134285082Y-86099134D01*
X134285875Y-86059401D01*
X134288253Y-86020426D01*
X134292215Y-85982209D01*
X134297761Y-85944749D01*
X134304892Y-85908048D01*
X134313608Y-85872104D01*
X134323908Y-85836918D01*
X134335793Y-85802490D01*
X134349262Y-85768820D01*
X134364316Y-85735908D01*
X134380955Y-85703753D01*
X134399178Y-85672357D01*
X134418986Y-85641718D01*
X134440378Y-85611837D01*
X134463355Y-85582715D01*
X134487916Y-85554350D01*
X134513193Y-85526787D01*
X134539145Y-85501003D01*
X134565773Y-85476997D01*
X134593076Y-85454769D01*
X134621054Y-85434319D01*
X134649708Y-85415647D01*
X134679036Y-85398754D01*
X134709041Y-85383639D01*
X134739720Y-85370302D01*
X134771075Y-85358744D01*
X134803106Y-85348963D01*
X134835812Y-85340961D01*
X134869193Y-85334737D01*
X134903249Y-85330291D01*
X134937981Y-85327623D01*
X134973388Y-85326734D01*
X136755668Y-85326734D01*
X136790686Y-85327623D01*
X136825081Y-85330291D01*
X136858852Y-85334737D01*
X136892000Y-85340961D01*
X136924524Y-85348963D01*
X136956424Y-85358744D01*
X136987702Y-85370303D01*
X137018355Y-85383640D01*
X137048386Y-85398755D01*
X137077792Y-85415648D01*
X137106576Y-85434320D01*
X137134736Y-85454769D01*
X137162272Y-85476997D01*
X137189185Y-85501003D01*
X137215474Y-85526787D01*
X137241140Y-85554350D01*
X137265702Y-85582715D01*
X137288680Y-85611837D01*
X137310072Y-85641718D01*
X137329880Y-85672357D01*
X137348104Y-85703753D01*
X137364742Y-85735908D01*
X137379796Y-85768820D01*
X137393266Y-85802490D01*
X137405150Y-85836918D01*
X137415451Y-85872104D01*
X137424166Y-85908048D01*
X137431297Y-85944749D01*
X137436843Y-85982209D01*
X137440805Y-86020426D01*
X137443182Y-86059401D01*
X137443974Y-86099134D01*
X137443974Y-86128985D01*
X137443974Y-86703623D01*
G37*
G36*
X140057485Y-89691756D02*
G01*
X140056844Y-89726615D01*
X140054921Y-89760493D01*
X140051716Y-89793388D01*
X140047229Y-89825302D01*
X140041460Y-89856233D01*
X140034409Y-89886183D01*
X140026076Y-89915150D01*
X140016461Y-89943136D01*
X140005564Y-89970140D01*
X139993385Y-89996161D01*
X139979924Y-90021201D01*
X139965181Y-90045259D01*
X139949156Y-90068335D01*
X139931849Y-90090429D01*
X139913260Y-90111541D01*
X139893389Y-90131671D01*
X139872400Y-90150696D01*
X139850456Y-90168494D01*
X139827557Y-90185064D01*
X139803704Y-90200407D01*
X139778895Y-90214523D01*
X139753133Y-90227411D01*
X139726415Y-90239071D01*
X139698743Y-90249504D01*
X139670116Y-90258710D01*
X139640535Y-90266688D01*
X139609999Y-90273439D01*
X139578508Y-90278962D01*
X139546062Y-90283258D01*
X139512662Y-90286327D01*
X139478307Y-90288168D01*
X139442997Y-90288782D01*
X136841900Y-90288782D01*
X136841900Y-89534641D01*
X137424965Y-89534641D01*
X137424965Y-89831410D01*
X139289376Y-89831410D01*
X139300760Y-89831267D01*
X139311783Y-89830838D01*
X139322445Y-89830122D01*
X139332746Y-89829120D01*
X139342684Y-89827832D01*
X139352262Y-89826257D01*
X139361478Y-89824395D01*
X139370333Y-89822247D01*
X139378826Y-89819813D01*
X139386958Y-89817092D01*
X139394728Y-89814085D01*
X139402137Y-89810792D01*
X139409185Y-89807212D01*
X139415871Y-89803345D01*
X139422196Y-89799192D01*
X139428159Y-89794753D01*
X139433761Y-89790027D01*
X139439002Y-89785015D01*
X139443881Y-89779717D01*
X139448399Y-89774132D01*
X139452555Y-89768260D01*
X139456350Y-89762103D01*
X139459783Y-89755658D01*
X139462855Y-89748928D01*
X139465566Y-89741911D01*
X139467915Y-89734607D01*
X139469903Y-89727017D01*
X139471529Y-89719141D01*
X139472794Y-89710979D01*
X139473697Y-89702529D01*
X139474239Y-89693794D01*
X139474420Y-89684772D01*
X139474239Y-89675535D01*
X139473697Y-89666592D01*
X139472794Y-89657942D01*
X139471529Y-89649585D01*
X139469903Y-89641522D01*
X139467915Y-89633751D01*
X139465566Y-89626274D01*
X139462855Y-89619090D01*
X139459783Y-89612199D01*
X139456350Y-89605602D01*
X139452555Y-89599297D01*
X139448399Y-89593286D01*
X139443881Y-89587568D01*
X139439002Y-89582144D01*
X139433761Y-89577012D01*
X139428159Y-89572174D01*
X139422196Y-89567629D01*
X139415871Y-89563377D01*
X139409185Y-89559419D01*
X139402137Y-89555754D01*
X139394728Y-89552382D01*
X139386958Y-89549303D01*
X139378826Y-89546517D01*
X139370333Y-89544025D01*
X139352262Y-89539920D01*
X139332746Y-89536987D01*
X139311783Y-89535228D01*
X139289376Y-89534641D01*
X137424965Y-89534641D01*
X136841900Y-89534641D01*
X136841900Y-89105197D01*
X136842392Y-89055990D01*
X136843865Y-89009621D01*
X136846321Y-88966087D01*
X136849758Y-88925391D01*
X136854176Y-88887531D01*
X136859577Y-88852507D01*
X136862645Y-88836059D01*
X136865959Y-88820320D01*
X136869518Y-88805290D01*
X136873323Y-88790970D01*
X136879311Y-88772354D01*
X136885926Y-88754038D01*
X136893168Y-88736022D01*
X136901038Y-88718306D01*
X136909534Y-88700890D01*
X136918659Y-88683774D01*
X136928410Y-88666958D01*
X136938789Y-88650442D01*
X136949795Y-88634226D01*
X136961428Y-88618311D01*
X136973689Y-88602695D01*
X136986577Y-88587379D01*
X137000092Y-88572363D01*
X137014235Y-88557647D01*
X137029004Y-88543231D01*
X137044401Y-88529116D01*
X137070274Y-88507131D01*
X137097264Y-88486564D01*
X137125373Y-88467416D01*
X137154601Y-88449686D01*
X137184946Y-88433375D01*
X137216410Y-88418482D01*
X137248992Y-88405007D01*
X137282692Y-88392951D01*
X137317511Y-88382313D01*
X137353448Y-88373093D01*
X137390503Y-88365292D01*
X137428676Y-88358909D01*
X137467968Y-88353945D01*
X137508378Y-88350398D01*
X137549906Y-88348270D01*
X137592553Y-88347561D01*
X139921321Y-88347561D01*
X139921321Y-88804936D01*
X139921320Y-88804938D01*
X137735700Y-88804938D01*
X137711206Y-88805156D01*
X137688349Y-88805811D01*
X137667128Y-88806902D01*
X137647544Y-88808429D01*
X137629596Y-88810393D01*
X137621235Y-88811538D01*
X137613284Y-88812793D01*
X137605742Y-88814157D01*
X137598609Y-88815629D01*
X137591885Y-88817211D01*
X137585570Y-88818902D01*
X137566122Y-88825244D01*
X137547929Y-88832923D01*
X137530990Y-88841938D01*
X137515306Y-88852289D01*
X137500877Y-88863978D01*
X137487703Y-88877002D01*
X137475783Y-88891363D01*
X137465118Y-88907061D01*
X137455708Y-88924095D01*
X137447552Y-88942466D01*
X137440651Y-88962174D01*
X137435004Y-88983217D01*
X137430612Y-89005598D01*
X137427475Y-89029315D01*
X137425593Y-89054368D01*
X137424965Y-89080758D01*
X137424965Y-89098216D01*
X139442997Y-89098216D01*
X139477898Y-89098830D01*
X139511898Y-89100671D01*
X139544999Y-89103740D01*
X139577199Y-89108036D01*
X139608499Y-89113560D01*
X139638898Y-89120310D01*
X139668398Y-89128289D01*
X139696998Y-89137495D01*
X139724697Y-89147928D01*
X139751496Y-89159589D01*
X139777395Y-89172477D01*
X139802394Y-89186592D01*
X139826493Y-89201935D01*
X139849692Y-89218506D01*
X139871990Y-89236304D01*
X139893389Y-89255329D01*
X139913260Y-89275037D01*
X139931849Y-89295753D01*
X139949156Y-89317479D01*
X139965181Y-89340214D01*
X139979924Y-89363959D01*
X139993385Y-89388712D01*
X140005564Y-89414475D01*
X140016461Y-89441246D01*
X140026076Y-89469028D01*
X140034409Y-89497818D01*
X140041460Y-89527618D01*
X140047229Y-89558427D01*
X140051716Y-89590245D01*
X140054921Y-89623073D01*
X140056844Y-89656910D01*
X140057356Y-89684772D01*
X140057485Y-89691756D01*
G37*
D10*
X150090146Y-87787413D02*
X150074370Y-88160086D01*
X150070697Y-88253487D01*
X150067530Y-88347361D01*
X150062656Y-88536537D01*
X150074370Y-88536537D01*
X151292754Y-86502101D01*
X152043467Y-86502101D01*
X152043467Y-89217201D01*
X151512844Y-89217201D01*
X151512844Y-87939596D01*
X151521703Y-87745628D01*
X151532526Y-87551659D01*
X151548303Y-87163875D01*
X151532526Y-87163875D01*
X150310237Y-89217201D01*
X149555620Y-89217201D01*
X149555620Y-86502101D01*
X150090146Y-86502101D01*
X150090146Y-87787413D01*
G36*
X150090146Y-87787413D02*
G01*
X150074370Y-88160086D01*
X150070697Y-88253487D01*
X150067530Y-88347361D01*
X150062656Y-88536537D01*
X150074370Y-88536537D01*
X151292754Y-86502101D01*
X152043467Y-86502101D01*
X152043467Y-89217201D01*
X151512844Y-89217201D01*
X151512844Y-87939596D01*
X151521703Y-87745628D01*
X151532526Y-87551659D01*
X151548303Y-87163875D01*
X151532526Y-87163875D01*
X150310237Y-89217201D01*
X149555620Y-89217201D01*
X149555620Y-86502101D01*
X150090146Y-86502101D01*
X150090146Y-87787413D01*
G37*
D12*
X133855348Y-124064896D02*
X134141062Y-124264896D01*
X133855348Y-124407753D02*
X134455348Y-124407753D01*
X134455348Y-124407753D02*
X134455348Y-124179182D01*
X134455348Y-124179182D02*
X134426777Y-124122039D01*
X134426777Y-124122039D02*
X134398205Y-124093468D01*
X134398205Y-124093468D02*
X134341062Y-124064896D01*
X134341062Y-124064896D02*
X134255348Y-124064896D01*
X134255348Y-124064896D02*
X134198205Y-124093468D01*
X134198205Y-124093468D02*
X134169634Y-124122039D01*
X134169634Y-124122039D02*
X134141062Y-124179182D01*
X134141062Y-124179182D02*
X134141062Y-124407753D01*
X133883920Y-123836325D02*
X133855348Y-123750611D01*
X133855348Y-123750611D02*
X133855348Y-123607753D01*
X133855348Y-123607753D02*
X133883920Y-123550611D01*
X133883920Y-123550611D02*
X133912491Y-123522039D01*
X133912491Y-123522039D02*
X133969634Y-123493468D01*
X133969634Y-123493468D02*
X134026777Y-123493468D01*
X134026777Y-123493468D02*
X134083920Y-123522039D01*
X134083920Y-123522039D02*
X134112491Y-123550611D01*
X134112491Y-123550611D02*
X134141062Y-123607753D01*
X134141062Y-123607753D02*
X134169634Y-123722039D01*
X134169634Y-123722039D02*
X134198205Y-123779182D01*
X134198205Y-123779182D02*
X134226777Y-123807753D01*
X134226777Y-123807753D02*
X134283920Y-123836325D01*
X134283920Y-123836325D02*
X134341062Y-123836325D01*
X134341062Y-123836325D02*
X134398205Y-123807753D01*
X134398205Y-123807753D02*
X134426777Y-123779182D01*
X134426777Y-123779182D02*
X134455348Y-123722039D01*
X134455348Y-123722039D02*
X134455348Y-123579182D01*
X134455348Y-123579182D02*
X134426777Y-123493468D01*
X134455348Y-123322039D02*
X134455348Y-122979182D01*
X133855348Y-123150610D02*
X134455348Y-123150610D01*
X123420438Y-103988438D02*
X123420438Y-103388438D01*
X123420438Y-103388438D02*
X123277581Y-103388438D01*
X123277581Y-103388438D02*
X123191867Y-103417009D01*
X123191867Y-103417009D02*
X123134724Y-103474152D01*
X123134724Y-103474152D02*
X123106153Y-103531295D01*
X123106153Y-103531295D02*
X123077581Y-103645581D01*
X123077581Y-103645581D02*
X123077581Y-103731295D01*
X123077581Y-103731295D02*
X123106153Y-103845581D01*
X123106153Y-103845581D02*
X123134724Y-103902724D01*
X123134724Y-103902724D02*
X123191867Y-103959867D01*
X123191867Y-103959867D02*
X123277581Y-103988438D01*
X123277581Y-103988438D02*
X123420438Y-103988438D01*
X122820438Y-103759867D02*
X122363296Y-103759867D01*
X124376628Y-124493468D02*
X123776628Y-124293468D01*
X123776628Y-124293468D02*
X124376628Y-124093468D01*
X123833771Y-123550610D02*
X123805200Y-123579182D01*
X123805200Y-123579182D02*
X123776628Y-123664896D01*
X123776628Y-123664896D02*
X123776628Y-123722039D01*
X123776628Y-123722039D02*
X123805200Y-123807753D01*
X123805200Y-123807753D02*
X123862342Y-123864896D01*
X123862342Y-123864896D02*
X123919485Y-123893467D01*
X123919485Y-123893467D02*
X124033771Y-123922039D01*
X124033771Y-123922039D02*
X124119485Y-123922039D01*
X124119485Y-123922039D02*
X124233771Y-123893467D01*
X124233771Y-123893467D02*
X124290914Y-123864896D01*
X124290914Y-123864896D02*
X124348057Y-123807753D01*
X124348057Y-123807753D02*
X124376628Y-123722039D01*
X124376628Y-123722039D02*
X124376628Y-123664896D01*
X124376628Y-123664896D02*
X124348057Y-123579182D01*
X124348057Y-123579182D02*
X124319485Y-123550610D01*
X123833771Y-122950610D02*
X123805200Y-122979182D01*
X123805200Y-122979182D02*
X123776628Y-123064896D01*
X123776628Y-123064896D02*
X123776628Y-123122039D01*
X123776628Y-123122039D02*
X123805200Y-123207753D01*
X123805200Y-123207753D02*
X123862342Y-123264896D01*
X123862342Y-123264896D02*
X123919485Y-123293467D01*
X123919485Y-123293467D02*
X124033771Y-123322039D01*
X124033771Y-123322039D02*
X124119485Y-123322039D01*
X124119485Y-123322039D02*
X124233771Y-123293467D01*
X124233771Y-123293467D02*
X124290914Y-123264896D01*
X124290914Y-123264896D02*
X124348057Y-123207753D01*
X124348057Y-123207753D02*
X124376628Y-123122039D01*
X124376628Y-123122039D02*
X124376628Y-123064896D01*
X124376628Y-123064896D02*
X124348057Y-122979182D01*
X124348057Y-122979182D02*
X124319485Y-122950610D01*
X129415988Y-124493468D02*
X129415988Y-124150611D01*
X128815988Y-124322039D02*
X129415988Y-124322039D01*
X129415988Y-124007753D02*
X128815988Y-123607753D01*
X129415988Y-123607753D02*
X128815988Y-124007753D01*
D13*
X145544077Y-114325937D02*
X145544077Y-113325937D01*
X145544077Y-113468794D02*
X145472648Y-113397366D01*
X145472648Y-113397366D02*
X145329791Y-113325937D01*
X145329791Y-113325937D02*
X145115505Y-113325937D01*
X145115505Y-113325937D02*
X144972648Y-113397366D01*
X144972648Y-113397366D02*
X144901220Y-113540223D01*
X144901220Y-113540223D02*
X144901220Y-114325937D01*
X144901220Y-113540223D02*
X144829791Y-113397366D01*
X144829791Y-113397366D02*
X144686934Y-113325937D01*
X144686934Y-113325937D02*
X144472648Y-113325937D01*
X144472648Y-113325937D02*
X144329791Y-113397366D01*
X144329791Y-113397366D02*
X144258362Y-113540223D01*
X144258362Y-113540223D02*
X144258362Y-114325937D01*
X142901220Y-114325937D02*
X142901220Y-113540223D01*
X142901220Y-113540223D02*
X142972648Y-113397366D01*
X142972648Y-113397366D02*
X143115505Y-113325937D01*
X143115505Y-113325937D02*
X143401220Y-113325937D01*
X143401220Y-113325937D02*
X143544077Y-113397366D01*
X142901220Y-114254509D02*
X143044077Y-114325937D01*
X143044077Y-114325937D02*
X143401220Y-114325937D01*
X143401220Y-114325937D02*
X143544077Y-114254509D01*
X143544077Y-114254509D02*
X143615505Y-114111651D01*
X143615505Y-114111651D02*
X143615505Y-113968794D01*
X143615505Y-113968794D02*
X143544077Y-113825937D01*
X143544077Y-113825937D02*
X143401220Y-113754509D01*
X143401220Y-113754509D02*
X143044077Y-113754509D01*
X143044077Y-113754509D02*
X142901220Y-113683080D01*
X141544077Y-113325937D02*
X141544077Y-114540223D01*
X141544077Y-114540223D02*
X141615505Y-114683080D01*
X141615505Y-114683080D02*
X141686934Y-114754509D01*
X141686934Y-114754509D02*
X141829791Y-114825937D01*
X141829791Y-114825937D02*
X142044077Y-114825937D01*
X142044077Y-114825937D02*
X142186934Y-114754509D01*
X141544077Y-114254509D02*
X141686934Y-114325937D01*
X141686934Y-114325937D02*
X141972648Y-114325937D01*
X141972648Y-114325937D02*
X142115505Y-114254509D01*
X142115505Y-114254509D02*
X142186934Y-114183080D01*
X142186934Y-114183080D02*
X142258362Y-114040223D01*
X142258362Y-114040223D02*
X142258362Y-113611651D01*
X142258362Y-113611651D02*
X142186934Y-113468794D01*
X142186934Y-113468794D02*
X142115505Y-113397366D01*
X142115505Y-113397366D02*
X141972648Y-113325937D01*
X141972648Y-113325937D02*
X141686934Y-113325937D01*
X141686934Y-113325937D02*
X141544077Y-113397366D01*
X140829791Y-114325937D02*
X140829791Y-113325937D01*
X140829791Y-112825937D02*
X140901219Y-112897366D01*
X140901219Y-112897366D02*
X140829791Y-112968794D01*
X140829791Y-112968794D02*
X140758362Y-112897366D01*
X140758362Y-112897366D02*
X140829791Y-112825937D01*
X140829791Y-112825937D02*
X140829791Y-112968794D01*
X139472648Y-114254509D02*
X139615505Y-114325937D01*
X139615505Y-114325937D02*
X139901219Y-114325937D01*
X139901219Y-114325937D02*
X140044076Y-114254509D01*
X140044076Y-114254509D02*
X140115505Y-114183080D01*
X140115505Y-114183080D02*
X140186933Y-114040223D01*
X140186933Y-114040223D02*
X140186933Y-113611651D01*
X140186933Y-113611651D02*
X140115505Y-113468794D01*
X140115505Y-113468794D02*
X140044076Y-113397366D01*
X140044076Y-113397366D02*
X139901219Y-113325937D01*
X139901219Y-113325937D02*
X139615505Y-113325937D01*
X139615505Y-113325937D02*
X139472648Y-113397366D01*
X138829791Y-113754509D02*
X137686934Y-113754509D01*
X136401219Y-114254509D02*
X136544076Y-114325937D01*
X136544076Y-114325937D02*
X136829791Y-114325937D01*
X136829791Y-114325937D02*
X136972648Y-114254509D01*
X136972648Y-114254509D02*
X137044076Y-114111651D01*
X137044076Y-114111651D02*
X137044076Y-113540223D01*
X137044076Y-113540223D02*
X136972648Y-113397366D01*
X136972648Y-113397366D02*
X136829791Y-113325937D01*
X136829791Y-113325937D02*
X136544076Y-113325937D01*
X136544076Y-113325937D02*
X136401219Y-113397366D01*
X136401219Y-113397366D02*
X136329791Y-113540223D01*
X136329791Y-113540223D02*
X136329791Y-113683080D01*
X136329791Y-113683080D02*
X137044076Y-113825937D01*
X135686934Y-113325937D02*
X135686934Y-114825937D01*
X135686934Y-113397366D02*
X135544077Y-113325937D01*
X135544077Y-113325937D02*
X135258362Y-113325937D01*
X135258362Y-113325937D02*
X135115505Y-113397366D01*
X135115505Y-113397366D02*
X135044077Y-113468794D01*
X135044077Y-113468794D02*
X134972648Y-113611651D01*
X134972648Y-113611651D02*
X134972648Y-114040223D01*
X134972648Y-114040223D02*
X135044077Y-114183080D01*
X135044077Y-114183080D02*
X135115505Y-114254509D01*
X135115505Y-114254509D02*
X135258362Y-114325937D01*
X135258362Y-114325937D02*
X135544077Y-114325937D01*
X135544077Y-114325937D02*
X135686934Y-114254509D01*
X133686934Y-114325937D02*
X133686934Y-113540223D01*
X133686934Y-113540223D02*
X133758362Y-113397366D01*
X133758362Y-113397366D02*
X133901219Y-113325937D01*
X133901219Y-113325937D02*
X134186934Y-113325937D01*
X134186934Y-113325937D02*
X134329791Y-113397366D01*
X133686934Y-114254509D02*
X133829791Y-114325937D01*
X133829791Y-114325937D02*
X134186934Y-114325937D01*
X134186934Y-114325937D02*
X134329791Y-114254509D01*
X134329791Y-114254509D02*
X134401219Y-114111651D01*
X134401219Y-114111651D02*
X134401219Y-113968794D01*
X134401219Y-113968794D02*
X134329791Y-113825937D01*
X134329791Y-113825937D02*
X134186934Y-113754509D01*
X134186934Y-113754509D02*
X133829791Y-113754509D01*
X133829791Y-113754509D02*
X133686934Y-113683080D01*
X132972648Y-113325937D02*
X132972648Y-114825937D01*
X132972648Y-113397366D02*
X132829791Y-113325937D01*
X132829791Y-113325937D02*
X132544076Y-113325937D01*
X132544076Y-113325937D02*
X132401219Y-113397366D01*
X132401219Y-113397366D02*
X132329791Y-113468794D01*
X132329791Y-113468794D02*
X132258362Y-113611651D01*
X132258362Y-113611651D02*
X132258362Y-114040223D01*
X132258362Y-114040223D02*
X132329791Y-114183080D01*
X132329791Y-114183080D02*
X132401219Y-114254509D01*
X132401219Y-114254509D02*
X132544076Y-114325937D01*
X132544076Y-114325937D02*
X132829791Y-114325937D01*
X132829791Y-114325937D02*
X132972648Y-114254509D01*
X131044076Y-114254509D02*
X131186933Y-114325937D01*
X131186933Y-114325937D02*
X131472648Y-114325937D01*
X131472648Y-114325937D02*
X131615505Y-114254509D01*
X131615505Y-114254509D02*
X131686933Y-114111651D01*
X131686933Y-114111651D02*
X131686933Y-113540223D01*
X131686933Y-113540223D02*
X131615505Y-113397366D01*
X131615505Y-113397366D02*
X131472648Y-113325937D01*
X131472648Y-113325937D02*
X131186933Y-113325937D01*
X131186933Y-113325937D02*
X131044076Y-113397366D01*
X131044076Y-113397366D02*
X130972648Y-113540223D01*
X130972648Y-113540223D02*
X130972648Y-113683080D01*
X130972648Y-113683080D02*
X131686933Y-113825937D01*
X130329791Y-114325937D02*
X130329791Y-113325937D01*
X130329791Y-113611651D02*
X130258362Y-113468794D01*
X130258362Y-113468794D02*
X130186934Y-113397366D01*
X130186934Y-113397366D02*
X130044076Y-113325937D01*
X130044076Y-113325937D02*
X129901219Y-113325937D01*
X145686934Y-115740853D02*
X145329791Y-116740853D01*
X145329791Y-116740853D02*
X144972648Y-115740853D01*
X144115505Y-115240853D02*
X143972648Y-115240853D01*
X143972648Y-115240853D02*
X143829791Y-115312282D01*
X143829791Y-115312282D02*
X143758363Y-115383710D01*
X143758363Y-115383710D02*
X143686934Y-115526567D01*
X143686934Y-115526567D02*
X143615505Y-115812282D01*
X143615505Y-115812282D02*
X143615505Y-116169425D01*
X143615505Y-116169425D02*
X143686934Y-116455139D01*
X143686934Y-116455139D02*
X143758363Y-116597996D01*
X143758363Y-116597996D02*
X143829791Y-116669425D01*
X143829791Y-116669425D02*
X143972648Y-116740853D01*
X143972648Y-116740853D02*
X144115505Y-116740853D01*
X144115505Y-116740853D02*
X144258363Y-116669425D01*
X144258363Y-116669425D02*
X144329791Y-116597996D01*
X144329791Y-116597996D02*
X144401220Y-116455139D01*
X144401220Y-116455139D02*
X144472648Y-116169425D01*
X144472648Y-116169425D02*
X144472648Y-115812282D01*
X144472648Y-115812282D02*
X144401220Y-115526567D01*
X144401220Y-115526567D02*
X144329791Y-115383710D01*
X144329791Y-115383710D02*
X144258363Y-115312282D01*
X144258363Y-115312282D02*
X144115505Y-115240853D01*
X142972649Y-116597996D02*
X142901220Y-116669425D01*
X142901220Y-116669425D02*
X142972649Y-116740853D01*
X142972649Y-116740853D02*
X143044077Y-116669425D01*
X143044077Y-116669425D02*
X142972649Y-116597996D01*
X142972649Y-116597996D02*
X142972649Y-116740853D01*
X141472648Y-116740853D02*
X142329791Y-116740853D01*
X141901220Y-116740853D02*
X141901220Y-115240853D01*
X141901220Y-115240853D02*
X142044077Y-115455139D01*
X142044077Y-115455139D02*
X142186934Y-115597996D01*
X142186934Y-115597996D02*
X142329791Y-115669425D01*
X140829792Y-116169425D02*
X139686935Y-116169425D01*
X139044077Y-115383710D02*
X138972649Y-115312282D01*
X138972649Y-115312282D02*
X138829792Y-115240853D01*
X138829792Y-115240853D02*
X138472649Y-115240853D01*
X138472649Y-115240853D02*
X138329792Y-115312282D01*
X138329792Y-115312282D02*
X138258363Y-115383710D01*
X138258363Y-115383710D02*
X138186934Y-115526567D01*
X138186934Y-115526567D02*
X138186934Y-115669425D01*
X138186934Y-115669425D02*
X138258363Y-115883710D01*
X138258363Y-115883710D02*
X139115506Y-116740853D01*
X139115506Y-116740853D02*
X138186934Y-116740853D01*
X137258363Y-115240853D02*
X137115506Y-115240853D01*
X137115506Y-115240853D02*
X136972649Y-115312282D01*
X136972649Y-115312282D02*
X136901221Y-115383710D01*
X136901221Y-115383710D02*
X136829792Y-115526567D01*
X136829792Y-115526567D02*
X136758363Y-115812282D01*
X136758363Y-115812282D02*
X136758363Y-116169425D01*
X136758363Y-116169425D02*
X136829792Y-116455139D01*
X136829792Y-116455139D02*
X136901221Y-116597996D01*
X136901221Y-116597996D02*
X136972649Y-116669425D01*
X136972649Y-116669425D02*
X137115506Y-116740853D01*
X137115506Y-116740853D02*
X137258363Y-116740853D01*
X137258363Y-116740853D02*
X137401221Y-116669425D01*
X137401221Y-116669425D02*
X137472649Y-116597996D01*
X137472649Y-116597996D02*
X137544078Y-116455139D01*
X137544078Y-116455139D02*
X137615506Y-116169425D01*
X137615506Y-116169425D02*
X137615506Y-115812282D01*
X137615506Y-115812282D02*
X137544078Y-115526567D01*
X137544078Y-115526567D02*
X137472649Y-115383710D01*
X137472649Y-115383710D02*
X137401221Y-115312282D01*
X137401221Y-115312282D02*
X137258363Y-115240853D01*
X136186935Y-115383710D02*
X136115507Y-115312282D01*
X136115507Y-115312282D02*
X135972650Y-115240853D01*
X135972650Y-115240853D02*
X135615507Y-115240853D01*
X135615507Y-115240853D02*
X135472650Y-115312282D01*
X135472650Y-115312282D02*
X135401221Y-115383710D01*
X135401221Y-115383710D02*
X135329792Y-115526567D01*
X135329792Y-115526567D02*
X135329792Y-115669425D01*
X135329792Y-115669425D02*
X135401221Y-115883710D01*
X135401221Y-115883710D02*
X136258364Y-116740853D01*
X136258364Y-116740853D02*
X135329792Y-116740853D01*
X133972650Y-115240853D02*
X134686936Y-115240853D01*
X134686936Y-115240853D02*
X134758364Y-115955139D01*
X134758364Y-115955139D02*
X134686936Y-115883710D01*
X134686936Y-115883710D02*
X134544079Y-115812282D01*
X134544079Y-115812282D02*
X134186936Y-115812282D01*
X134186936Y-115812282D02*
X134044079Y-115883710D01*
X134044079Y-115883710D02*
X133972650Y-115955139D01*
X133972650Y-115955139D02*
X133901221Y-116097996D01*
X133901221Y-116097996D02*
X133901221Y-116455139D01*
X133901221Y-116455139D02*
X133972650Y-116597996D01*
X133972650Y-116597996D02*
X134044079Y-116669425D01*
X134044079Y-116669425D02*
X134186936Y-116740853D01*
X134186936Y-116740853D02*
X134544079Y-116740853D01*
X134544079Y-116740853D02*
X134686936Y-116669425D01*
X134686936Y-116669425D02*
X134758364Y-116597996D01*
X132972650Y-115240853D02*
X132829793Y-115240853D01*
X132829793Y-115240853D02*
X132686936Y-115312282D01*
X132686936Y-115312282D02*
X132615508Y-115383710D01*
X132615508Y-115383710D02*
X132544079Y-115526567D01*
X132544079Y-115526567D02*
X132472650Y-115812282D01*
X132472650Y-115812282D02*
X132472650Y-116169425D01*
X132472650Y-116169425D02*
X132544079Y-116455139D01*
X132544079Y-116455139D02*
X132615508Y-116597996D01*
X132615508Y-116597996D02*
X132686936Y-116669425D01*
X132686936Y-116669425D02*
X132829793Y-116740853D01*
X132829793Y-116740853D02*
X132972650Y-116740853D01*
X132972650Y-116740853D02*
X133115508Y-116669425D01*
X133115508Y-116669425D02*
X133186936Y-116597996D01*
X133186936Y-116597996D02*
X133258365Y-116455139D01*
X133258365Y-116455139D02*
X133329793Y-116169425D01*
X133329793Y-116169425D02*
X133329793Y-115812282D01*
X133329793Y-115812282D02*
X133258365Y-115526567D01*
X133258365Y-115526567D02*
X133186936Y-115383710D01*
X133186936Y-115383710D02*
X133115508Y-115312282D01*
X133115508Y-115312282D02*
X132972650Y-115240853D01*
X131972651Y-115240853D02*
X131044079Y-115240853D01*
X131044079Y-115240853D02*
X131544079Y-115812282D01*
X131544079Y-115812282D02*
X131329794Y-115812282D01*
X131329794Y-115812282D02*
X131186937Y-115883710D01*
X131186937Y-115883710D02*
X131115508Y-115955139D01*
X131115508Y-115955139D02*
X131044079Y-116097996D01*
X131044079Y-116097996D02*
X131044079Y-116455139D01*
X131044079Y-116455139D02*
X131115508Y-116597996D01*
X131115508Y-116597996D02*
X131186937Y-116669425D01*
X131186937Y-116669425D02*
X131329794Y-116740853D01*
X131329794Y-116740853D02*
X131758365Y-116740853D01*
X131758365Y-116740853D02*
X131901222Y-116669425D01*
X131901222Y-116669425D02*
X131972651Y-116597996D01*
X130472651Y-115383710D02*
X130401223Y-115312282D01*
X130401223Y-115312282D02*
X130258366Y-115240853D01*
X130258366Y-115240853D02*
X129901223Y-115240853D01*
X129901223Y-115240853D02*
X129758366Y-115312282D01*
X129758366Y-115312282D02*
X129686937Y-115383710D01*
X129686937Y-115383710D02*
X129615508Y-115526567D01*
X129615508Y-115526567D02*
X129615508Y-115669425D01*
X129615508Y-115669425D02*
X129686937Y-115883710D01*
X129686937Y-115883710D02*
X130544080Y-116740853D01*
X130544080Y-116740853D02*
X129615508Y-116740853D01*
X129115509Y-115240853D02*
X128115509Y-115240853D01*
X128115509Y-115240853D02*
X128758366Y-116740853D01*
D12*
X123591867Y-98303142D02*
X123649010Y-98274571D01*
X123649010Y-98274571D02*
X123734724Y-98274571D01*
X123734724Y-98274571D02*
X123820438Y-98303142D01*
X123820438Y-98303142D02*
X123877581Y-98360285D01*
X123877581Y-98360285D02*
X123906152Y-98417428D01*
X123906152Y-98417428D02*
X123934724Y-98531714D01*
X123934724Y-98531714D02*
X123934724Y-98617428D01*
X123934724Y-98617428D02*
X123906152Y-98731714D01*
X123906152Y-98731714D02*
X123877581Y-98788857D01*
X123877581Y-98788857D02*
X123820438Y-98846000D01*
X123820438Y-98846000D02*
X123734724Y-98874571D01*
X123734724Y-98874571D02*
X123677581Y-98874571D01*
X123677581Y-98874571D02*
X123591867Y-98846000D01*
X123591867Y-98846000D02*
X123563295Y-98817428D01*
X123563295Y-98817428D02*
X123563295Y-98617428D01*
X123563295Y-98617428D02*
X123677581Y-98617428D01*
X123306152Y-98874571D02*
X123306152Y-98274571D01*
X123306152Y-98274571D02*
X122963295Y-98874571D01*
X122963295Y-98874571D02*
X122963295Y-98274571D01*
X122677581Y-98874571D02*
X122677581Y-98274571D01*
X122677581Y-98274571D02*
X122534724Y-98274571D01*
X122534724Y-98274571D02*
X122449010Y-98303142D01*
X122449010Y-98303142D02*
X122391867Y-98360285D01*
X122391867Y-98360285D02*
X122363296Y-98417428D01*
X122363296Y-98417428D02*
X122334724Y-98531714D01*
X122334724Y-98531714D02*
X122334724Y-98617428D01*
X122334724Y-98617428D02*
X122363296Y-98731714D01*
X122363296Y-98731714D02*
X122391867Y-98788857D01*
X122391867Y-98788857D02*
X122449010Y-98846000D01*
X122449010Y-98846000D02*
X122534724Y-98874571D01*
X122534724Y-98874571D02*
X122677581Y-98874571D01*
X123420438Y-101431505D02*
X123420438Y-100831505D01*
X123420438Y-100831505D02*
X123277581Y-100831505D01*
X123277581Y-100831505D02*
X123191867Y-100860076D01*
X123191867Y-100860076D02*
X123134724Y-100917219D01*
X123134724Y-100917219D02*
X123106153Y-100974362D01*
X123106153Y-100974362D02*
X123077581Y-101088648D01*
X123077581Y-101088648D02*
X123077581Y-101174362D01*
X123077581Y-101174362D02*
X123106153Y-101288648D01*
X123106153Y-101288648D02*
X123134724Y-101345791D01*
X123134724Y-101345791D02*
X123191867Y-101402934D01*
X123191867Y-101402934D02*
X123277581Y-101431505D01*
X123277581Y-101431505D02*
X123420438Y-101431505D01*
X122820438Y-101202934D02*
X122363296Y-101202934D01*
X122591867Y-101431505D02*
X122591867Y-100974362D01*
X123906153Y-106316800D02*
X123449011Y-106316800D01*
X123677582Y-106545371D02*
X123677582Y-106088228D01*
X122877582Y-105945371D02*
X123163296Y-105945371D01*
X123163296Y-105945371D02*
X123191868Y-106231085D01*
X123191868Y-106231085D02*
X123163296Y-106202514D01*
X123163296Y-106202514D02*
X123106154Y-106173942D01*
X123106154Y-106173942D02*
X122963296Y-106173942D01*
X122963296Y-106173942D02*
X122906154Y-106202514D01*
X122906154Y-106202514D02*
X122877582Y-106231085D01*
X122877582Y-106231085D02*
X122849011Y-106288228D01*
X122849011Y-106288228D02*
X122849011Y-106431085D01*
X122849011Y-106431085D02*
X122877582Y-106488228D01*
X122877582Y-106488228D02*
X122906154Y-106516800D01*
X122906154Y-106516800D02*
X122963296Y-106545371D01*
X122963296Y-106545371D02*
X123106154Y-106545371D01*
X123106154Y-106545371D02*
X123163296Y-106516800D01*
X123163296Y-106516800D02*
X123191868Y-106488228D01*
X122677582Y-105945371D02*
X122477582Y-106545371D01*
X122477582Y-106545371D02*
X122277582Y-105945371D01*
X126296308Y-124064896D02*
X126582022Y-124264896D01*
X126296308Y-124407753D02*
X126896308Y-124407753D01*
X126896308Y-124407753D02*
X126896308Y-124179182D01*
X126896308Y-124179182D02*
X126867737Y-124122039D01*
X126867737Y-124122039D02*
X126839165Y-124093468D01*
X126839165Y-124093468D02*
X126782022Y-124064896D01*
X126782022Y-124064896D02*
X126696308Y-124064896D01*
X126696308Y-124064896D02*
X126639165Y-124093468D01*
X126639165Y-124093468D02*
X126610594Y-124122039D01*
X126610594Y-124122039D02*
X126582022Y-124179182D01*
X126582022Y-124179182D02*
X126582022Y-124407753D01*
X126896308Y-123864896D02*
X126296308Y-123464896D01*
X126896308Y-123464896D02*
X126296308Y-123864896D01*
X131364240Y-124436325D02*
X131335668Y-124350611D01*
X131335668Y-124350611D02*
X131335668Y-124207753D01*
X131335668Y-124207753D02*
X131364240Y-124150611D01*
X131364240Y-124150611D02*
X131392811Y-124122039D01*
X131392811Y-124122039D02*
X131449954Y-124093468D01*
X131449954Y-124093468D02*
X131507097Y-124093468D01*
X131507097Y-124093468D02*
X131564240Y-124122039D01*
X131564240Y-124122039D02*
X131592811Y-124150611D01*
X131592811Y-124150611D02*
X131621382Y-124207753D01*
X131621382Y-124207753D02*
X131649954Y-124322039D01*
X131649954Y-124322039D02*
X131678525Y-124379182D01*
X131678525Y-124379182D02*
X131707097Y-124407753D01*
X131707097Y-124407753D02*
X131764240Y-124436325D01*
X131764240Y-124436325D02*
X131821382Y-124436325D01*
X131821382Y-124436325D02*
X131878525Y-124407753D01*
X131878525Y-124407753D02*
X131907097Y-124379182D01*
X131907097Y-124379182D02*
X131935668Y-124322039D01*
X131935668Y-124322039D02*
X131935668Y-124179182D01*
X131935668Y-124179182D02*
X131907097Y-124093468D01*
X131935668Y-123893467D02*
X131335668Y-123750610D01*
X131335668Y-123750610D02*
X131764240Y-123636324D01*
X131764240Y-123636324D02*
X131335668Y-123522039D01*
X131335668Y-123522039D02*
X131935668Y-123379182D01*
X131335668Y-123150610D02*
X131935668Y-123150610D01*
X131935668Y-122750611D02*
X131935668Y-122636325D01*
X131935668Y-122636325D02*
X131907097Y-122579182D01*
X131907097Y-122579182D02*
X131849954Y-122522039D01*
X131849954Y-122522039D02*
X131735668Y-122493468D01*
X131735668Y-122493468D02*
X131535668Y-122493468D01*
X131535668Y-122493468D02*
X131421382Y-122522039D01*
X131421382Y-122522039D02*
X131364240Y-122579182D01*
X131364240Y-122579182D02*
X131335668Y-122636325D01*
X131335668Y-122636325D02*
X131335668Y-122750611D01*
X131335668Y-122750611D02*
X131364240Y-122807754D01*
X131364240Y-122807754D02*
X131421382Y-122864896D01*
X131421382Y-122864896D02*
X131535668Y-122893468D01*
X131535668Y-122893468D02*
X131735668Y-122893468D01*
X131735668Y-122893468D02*
X131849954Y-122864896D01*
X131849954Y-122864896D02*
X131907097Y-122807754D01*
X131907097Y-122807754D02*
X131935668Y-122750611D01*
X136946457Y-124093468D02*
X136975028Y-124150611D01*
X136975028Y-124150611D02*
X136975028Y-124236325D01*
X136975028Y-124236325D02*
X136946457Y-124322039D01*
X136946457Y-124322039D02*
X136889314Y-124379182D01*
X136889314Y-124379182D02*
X136832171Y-124407753D01*
X136832171Y-124407753D02*
X136717885Y-124436325D01*
X136717885Y-124436325D02*
X136632171Y-124436325D01*
X136632171Y-124436325D02*
X136517885Y-124407753D01*
X136517885Y-124407753D02*
X136460742Y-124379182D01*
X136460742Y-124379182D02*
X136403600Y-124322039D01*
X136403600Y-124322039D02*
X136375028Y-124236325D01*
X136375028Y-124236325D02*
X136375028Y-124179182D01*
X136375028Y-124179182D02*
X136403600Y-124093468D01*
X136403600Y-124093468D02*
X136432171Y-124064896D01*
X136432171Y-124064896D02*
X136632171Y-124064896D01*
X136632171Y-124064896D02*
X136632171Y-124179182D01*
X136375028Y-123807753D02*
X136975028Y-123807753D01*
X136975028Y-123807753D02*
X136375028Y-123464896D01*
X136375028Y-123464896D02*
X136975028Y-123464896D01*
X136375028Y-123179182D02*
X136975028Y-123179182D01*
X136975028Y-123179182D02*
X136975028Y-123036325D01*
X136975028Y-123036325D02*
X136946457Y-122950611D01*
X136946457Y-122950611D02*
X136889314Y-122893468D01*
X136889314Y-122893468D02*
X136832171Y-122864897D01*
X136832171Y-122864897D02*
X136717885Y-122836325D01*
X136717885Y-122836325D02*
X136632171Y-122836325D01*
X136632171Y-122836325D02*
X136517885Y-122864897D01*
X136517885Y-122864897D02*
X136460742Y-122893468D01*
X136460742Y-122893468D02*
X136403600Y-122950611D01*
X136403600Y-122950611D02*
X136375028Y-123036325D01*
X136375028Y-123036325D02*
X136375028Y-123179182D01*
X124621500Y-77947942D02*
X124335786Y-77947942D01*
X124678643Y-78119371D02*
X124478643Y-77519371D01*
X124478643Y-77519371D02*
X124278643Y-78119371D01*
X124078642Y-77805085D02*
X123878642Y-77805085D01*
X123792928Y-78119371D02*
X124078642Y-78119371D01*
X124078642Y-78119371D02*
X124078642Y-77519371D01*
X124078642Y-77519371D02*
X123792928Y-77519371D01*
X123221500Y-78119371D02*
X123564357Y-78119371D01*
X123392928Y-78119371D02*
X123392928Y-77519371D01*
X123392928Y-77519371D02*
X123450071Y-77605085D01*
X123450071Y-77605085D02*
X123507214Y-77662228D01*
X123507214Y-77662228D02*
X123564357Y-77690800D01*
X117259371Y-80322999D02*
X117687942Y-80322999D01*
X117687942Y-80322999D02*
X117773657Y-80294428D01*
X117773657Y-80294428D02*
X117830800Y-80237285D01*
X117830800Y-80237285D02*
X117859371Y-80151571D01*
X117859371Y-80151571D02*
X117859371Y-80094428D01*
X117859371Y-80608714D02*
X117259371Y-80608714D01*
X117259371Y-80608714D02*
X117259371Y-80837285D01*
X117259371Y-80837285D02*
X117287942Y-80894428D01*
X117287942Y-80894428D02*
X117316514Y-80922999D01*
X117316514Y-80922999D02*
X117373657Y-80951571D01*
X117373657Y-80951571D02*
X117459371Y-80951571D01*
X117459371Y-80951571D02*
X117516514Y-80922999D01*
X117516514Y-80922999D02*
X117545085Y-80894428D01*
X117545085Y-80894428D02*
X117573657Y-80837285D01*
X117573657Y-80837285D02*
X117573657Y-80608714D01*
X117859371Y-81522999D02*
X117859371Y-81180142D01*
X117859371Y-81351571D02*
X117259371Y-81351571D01*
X117259371Y-81351571D02*
X117345085Y-81294428D01*
X117345085Y-81294428D02*
X117402228Y-81237285D01*
X117402228Y-81237285D02*
X117430800Y-81180142D01*
X113799200Y-93129571D02*
X113799200Y-93558142D01*
X113799200Y-93558142D02*
X113827771Y-93643857D01*
X113827771Y-93643857D02*
X113884914Y-93701000D01*
X113884914Y-93701000D02*
X113970628Y-93729571D01*
X113970628Y-93729571D02*
X114027771Y-93729571D01*
X113570628Y-93129571D02*
X113199200Y-93129571D01*
X113199200Y-93129571D02*
X113399200Y-93358142D01*
X113399200Y-93358142D02*
X113313485Y-93358142D01*
X113313485Y-93358142D02*
X113256343Y-93386714D01*
X113256343Y-93386714D02*
X113227771Y-93415285D01*
X113227771Y-93415285D02*
X113199200Y-93472428D01*
X113199200Y-93472428D02*
X113199200Y-93615285D01*
X113199200Y-93615285D02*
X113227771Y-93672428D01*
X113227771Y-93672428D02*
X113256343Y-93701000D01*
X113256343Y-93701000D02*
X113313485Y-93729571D01*
X113313485Y-93729571D02*
X113484914Y-93729571D01*
X113484914Y-93729571D02*
X113542057Y-93701000D01*
X113542057Y-93701000D02*
X113570628Y-93672428D01*
X119172371Y-103990000D02*
X118886657Y-103790000D01*
X119172371Y-103647143D02*
X118572371Y-103647143D01*
X118572371Y-103647143D02*
X118572371Y-103875714D01*
X118572371Y-103875714D02*
X118600942Y-103932857D01*
X118600942Y-103932857D02*
X118629514Y-103961428D01*
X118629514Y-103961428D02*
X118686657Y-103990000D01*
X118686657Y-103990000D02*
X118772371Y-103990000D01*
X118772371Y-103990000D02*
X118829514Y-103961428D01*
X118829514Y-103961428D02*
X118858085Y-103932857D01*
X118858085Y-103932857D02*
X118886657Y-103875714D01*
X118886657Y-103875714D02*
X118886657Y-103647143D01*
X118572371Y-104532857D02*
X118572371Y-104247143D01*
X118572371Y-104247143D02*
X118858085Y-104218571D01*
X118858085Y-104218571D02*
X118829514Y-104247143D01*
X118829514Y-104247143D02*
X118800942Y-104304286D01*
X118800942Y-104304286D02*
X118800942Y-104447143D01*
X118800942Y-104447143D02*
X118829514Y-104504286D01*
X118829514Y-104504286D02*
X118858085Y-104532857D01*
X118858085Y-104532857D02*
X118915228Y-104561428D01*
X118915228Y-104561428D02*
X119058085Y-104561428D01*
X119058085Y-104561428D02*
X119115228Y-104532857D01*
X119115228Y-104532857D02*
X119143800Y-104504286D01*
X119143800Y-104504286D02*
X119172371Y-104447143D01*
X119172371Y-104447143D02*
X119172371Y-104304286D01*
X119172371Y-104304286D02*
X119143800Y-104247143D01*
X119143800Y-104247143D02*
X119115228Y-104218571D01*
X111472371Y-114750393D02*
X110872371Y-114750393D01*
X110872371Y-114750393D02*
X110872371Y-114893250D01*
X110872371Y-114893250D02*
X110900942Y-114978964D01*
X110900942Y-114978964D02*
X110958085Y-115036107D01*
X110958085Y-115036107D02*
X111015228Y-115064678D01*
X111015228Y-115064678D02*
X111129514Y-115093250D01*
X111129514Y-115093250D02*
X111215228Y-115093250D01*
X111215228Y-115093250D02*
X111329514Y-115064678D01*
X111329514Y-115064678D02*
X111386657Y-115036107D01*
X111386657Y-115036107D02*
X111443800Y-114978964D01*
X111443800Y-114978964D02*
X111472371Y-114893250D01*
X111472371Y-114893250D02*
X111472371Y-114750393D01*
X111072371Y-115607536D02*
X111472371Y-115607536D01*
X110843800Y-115464678D02*
X111272371Y-115321821D01*
X111272371Y-115321821D02*
X111272371Y-115693250D01*
X115760228Y-114316785D02*
X115788800Y-114288213D01*
X115788800Y-114288213D02*
X115817371Y-114202499D01*
X115817371Y-114202499D02*
X115817371Y-114145356D01*
X115817371Y-114145356D02*
X115788800Y-114059642D01*
X115788800Y-114059642D02*
X115731657Y-114002499D01*
X115731657Y-114002499D02*
X115674514Y-113973928D01*
X115674514Y-113973928D02*
X115560228Y-113945356D01*
X115560228Y-113945356D02*
X115474514Y-113945356D01*
X115474514Y-113945356D02*
X115360228Y-113973928D01*
X115360228Y-113973928D02*
X115303085Y-114002499D01*
X115303085Y-114002499D02*
X115245942Y-114059642D01*
X115245942Y-114059642D02*
X115217371Y-114145356D01*
X115217371Y-114145356D02*
X115217371Y-114202499D01*
X115217371Y-114202499D02*
X115245942Y-114288213D01*
X115245942Y-114288213D02*
X115274514Y-114316785D01*
X115274514Y-114545356D02*
X115245942Y-114573928D01*
X115245942Y-114573928D02*
X115217371Y-114631071D01*
X115217371Y-114631071D02*
X115217371Y-114773928D01*
X115217371Y-114773928D02*
X115245942Y-114831071D01*
X115245942Y-114831071D02*
X115274514Y-114859642D01*
X115274514Y-114859642D02*
X115331657Y-114888213D01*
X115331657Y-114888213D02*
X115388800Y-114888213D01*
X115388800Y-114888213D02*
X115474514Y-114859642D01*
X115474514Y-114859642D02*
X115817371Y-114516785D01*
X115817371Y-114516785D02*
X115817371Y-114888213D01*
X115217371Y-115402500D02*
X115217371Y-115288214D01*
X115217371Y-115288214D02*
X115245942Y-115231071D01*
X115245942Y-115231071D02*
X115274514Y-115202500D01*
X115274514Y-115202500D02*
X115360228Y-115145357D01*
X115360228Y-115145357D02*
X115474514Y-115116785D01*
X115474514Y-115116785D02*
X115703085Y-115116785D01*
X115703085Y-115116785D02*
X115760228Y-115145357D01*
X115760228Y-115145357D02*
X115788800Y-115173928D01*
X115788800Y-115173928D02*
X115817371Y-115231071D01*
X115817371Y-115231071D02*
X115817371Y-115345357D01*
X115817371Y-115345357D02*
X115788800Y-115402500D01*
X115788800Y-115402500D02*
X115760228Y-115431071D01*
X115760228Y-115431071D02*
X115703085Y-115459642D01*
X115703085Y-115459642D02*
X115560228Y-115459642D01*
X115560228Y-115459642D02*
X115503085Y-115431071D01*
X115503085Y-115431071D02*
X115474514Y-115402500D01*
X115474514Y-115402500D02*
X115445942Y-115345357D01*
X115445942Y-115345357D02*
X115445942Y-115231071D01*
X115445942Y-115231071D02*
X115474514Y-115173928D01*
X115474514Y-115173928D02*
X115503085Y-115145357D01*
X115503085Y-115145357D02*
X115560228Y-115116785D01*
X120316828Y-114401785D02*
X120345400Y-114373213D01*
X120345400Y-114373213D02*
X120373971Y-114287499D01*
X120373971Y-114287499D02*
X120373971Y-114230356D01*
X120373971Y-114230356D02*
X120345400Y-114144642D01*
X120345400Y-114144642D02*
X120288257Y-114087499D01*
X120288257Y-114087499D02*
X120231114Y-114058928D01*
X120231114Y-114058928D02*
X120116828Y-114030356D01*
X120116828Y-114030356D02*
X120031114Y-114030356D01*
X120031114Y-114030356D02*
X119916828Y-114058928D01*
X119916828Y-114058928D02*
X119859685Y-114087499D01*
X119859685Y-114087499D02*
X119802542Y-114144642D01*
X119802542Y-114144642D02*
X119773971Y-114230356D01*
X119773971Y-114230356D02*
X119773971Y-114287499D01*
X119773971Y-114287499D02*
X119802542Y-114373213D01*
X119802542Y-114373213D02*
X119831114Y-114401785D01*
X119831114Y-114630356D02*
X119802542Y-114658928D01*
X119802542Y-114658928D02*
X119773971Y-114716071D01*
X119773971Y-114716071D02*
X119773971Y-114858928D01*
X119773971Y-114858928D02*
X119802542Y-114916071D01*
X119802542Y-114916071D02*
X119831114Y-114944642D01*
X119831114Y-114944642D02*
X119888257Y-114973213D01*
X119888257Y-114973213D02*
X119945400Y-114973213D01*
X119945400Y-114973213D02*
X120031114Y-114944642D01*
X120031114Y-114944642D02*
X120373971Y-114601785D01*
X120373971Y-114601785D02*
X120373971Y-114973213D01*
X119773971Y-115516071D02*
X119773971Y-115230357D01*
X119773971Y-115230357D02*
X120059685Y-115201785D01*
X120059685Y-115201785D02*
X120031114Y-115230357D01*
X120031114Y-115230357D02*
X120002542Y-115287500D01*
X120002542Y-115287500D02*
X120002542Y-115430357D01*
X120002542Y-115430357D02*
X120031114Y-115487500D01*
X120031114Y-115487500D02*
X120059685Y-115516071D01*
X120059685Y-115516071D02*
X120116828Y-115544642D01*
X120116828Y-115544642D02*
X120259685Y-115544642D01*
X120259685Y-115544642D02*
X120316828Y-115516071D01*
X120316828Y-115516071D02*
X120345400Y-115487500D01*
X120345400Y-115487500D02*
X120373971Y-115430357D01*
X120373971Y-115430357D02*
X120373971Y-115287500D01*
X120373971Y-115287500D02*
X120345400Y-115230357D01*
X120345400Y-115230357D02*
X120316828Y-115201785D01*
X117512371Y-113830357D02*
X117998085Y-113830357D01*
X117998085Y-113830357D02*
X118055228Y-113858928D01*
X118055228Y-113858928D02*
X118083800Y-113887500D01*
X118083800Y-113887500D02*
X118112371Y-113944642D01*
X118112371Y-113944642D02*
X118112371Y-114058928D01*
X118112371Y-114058928D02*
X118083800Y-114116071D01*
X118083800Y-114116071D02*
X118055228Y-114144642D01*
X118055228Y-114144642D02*
X117998085Y-114173214D01*
X117998085Y-114173214D02*
X117512371Y-114173214D01*
X117512371Y-114401785D02*
X117512371Y-114773213D01*
X117512371Y-114773213D02*
X117740942Y-114573213D01*
X117740942Y-114573213D02*
X117740942Y-114658928D01*
X117740942Y-114658928D02*
X117769514Y-114716071D01*
X117769514Y-114716071D02*
X117798085Y-114744642D01*
X117798085Y-114744642D02*
X117855228Y-114773213D01*
X117855228Y-114773213D02*
X117998085Y-114773213D01*
X117998085Y-114773213D02*
X118055228Y-114744642D01*
X118055228Y-114744642D02*
X118083800Y-114716071D01*
X118083800Y-114716071D02*
X118112371Y-114658928D01*
X118112371Y-114658928D02*
X118112371Y-114487499D01*
X118112371Y-114487499D02*
X118083800Y-114430356D01*
X118083800Y-114430356D02*
X118055228Y-114401785D01*
D14*
X111602819Y-85562666D02*
X112317104Y-85562666D01*
X112317104Y-85562666D02*
X112459961Y-85515047D01*
X112459961Y-85515047D02*
X112555200Y-85419809D01*
X112555200Y-85419809D02*
X112602819Y-85276952D01*
X112602819Y-85276952D02*
X112602819Y-85181714D01*
X112602819Y-86038857D02*
X111602819Y-86038857D01*
X111602819Y-86038857D02*
X111602819Y-86419809D01*
X111602819Y-86419809D02*
X111650438Y-86515047D01*
X111650438Y-86515047D02*
X111698057Y-86562666D01*
X111698057Y-86562666D02*
X111793295Y-86610285D01*
X111793295Y-86610285D02*
X111936152Y-86610285D01*
X111936152Y-86610285D02*
X112031390Y-86562666D01*
X112031390Y-86562666D02*
X112079009Y-86515047D01*
X112079009Y-86515047D02*
X112126628Y-86419809D01*
X112126628Y-86419809D02*
X112126628Y-86038857D01*
X111698057Y-86991238D02*
X111650438Y-87038857D01*
X111650438Y-87038857D02*
X111602819Y-87134095D01*
X111602819Y-87134095D02*
X111602819Y-87372190D01*
X111602819Y-87372190D02*
X111650438Y-87467428D01*
X111650438Y-87467428D02*
X111698057Y-87515047D01*
X111698057Y-87515047D02*
X111793295Y-87562666D01*
X111793295Y-87562666D02*
X111888533Y-87562666D01*
X111888533Y-87562666D02*
X112031390Y-87515047D01*
X112031390Y-87515047D02*
X112602819Y-86943619D01*
X112602819Y-86943619D02*
X112602819Y-87562666D01*
D12*
X120850000Y-106022371D02*
X120850000Y-106450942D01*
X120850000Y-106450942D02*
X120878571Y-106536657D01*
X120878571Y-106536657D02*
X120935714Y-106593800D01*
X120935714Y-106593800D02*
X121021428Y-106622371D01*
X121021428Y-106622371D02*
X121078571Y-106622371D01*
X120307143Y-106222371D02*
X120307143Y-106622371D01*
X120450000Y-105993800D02*
X120592857Y-106422371D01*
X120592857Y-106422371D02*
X120221428Y-106422371D01*
X111072371Y-117493250D02*
X110786657Y-117293250D01*
X111072371Y-117150393D02*
X110472371Y-117150393D01*
X110472371Y-117150393D02*
X110472371Y-117378964D01*
X110472371Y-117378964D02*
X110500942Y-117436107D01*
X110500942Y-117436107D02*
X110529514Y-117464678D01*
X110529514Y-117464678D02*
X110586657Y-117493250D01*
X110586657Y-117493250D02*
X110672371Y-117493250D01*
X110672371Y-117493250D02*
X110729514Y-117464678D01*
X110729514Y-117464678D02*
X110758085Y-117436107D01*
X110758085Y-117436107D02*
X110786657Y-117378964D01*
X110786657Y-117378964D02*
X110786657Y-117150393D01*
X110729514Y-117836107D02*
X110700942Y-117778964D01*
X110700942Y-117778964D02*
X110672371Y-117750393D01*
X110672371Y-117750393D02*
X110615228Y-117721821D01*
X110615228Y-117721821D02*
X110586657Y-117721821D01*
X110586657Y-117721821D02*
X110529514Y-117750393D01*
X110529514Y-117750393D02*
X110500942Y-117778964D01*
X110500942Y-117778964D02*
X110472371Y-117836107D01*
X110472371Y-117836107D02*
X110472371Y-117950393D01*
X110472371Y-117950393D02*
X110500942Y-118007536D01*
X110500942Y-118007536D02*
X110529514Y-118036107D01*
X110529514Y-118036107D02*
X110586657Y-118064678D01*
X110586657Y-118064678D02*
X110615228Y-118064678D01*
X110615228Y-118064678D02*
X110672371Y-118036107D01*
X110672371Y-118036107D02*
X110700942Y-118007536D01*
X110700942Y-118007536D02*
X110729514Y-117950393D01*
X110729514Y-117950393D02*
X110729514Y-117836107D01*
X110729514Y-117836107D02*
X110758085Y-117778964D01*
X110758085Y-117778964D02*
X110786657Y-117750393D01*
X110786657Y-117750393D02*
X110843800Y-117721821D01*
X110843800Y-117721821D02*
X110958085Y-117721821D01*
X110958085Y-117721821D02*
X111015228Y-117750393D01*
X111015228Y-117750393D02*
X111043800Y-117778964D01*
X111043800Y-117778964D02*
X111072371Y-117836107D01*
X111072371Y-117836107D02*
X111072371Y-117950393D01*
X111072371Y-117950393D02*
X111043800Y-118007536D01*
X111043800Y-118007536D02*
X111015228Y-118036107D01*
X111015228Y-118036107D02*
X110958085Y-118064678D01*
X110958085Y-118064678D02*
X110843800Y-118064678D01*
X110843800Y-118064678D02*
X110786657Y-118036107D01*
X110786657Y-118036107D02*
X110758085Y-118007536D01*
X110758085Y-118007536D02*
X110729514Y-117950393D01*
X119172371Y-96390000D02*
X118886657Y-96190000D01*
X119172371Y-96047143D02*
X118572371Y-96047143D01*
X118572371Y-96047143D02*
X118572371Y-96275714D01*
X118572371Y-96275714D02*
X118600942Y-96332857D01*
X118600942Y-96332857D02*
X118629514Y-96361428D01*
X118629514Y-96361428D02*
X118686657Y-96390000D01*
X118686657Y-96390000D02*
X118772371Y-96390000D01*
X118772371Y-96390000D02*
X118829514Y-96361428D01*
X118829514Y-96361428D02*
X118858085Y-96332857D01*
X118858085Y-96332857D02*
X118886657Y-96275714D01*
X118886657Y-96275714D02*
X118886657Y-96047143D01*
X118572371Y-96904286D02*
X118572371Y-96790000D01*
X118572371Y-96790000D02*
X118600942Y-96732857D01*
X118600942Y-96732857D02*
X118629514Y-96704286D01*
X118629514Y-96704286D02*
X118715228Y-96647143D01*
X118715228Y-96647143D02*
X118829514Y-96618571D01*
X118829514Y-96618571D02*
X119058085Y-96618571D01*
X119058085Y-96618571D02*
X119115228Y-96647143D01*
X119115228Y-96647143D02*
X119143800Y-96675714D01*
X119143800Y-96675714D02*
X119172371Y-96732857D01*
X119172371Y-96732857D02*
X119172371Y-96847143D01*
X119172371Y-96847143D02*
X119143800Y-96904286D01*
X119143800Y-96904286D02*
X119115228Y-96932857D01*
X119115228Y-96932857D02*
X119058085Y-96961428D01*
X119058085Y-96961428D02*
X118915228Y-96961428D01*
X118915228Y-96961428D02*
X118858085Y-96932857D01*
X118858085Y-96932857D02*
X118829514Y-96904286D01*
X118829514Y-96904286D02*
X118800942Y-96847143D01*
X118800942Y-96847143D02*
X118800942Y-96732857D01*
X118800942Y-96732857D02*
X118829514Y-96675714D01*
X118829514Y-96675714D02*
X118858085Y-96647143D01*
X118858085Y-96647143D02*
X118915228Y-96618571D01*
D15*
%TO.C,JP1*%
X114682000Y-81508000D02*
X114682000Y-80108000D01*
X115382000Y-79408000D02*
X115982000Y-79408000D01*
X115982000Y-82208000D02*
X115382000Y-82208000D01*
X116682000Y-80108000D02*
X116682000Y-81508000D01*
X114682000Y-80108000D02*
G75*
G02*
X115382000Y-79408000I699999J1D01*
G01*
X115382000Y-82208000D02*
G75*
G02*
X114682000Y-81508000I0J700000D01*
G01*
X115982000Y-79408000D02*
G75*
G02*
X116682000Y-80108000I1J-699999D01*
G01*
X116682000Y-81508000D02*
G75*
G02*
X115982000Y-82208000I-700000J0D01*
G01*
%TO.C,J3*%
X114465000Y-95968500D02*
X113055000Y-95968500D01*
X114465000Y-105128500D02*
X113055000Y-105128500D01*
X116985000Y-104308500D02*
X117135000Y-104308500D01*
X117135000Y-104308500D02*
X117135000Y-103508500D01*
%TO.C,R5*%
X118520000Y-102493641D02*
X118520000Y-102186359D01*
X119280000Y-102493641D02*
X119280000Y-102186359D01*
D16*
%TO.C,REF\u002A\u002A*%
X152565289Y-117026501D02*
X152645955Y-117056465D01*
X152679502Y-117078979D01*
X152713475Y-117111237D01*
X152737707Y-117152271D01*
X152753789Y-117208133D01*
X152763309Y-117284876D01*
X152767856Y-117388550D01*
X152769019Y-117525209D01*
X152768791Y-117595830D01*
X152767648Y-117692333D01*
X152765707Y-117769348D01*
X152763153Y-117820344D01*
X152760169Y-117838794D01*
X152740750Y-117832692D01*
X152701554Y-117816120D01*
X152700377Y-117815583D01*
X152680023Y-117804928D01*
X152666334Y-117790307D01*
X152657987Y-117764698D01*
X152653662Y-117721079D01*
X152652036Y-117652428D01*
X152651788Y-117551723D01*
X152651288Y-117487838D01*
X152645952Y-117367776D01*
X152633733Y-117279834D01*
X152613340Y-117219400D01*
X152583483Y-117181861D01*
X152542870Y-117162606D01*
X152537236Y-117161264D01*
X152461166Y-117160216D01*
X152401840Y-117194296D01*
X152360865Y-117262623D01*
X152353558Y-117282376D01*
X152336902Y-117326091D01*
X152328467Y-117346180D01*
X152311144Y-117343412D01*
X152273313Y-117328390D01*
X152238028Y-117303581D01*
X152221942Y-117256695D01*
X152226740Y-117223112D01*
X152256219Y-117154992D01*
X152303886Y-117091159D01*
X152359627Y-117047013D01*
X152382981Y-117036807D01*
X152471407Y-117019743D01*
X152565289Y-117026501D01*
G36*
X152565289Y-117026501D02*
G01*
X152645955Y-117056465D01*
X152679502Y-117078979D01*
X152713475Y-117111237D01*
X152737707Y-117152271D01*
X152753789Y-117208133D01*
X152763309Y-117284876D01*
X152767856Y-117388550D01*
X152769019Y-117525209D01*
X152768791Y-117595830D01*
X152767648Y-117692333D01*
X152765707Y-117769348D01*
X152763153Y-117820344D01*
X152760169Y-117838794D01*
X152740750Y-117832692D01*
X152701554Y-117816120D01*
X152700377Y-117815583D01*
X152680023Y-117804928D01*
X152666334Y-117790307D01*
X152657987Y-117764698D01*
X152653662Y-117721079D01*
X152652036Y-117652428D01*
X152651788Y-117551723D01*
X152651288Y-117487838D01*
X152645952Y-117367776D01*
X152633733Y-117279834D01*
X152613340Y-117219400D01*
X152583483Y-117181861D01*
X152542870Y-117162606D01*
X152537236Y-117161264D01*
X152461166Y-117160216D01*
X152401840Y-117194296D01*
X152360865Y-117262623D01*
X152353558Y-117282376D01*
X152336902Y-117326091D01*
X152328467Y-117346180D01*
X152311144Y-117343412D01*
X152273313Y-117328390D01*
X152238028Y-117303581D01*
X152221942Y-117256695D01*
X152226740Y-117223112D01*
X152256219Y-117154992D01*
X152303886Y-117091159D01*
X152359627Y-117047013D01*
X152382981Y-117036807D01*
X152471407Y-117019743D01*
X152565289Y-117026501D01*
G37*
X157880160Y-116981709D02*
X157971417Y-117024594D01*
X158046204Y-117098754D01*
X158061705Y-117121969D01*
X158074562Y-117148281D01*
X158083681Y-117181445D01*
X158089890Y-117227906D01*
X158094021Y-117294107D01*
X158096904Y-117386493D01*
X158099367Y-117511510D01*
X158105485Y-117858303D01*
X158054091Y-117838763D01*
X158007034Y-117820812D01*
X157971803Y-117803536D01*
X157948805Y-117781267D01*
X157935443Y-117747190D01*
X157929116Y-117694488D01*
X157927225Y-117616348D01*
X157927173Y-117505953D01*
X157926905Y-117417960D01*
X157925309Y-117333527D01*
X157921500Y-117275859D01*
X157914608Y-117238013D01*
X157903763Y-117213049D01*
X157888096Y-117194025D01*
X157849580Y-117167178D01*
X157784879Y-117157059D01*
X157720869Y-117182631D01*
X157716644Y-117185905D01*
X157703477Y-117201032D01*
X157693763Y-117225293D01*
X157686691Y-117264675D01*
X157681444Y-117325166D01*
X157677209Y-117412754D01*
X157673173Y-117533427D01*
X157663403Y-117856540D01*
X157497327Y-117782090D01*
X157497327Y-117487087D01*
X157497671Y-117406944D01*
X157500635Y-117295456D01*
X157508139Y-117212446D01*
X157521978Y-117151224D01*
X157543943Y-117105100D01*
X157575827Y-117067383D01*
X157619421Y-117031383D01*
X157682124Y-116995114D01*
X157780905Y-116971437D01*
X157880160Y-116981709D01*
G36*
X157880160Y-116981709D02*
G01*
X157971417Y-117024594D01*
X158046204Y-117098754D01*
X158061705Y-117121969D01*
X158074562Y-117148281D01*
X158083681Y-117181445D01*
X158089890Y-117227906D01*
X158094021Y-117294107D01*
X158096904Y-117386493D01*
X158099367Y-117511510D01*
X158105485Y-117858303D01*
X158054091Y-117838763D01*
X158007034Y-117820812D01*
X157971803Y-117803536D01*
X157948805Y-117781267D01*
X157935443Y-117747190D01*
X157929116Y-117694488D01*
X157927225Y-117616348D01*
X157927173Y-117505953D01*
X157926905Y-117417960D01*
X157925309Y-117333527D01*
X157921500Y-117275859D01*
X157914608Y-117238013D01*
X157903763Y-117213049D01*
X157888096Y-117194025D01*
X157849580Y-117167178D01*
X157784879Y-117157059D01*
X157720869Y-117182631D01*
X157716644Y-117185905D01*
X157703477Y-117201032D01*
X157693763Y-117225293D01*
X157686691Y-117264675D01*
X157681444Y-117325166D01*
X157677209Y-117412754D01*
X157673173Y-117533427D01*
X157663403Y-117856540D01*
X157497327Y-117782090D01*
X157497327Y-117487087D01*
X157497671Y-117406944D01*
X157500635Y-117295456D01*
X157508139Y-117212446D01*
X157521978Y-117151224D01*
X157543943Y-117105100D01*
X157575827Y-117067383D01*
X157619421Y-117031383D01*
X157682124Y-116995114D01*
X157780905Y-116971437D01*
X157880160Y-116981709D01*
G37*
X155425680Y-117047192D02*
X155431848Y-117050606D01*
X155482235Y-117089717D01*
X155527286Y-117140000D01*
X155535143Y-117151364D01*
X155550164Y-117177885D01*
X155560895Y-117209361D01*
X155568274Y-117252616D01*
X155573240Y-117314474D01*
X155576730Y-117401758D01*
X155579681Y-117521294D01*
X155580099Y-117541503D01*
X155581442Y-117672524D01*
X155579549Y-117765321D01*
X155574393Y-117820532D01*
X155565946Y-117838794D01*
X155540382Y-117833326D01*
X155496954Y-117816758D01*
X155486728Y-117811913D01*
X155470755Y-117800945D01*
X155459742Y-117782915D01*
X155452538Y-117751421D01*
X155447996Y-117700061D01*
X155444968Y-117622435D01*
X155442304Y-117512140D01*
X155441573Y-117479900D01*
X155438753Y-117378075D01*
X155435092Y-117306813D01*
X155429482Y-117259357D01*
X155420817Y-117228950D01*
X155407990Y-117208835D01*
X155389893Y-117192254D01*
X155336313Y-117163186D01*
X155270400Y-117157589D01*
X155211423Y-117179832D01*
X155168991Y-117225884D01*
X155152711Y-117291717D01*
X155152258Y-117309612D01*
X155143366Y-117342007D01*
X155117113Y-117346950D01*
X155065707Y-117327658D01*
X155053801Y-117321471D01*
X155021623Y-117285083D01*
X155020986Y-117230979D01*
X155051644Y-117156153D01*
X155079766Y-117115375D01*
X155151671Y-117057446D01*
X155240426Y-117024695D01*
X155335330Y-117020237D01*
X155425680Y-117047192D01*
G36*
X155425680Y-117047192D02*
G01*
X155431848Y-117050606D01*
X155482235Y-117089717D01*
X155527286Y-117140000D01*
X155535143Y-117151364D01*
X155550164Y-117177885D01*
X155560895Y-117209361D01*
X155568274Y-117252616D01*
X155573240Y-117314474D01*
X155576730Y-117401758D01*
X155579681Y-117521294D01*
X155580099Y-117541503D01*
X155581442Y-117672524D01*
X155579549Y-117765321D01*
X155574393Y-117820532D01*
X155565946Y-117838794D01*
X155540382Y-117833326D01*
X155496954Y-117816758D01*
X155486728Y-117811913D01*
X155470755Y-117800945D01*
X155459742Y-117782915D01*
X155452538Y-117751421D01*
X155447996Y-117700061D01*
X155444968Y-117622435D01*
X155442304Y-117512140D01*
X155441573Y-117479900D01*
X155438753Y-117378075D01*
X155435092Y-117306813D01*
X155429482Y-117259357D01*
X155420817Y-117228950D01*
X155407990Y-117208835D01*
X155389893Y-117192254D01*
X155336313Y-117163186D01*
X155270400Y-117157589D01*
X155211423Y-117179832D01*
X155168991Y-117225884D01*
X155152711Y-117291717D01*
X155152258Y-117309612D01*
X155143366Y-117342007D01*
X155117113Y-117346950D01*
X155065707Y-117327658D01*
X155053801Y-117321471D01*
X155021623Y-117285083D01*
X155020986Y-117230979D01*
X155051644Y-117156153D01*
X155079766Y-117115375D01*
X155151671Y-117057446D01*
X155240426Y-117024695D01*
X155335330Y-117020237D01*
X155425680Y-117047192D01*
G37*
X156930711Y-116781831D02*
X156930711Y-117316480D01*
X156930448Y-117455119D01*
X156929746Y-117579830D01*
X156928671Y-117685582D01*
X156927288Y-117767347D01*
X156925662Y-117820094D01*
X156923858Y-117838794D01*
X156923152Y-117838731D01*
X156899175Y-117831937D01*
X156855473Y-117817345D01*
X156793942Y-117795895D01*
X156793942Y-117520642D01*
X156793551Y-117412491D01*
X156791734Y-117334051D01*
X156787555Y-117280672D01*
X156780074Y-117245281D01*
X156768355Y-117220804D01*
X156751459Y-117200169D01*
X156739940Y-117189195D01*
X156677652Y-117158800D01*
X156608999Y-117161491D01*
X156546086Y-117197431D01*
X156536927Y-117206350D01*
X156522259Y-117224869D01*
X156512221Y-117249351D01*
X156505939Y-117286418D01*
X156502536Y-117342692D01*
X156501137Y-117424796D01*
X156500865Y-117539354D01*
X156500735Y-117597455D01*
X156499887Y-117693018D01*
X156498382Y-117769551D01*
X156496373Y-117820370D01*
X156494011Y-117838794D01*
X156493306Y-117838731D01*
X156469329Y-117831937D01*
X156425627Y-117817345D01*
X156364096Y-117795895D01*
X156364126Y-117519383D01*
X156364172Y-117494767D01*
X156366758Y-117366444D01*
X156374701Y-117269409D01*
X156389943Y-117197082D01*
X156414424Y-117142880D01*
X156450086Y-117100223D01*
X156498870Y-117062530D01*
X156546449Y-117038935D01*
X156622520Y-117020697D01*
X156697344Y-117019661D01*
X156754865Y-117037403D01*
X156759190Y-117039854D01*
X156772526Y-117039591D01*
X156781639Y-117019064D01*
X156788216Y-116972005D01*
X156793942Y-116892145D01*
X156803711Y-116728261D01*
X156930711Y-116781831D01*
G36*
X156930711Y-116781831D02*
G01*
X156930711Y-117316480D01*
X156930448Y-117455119D01*
X156929746Y-117579830D01*
X156928671Y-117685582D01*
X156927288Y-117767347D01*
X156925662Y-117820094D01*
X156923858Y-117838794D01*
X156923152Y-117838731D01*
X156899175Y-117831937D01*
X156855473Y-117817345D01*
X156793942Y-117795895D01*
X156793942Y-117520642D01*
X156793551Y-117412491D01*
X156791734Y-117334051D01*
X156787555Y-117280672D01*
X156780074Y-117245281D01*
X156768355Y-117220804D01*
X156751459Y-117200169D01*
X156739940Y-117189195D01*
X156677652Y-117158800D01*
X156608999Y-117161491D01*
X156546086Y-117197431D01*
X156536927Y-117206350D01*
X156522259Y-117224869D01*
X156512221Y-117249351D01*
X156505939Y-117286418D01*
X156502536Y-117342692D01*
X156501137Y-117424796D01*
X156500865Y-117539354D01*
X156500735Y-117597455D01*
X156499887Y-117693018D01*
X156498382Y-117769551D01*
X156496373Y-117820370D01*
X156494011Y-117838794D01*
X156493306Y-117838731D01*
X156469329Y-117831937D01*
X156425627Y-117817345D01*
X156364096Y-117795895D01*
X156364126Y-117519383D01*
X156364172Y-117494767D01*
X156366758Y-117366444D01*
X156374701Y-117269409D01*
X156389943Y-117197082D01*
X156414424Y-117142880D01*
X156450086Y-117100223D01*
X156498870Y-117062530D01*
X156546449Y-117038935D01*
X156622520Y-117020697D01*
X156697344Y-117019661D01*
X156754865Y-117037403D01*
X156759190Y-117039854D01*
X156772526Y-117039591D01*
X156781639Y-117019064D01*
X156788216Y-116972005D01*
X156793942Y-116892145D01*
X156803711Y-116728261D01*
X156930711Y-116781831D01*
G37*
X154141786Y-117024059D02*
X154184638Y-117040854D01*
X154234403Y-117063528D01*
X154234403Y-117718558D01*
X154172573Y-117780388D01*
X154158450Y-117794253D01*
X154119324Y-117825071D01*
X154079866Y-117835053D01*
X154021150Y-117830458D01*
X153997244Y-117827487D01*
X153935589Y-117821201D01*
X153892480Y-117818697D01*
X153879693Y-117819080D01*
X153827234Y-117823225D01*
X153763810Y-117830458D01*
X153743518Y-117832943D01*
X153692398Y-117833920D01*
X153654995Y-117818487D01*
X153612387Y-117780388D01*
X153550557Y-117718558D01*
X153550557Y-117368368D01*
X153551039Y-117264882D01*
X153552541Y-117166217D01*
X153554877Y-117088093D01*
X153557859Y-117036687D01*
X153561297Y-117018179D01*
X153562018Y-117018229D01*
X153586991Y-117027438D01*
X153629187Y-117047732D01*
X153686337Y-117077286D01*
X153691716Y-117384771D01*
X153697096Y-117692256D01*
X153814327Y-117692256D01*
X153819673Y-117355217D01*
X153821367Y-117263599D01*
X153823793Y-117165674D01*
X153826422Y-117087931D01*
X153829034Y-117036667D01*
X153831411Y-117018179D01*
X153832094Y-117018244D01*
X153855784Y-117025045D01*
X153899334Y-117039629D01*
X153960865Y-117061079D01*
X153961164Y-117357129D01*
X153961464Y-117408557D01*
X153963542Y-117508491D01*
X153967258Y-117591950D01*
X153972218Y-117651402D01*
X153978028Y-117679312D01*
X153998812Y-117694239D01*
X154041228Y-117698850D01*
X154087865Y-117692256D01*
X154093211Y-117355217D01*
X154095124Y-117269571D01*
X154099091Y-117168197D01*
X154104279Y-117088680D01*
X154110287Y-117036761D01*
X154116715Y-117018179D01*
X154141786Y-117024059D01*
G36*
X154141786Y-117024059D02*
G01*
X154184638Y-117040854D01*
X154234403Y-117063528D01*
X154234403Y-117718558D01*
X154172573Y-117780388D01*
X154158450Y-117794253D01*
X154119324Y-117825071D01*
X154079866Y-117835053D01*
X154021150Y-117830458D01*
X153997244Y-117827487D01*
X153935589Y-117821201D01*
X153892480Y-117818697D01*
X153879693Y-117819080D01*
X153827234Y-117823225D01*
X153763810Y-117830458D01*
X153743518Y-117832943D01*
X153692398Y-117833920D01*
X153654995Y-117818487D01*
X153612387Y-117780388D01*
X153550557Y-117718558D01*
X153550557Y-117368368D01*
X153551039Y-117264882D01*
X153552541Y-117166217D01*
X153554877Y-117088093D01*
X153557859Y-117036687D01*
X153561297Y-117018179D01*
X153562018Y-117018229D01*
X153586991Y-117027438D01*
X153629187Y-117047732D01*
X153686337Y-117077286D01*
X153691716Y-117384771D01*
X153697096Y-117692256D01*
X153814327Y-117692256D01*
X153819673Y-117355217D01*
X153821367Y-117263599D01*
X153823793Y-117165674D01*
X153826422Y-117087931D01*
X153829034Y-117036667D01*
X153831411Y-117018179D01*
X153832094Y-117018244D01*
X153855784Y-117025045D01*
X153899334Y-117039629D01*
X153960865Y-117061079D01*
X153961164Y-117357129D01*
X153961464Y-117408557D01*
X153963542Y-117508491D01*
X153967258Y-117591950D01*
X153972218Y-117651402D01*
X153978028Y-117679312D01*
X153998812Y-117694239D01*
X154041228Y-117698850D01*
X154087865Y-117692256D01*
X154093211Y-117355217D01*
X154095124Y-117269571D01*
X154099091Y-117168197D01*
X154104279Y-117088680D01*
X154110287Y-117036761D01*
X154116715Y-117018179D01*
X154141786Y-117024059D01*
G37*
X160349942Y-117408948D02*
X160349923Y-117430130D01*
X160348864Y-117524609D01*
X160345224Y-117590439D01*
X160337680Y-117636419D01*
X160324910Y-117671346D01*
X160305591Y-117704020D01*
X160300838Y-117710800D01*
X160250547Y-117764256D01*
X160193245Y-117804572D01*
X160163820Y-117817654D01*
X160058087Y-117839475D01*
X159953522Y-117825361D01*
X159857156Y-117777130D01*
X159776023Y-117696604D01*
X159769173Y-117685816D01*
X159746885Y-117623178D01*
X159731867Y-117535960D01*
X159724580Y-117435235D01*
X159725399Y-117342062D01*
X159922584Y-117342062D01*
X159924137Y-117471139D01*
X159924762Y-117479445D01*
X159933865Y-117550668D01*
X159950076Y-117595834D01*
X159977448Y-117626777D01*
X160023341Y-117655762D01*
X160068730Y-117657286D01*
X160115480Y-117623871D01*
X160123612Y-117615078D01*
X160139542Y-117588766D01*
X160148947Y-117550545D01*
X160153420Y-117491374D01*
X160154557Y-117402207D01*
X160152610Y-117318689D01*
X160142893Y-117239120D01*
X160122835Y-117188833D01*
X160090028Y-117162538D01*
X160042068Y-117154948D01*
X160023804Y-117156457D01*
X159972636Y-117184132D01*
X159938823Y-117246197D01*
X159922584Y-117342062D01*
X159725399Y-117342062D01*
X159725487Y-117332077D01*
X159735050Y-117237558D01*
X159753731Y-117162752D01*
X159777739Y-117112930D01*
X159845324Y-117035434D01*
X159936902Y-116987281D01*
X160049001Y-116970728D01*
X160078939Y-116971624D01*
X160167103Y-116989954D01*
X160239521Y-117036129D01*
X160305980Y-117115673D01*
X160309935Y-117121573D01*
X160327828Y-117153313D01*
X160339466Y-117189188D01*
X160346159Y-117237931D01*
X160349214Y-117308274D01*
X160349894Y-117402207D01*
X160349942Y-117408948D01*
G36*
X160349942Y-117408948D02*
G01*
X160349923Y-117430130D01*
X160348864Y-117524609D01*
X160345224Y-117590439D01*
X160337680Y-117636419D01*
X160324910Y-117671346D01*
X160305591Y-117704020D01*
X160300838Y-117710800D01*
X160250547Y-117764256D01*
X160193245Y-117804572D01*
X160163820Y-117817654D01*
X160058087Y-117839475D01*
X159953522Y-117825361D01*
X159857156Y-117777130D01*
X159776023Y-117696604D01*
X159769173Y-117685816D01*
X159746885Y-117623178D01*
X159731867Y-117535960D01*
X159724580Y-117435235D01*
X159725399Y-117342062D01*
X159922584Y-117342062D01*
X159924137Y-117471139D01*
X159924762Y-117479445D01*
X159933865Y-117550668D01*
X159950076Y-117595834D01*
X159977448Y-117626777D01*
X160023341Y-117655762D01*
X160068730Y-117657286D01*
X160115480Y-117623871D01*
X160123612Y-117615078D01*
X160139542Y-117588766D01*
X160148947Y-117550545D01*
X160153420Y-117491374D01*
X160154557Y-117402207D01*
X160152610Y-117318689D01*
X160142893Y-117239120D01*
X160122835Y-117188833D01*
X160090028Y-117162538D01*
X160042068Y-117154948D01*
X160023804Y-117156457D01*
X159972636Y-117184132D01*
X159938823Y-117246197D01*
X159922584Y-117342062D01*
X159725399Y-117342062D01*
X159725487Y-117332077D01*
X159735050Y-117237558D01*
X159753731Y-117162752D01*
X159777739Y-117112930D01*
X159845324Y-117035434D01*
X159936902Y-116987281D01*
X160049001Y-116970728D01*
X160078939Y-116971624D01*
X160167103Y-116989954D01*
X160239521Y-117036129D01*
X160305980Y-117115673D01*
X160309935Y-117121573D01*
X160327828Y-117153313D01*
X160339466Y-117189188D01*
X160346159Y-117237931D01*
X160349214Y-117308274D01*
X160349894Y-117402207D01*
X160349942Y-117408948D01*
G37*
X152104582Y-117432401D02*
X152104201Y-117484474D01*
X152099429Y-117587072D01*
X152086938Y-117662151D01*
X152063909Y-117717773D01*
X152027520Y-117762000D01*
X151974950Y-117802894D01*
X151941502Y-117821491D01*
X151887886Y-117834016D01*
X151812568Y-117833028D01*
X151770460Y-117829060D01*
X151719667Y-117816945D01*
X151679068Y-117790610D01*
X151631837Y-117741539D01*
X151625526Y-117734371D01*
X151583065Y-117679214D01*
X151562806Y-117631175D01*
X151557634Y-117574209D01*
X151557634Y-117490496D01*
X151616134Y-117512577D01*
X151658782Y-117538389D01*
X151695852Y-117598953D01*
X151703591Y-117618345D01*
X151746862Y-117673260D01*
X151805764Y-117700904D01*
X151869899Y-117698418D01*
X151928865Y-117662948D01*
X151949130Y-117640830D01*
X151967508Y-117607461D01*
X151961759Y-117577142D01*
X151928675Y-117545938D01*
X151865049Y-117509912D01*
X151767673Y-117465128D01*
X151567403Y-117377470D01*
X151562089Y-117290632D01*
X151564087Y-117235321D01*
X151694571Y-117235321D01*
X151704476Y-117269563D01*
X151749544Y-117306121D01*
X151831345Y-117347717D01*
X151844880Y-117353743D01*
X151909606Y-117381778D01*
X151958035Y-117401497D01*
X151980539Y-117408948D01*
X151983949Y-117403463D01*
X151985317Y-117369973D01*
X151980439Y-117316141D01*
X151968152Y-117263498D01*
X151929829Y-117197176D01*
X151874508Y-117159805D01*
X151808428Y-117154746D01*
X151737828Y-117185364D01*
X151718262Y-117200673D01*
X151694571Y-117235321D01*
X151564087Y-117235321D01*
X151564435Y-117225688D01*
X151593974Y-117143615D01*
X151631260Y-117098386D01*
X151708564Y-117047863D01*
X151800266Y-117022341D01*
X151895062Y-117024361D01*
X151981647Y-117056465D01*
X152000708Y-117068792D01*
X152044428Y-117106937D01*
X152074328Y-117155192D01*
X152092756Y-117220735D01*
X152102058Y-117310745D01*
X152103287Y-117369973D01*
X152104582Y-117432401D01*
G36*
X152104582Y-117432401D02*
G01*
X152104201Y-117484474D01*
X152099429Y-117587072D01*
X152086938Y-117662151D01*
X152063909Y-117717773D01*
X152027520Y-117762000D01*
X151974950Y-117802894D01*
X151941502Y-117821491D01*
X151887886Y-117834016D01*
X151812568Y-117833028D01*
X151770460Y-117829060D01*
X151719667Y-117816945D01*
X151679068Y-117790610D01*
X151631837Y-117741539D01*
X151625526Y-117734371D01*
X151583065Y-117679214D01*
X151562806Y-117631175D01*
X151557634Y-117574209D01*
X151557634Y-117490496D01*
X151616134Y-117512577D01*
X151658782Y-117538389D01*
X151695852Y-117598953D01*
X151703591Y-117618345D01*
X151746862Y-117673260D01*
X151805764Y-117700904D01*
X151869899Y-117698418D01*
X151928865Y-117662948D01*
X151949130Y-117640830D01*
X151967508Y-117607461D01*
X151961759Y-117577142D01*
X151928675Y-117545938D01*
X151865049Y-117509912D01*
X151767673Y-117465128D01*
X151567403Y-117377470D01*
X151562089Y-117290632D01*
X151564087Y-117235321D01*
X151694571Y-117235321D01*
X151704476Y-117269563D01*
X151749544Y-117306121D01*
X151831345Y-117347717D01*
X151844880Y-117353743D01*
X151909606Y-117381778D01*
X151958035Y-117401497D01*
X151980539Y-117408948D01*
X151983949Y-117403463D01*
X151985317Y-117369973D01*
X151980439Y-117316141D01*
X151968152Y-117263498D01*
X151929829Y-117197176D01*
X151874508Y-117159805D01*
X151808428Y-117154746D01*
X151737828Y-117185364D01*
X151718262Y-117200673D01*
X151694571Y-117235321D01*
X151564087Y-117235321D01*
X151564435Y-117225688D01*
X151593974Y-117143615D01*
X151631260Y-117098386D01*
X151708564Y-117047863D01*
X151800266Y-117022341D01*
X151895062Y-117024361D01*
X151981647Y-117056465D01*
X152000708Y-117068792D01*
X152044428Y-117106937D01*
X152074328Y-117155192D01*
X152092756Y-117220735D01*
X152102058Y-117310745D01*
X152103287Y-117369973D01*
X152104582Y-117432401D01*
G37*
X154918189Y-117428487D02*
X154916627Y-117504677D01*
X154905598Y-117608532D01*
X154881602Y-117686358D01*
X154841831Y-117745785D01*
X154783476Y-117794443D01*
X154727888Y-117822571D01*
X154634539Y-117838224D01*
X154541318Y-117821109D01*
X154457060Y-117773413D01*
X154390606Y-117697319D01*
X154382581Y-117683287D01*
X154371984Y-117658704D01*
X154364123Y-117627334D01*
X154358595Y-117583794D01*
X154354994Y-117522703D01*
X154352916Y-117438680D01*
X154352852Y-117431225D01*
X154488403Y-117431225D01*
X154488865Y-117502341D01*
X154491787Y-117566666D01*
X154499009Y-117608191D01*
X154512349Y-117636092D01*
X154533624Y-117659542D01*
X154538609Y-117664050D01*
X154602651Y-117697320D01*
X154670413Y-117693915D01*
X154733522Y-117654067D01*
X154752314Y-117633423D01*
X154768042Y-117606054D01*
X154776827Y-117568217D01*
X154780647Y-117510380D01*
X154781480Y-117423011D01*
X154781069Y-117356344D01*
X154778222Y-117291270D01*
X154771044Y-117249276D01*
X154757677Y-117221088D01*
X154736260Y-117197431D01*
X154723678Y-117186778D01*
X154658487Y-117158082D01*
X154590188Y-117162600D01*
X154530886Y-117200169D01*
X154518121Y-117215065D01*
X154502552Y-117243114D01*
X154493550Y-117282283D01*
X154489405Y-117341883D01*
X154488403Y-117431225D01*
X154352852Y-117431225D01*
X154351955Y-117326345D01*
X154351707Y-117180314D01*
X154351634Y-116726988D01*
X154415134Y-116753589D01*
X154431924Y-116760870D01*
X154458647Y-116777312D01*
X154473944Y-116802212D01*
X154482351Y-116845757D01*
X154488403Y-116918131D01*
X154493932Y-116983114D01*
X154501238Y-117025775D01*
X154511706Y-117041695D01*
X154527480Y-117037425D01*
X154567678Y-117022422D01*
X154639516Y-117018703D01*
X154716798Y-117032597D01*
X154783476Y-117062530D01*
X154820159Y-117090236D01*
X154867260Y-117144294D01*
X154897426Y-117213602D01*
X154913466Y-117305790D01*
X154917979Y-117423011D01*
X154918189Y-117428487D01*
G36*
X154918189Y-117428487D02*
G01*
X154916627Y-117504677D01*
X154905598Y-117608532D01*
X154881602Y-117686358D01*
X154841831Y-117745785D01*
X154783476Y-117794443D01*
X154727888Y-117822571D01*
X154634539Y-117838224D01*
X154541318Y-117821109D01*
X154457060Y-117773413D01*
X154390606Y-117697319D01*
X154382581Y-117683287D01*
X154371984Y-117658704D01*
X154364123Y-117627334D01*
X154358595Y-117583794D01*
X154354994Y-117522703D01*
X154352916Y-117438680D01*
X154352852Y-117431225D01*
X154488403Y-117431225D01*
X154488865Y-117502341D01*
X154491787Y-117566666D01*
X154499009Y-117608191D01*
X154512349Y-117636092D01*
X154533624Y-117659542D01*
X154538609Y-117664050D01*
X154602651Y-117697320D01*
X154670413Y-117693915D01*
X154733522Y-117654067D01*
X154752314Y-117633423D01*
X154768042Y-117606054D01*
X154776827Y-117568217D01*
X154780647Y-117510380D01*
X154781480Y-117423011D01*
X154781069Y-117356344D01*
X154778222Y-117291270D01*
X154771044Y-117249276D01*
X154757677Y-117221088D01*
X154736260Y-117197431D01*
X154723678Y-117186778D01*
X154658487Y-117158082D01*
X154590188Y-117162600D01*
X154530886Y-117200169D01*
X154518121Y-117215065D01*
X154502552Y-117243114D01*
X154493550Y-117282283D01*
X154489405Y-117341883D01*
X154488403Y-117431225D01*
X154352852Y-117431225D01*
X154351955Y-117326345D01*
X154351707Y-117180314D01*
X154351634Y-116726988D01*
X154415134Y-116753589D01*
X154431924Y-116760870D01*
X154458647Y-116777312D01*
X154473944Y-116802212D01*
X154482351Y-116845757D01*
X154488403Y-116918131D01*
X154493932Y-116983114D01*
X154501238Y-117025775D01*
X154511706Y-117041695D01*
X154527480Y-117037425D01*
X154567678Y-117022422D01*
X154639516Y-117018703D01*
X154716798Y-117032597D01*
X154783476Y-117062530D01*
X154820159Y-117090236D01*
X154867260Y-117144294D01*
X154897426Y-117213602D01*
X154913466Y-117305790D01*
X154917979Y-117423011D01*
X154918189Y-117428487D01*
G37*
X158864575Y-117353561D02*
X158858362Y-117501668D01*
X158854854Y-117533046D01*
X158828715Y-117644730D01*
X158781482Y-117729667D01*
X158709650Y-117794766D01*
X158705590Y-117797453D01*
X158614275Y-117835659D01*
X158518932Y-117839059D01*
X158427062Y-117809964D01*
X158346167Y-117750685D01*
X158283750Y-117663535D01*
X158282702Y-117661434D01*
X158261961Y-117607314D01*
X158246768Y-117545806D01*
X158238709Y-117488064D01*
X158239370Y-117445240D01*
X158250336Y-117428487D01*
X158260078Y-117429505D01*
X158306665Y-117448034D01*
X158359470Y-117482106D01*
X158404391Y-117521547D01*
X158427323Y-117556180D01*
X158451161Y-117603158D01*
X158500018Y-117645887D01*
X158556751Y-117662948D01*
X158577546Y-117658015D01*
X158618592Y-117633182D01*
X158654345Y-117598710D01*
X158669634Y-117567436D01*
X158669630Y-117567320D01*
X158652283Y-117552958D01*
X158606035Y-117527050D01*
X158537855Y-117493235D01*
X158454711Y-117455154D01*
X158454254Y-117454952D01*
X158363926Y-117414734D01*
X158303380Y-117385758D01*
X158266676Y-117363499D01*
X158247874Y-117343432D01*
X158241034Y-117321034D01*
X158240217Y-117291781D01*
X158245901Y-117236388D01*
X158438788Y-117236388D01*
X158458699Y-117253802D01*
X158508309Y-117279897D01*
X158509764Y-117280635D01*
X158568294Y-117308508D01*
X158620656Y-117330744D01*
X158653874Y-117340151D01*
X158667198Y-117327577D01*
X158669634Y-117284493D01*
X158659512Y-117230872D01*
X158624419Y-117182144D01*
X158573611Y-117156881D01*
X158516969Y-117159431D01*
X158464372Y-117194145D01*
X158443698Y-117218132D01*
X158438788Y-117236388D01*
X158245901Y-117236388D01*
X158247410Y-117221679D01*
X158282972Y-117126437D01*
X158342502Y-117051592D01*
X158419534Y-116999770D01*
X158507603Y-116973598D01*
X158600242Y-116975701D01*
X158690986Y-117008706D01*
X158773367Y-117075240D01*
X158819010Y-117141080D01*
X158851796Y-117235061D01*
X158857127Y-117284493D01*
X158864575Y-117353561D01*
G36*
X158864575Y-117353561D02*
G01*
X158858362Y-117501668D01*
X158854854Y-117533046D01*
X158828715Y-117644730D01*
X158781482Y-117729667D01*
X158709650Y-117794766D01*
X158705590Y-117797453D01*
X158614275Y-117835659D01*
X158518932Y-117839059D01*
X158427062Y-117809964D01*
X158346167Y-117750685D01*
X158283750Y-117663535D01*
X158282702Y-117661434D01*
X158261961Y-117607314D01*
X158246768Y-117545806D01*
X158238709Y-117488064D01*
X158239370Y-117445240D01*
X158250336Y-117428487D01*
X158260078Y-117429505D01*
X158306665Y-117448034D01*
X158359470Y-117482106D01*
X158404391Y-117521547D01*
X158427323Y-117556180D01*
X158451161Y-117603158D01*
X158500018Y-117645887D01*
X158556751Y-117662948D01*
X158577546Y-117658015D01*
X158618592Y-117633182D01*
X158654345Y-117598710D01*
X158669634Y-117567436D01*
X158669630Y-117567320D01*
X158652283Y-117552958D01*
X158606035Y-117527050D01*
X158537855Y-117493235D01*
X158454711Y-117455154D01*
X158454254Y-117454952D01*
X158363926Y-117414734D01*
X158303380Y-117385758D01*
X158266676Y-117363499D01*
X158247874Y-117343432D01*
X158241034Y-117321034D01*
X158240217Y-117291781D01*
X158245901Y-117236388D01*
X158438788Y-117236388D01*
X158458699Y-117253802D01*
X158508309Y-117279897D01*
X158509764Y-117280635D01*
X158568294Y-117308508D01*
X158620656Y-117330744D01*
X158653874Y-117340151D01*
X158667198Y-117327577D01*
X158669634Y-117284493D01*
X158659512Y-117230872D01*
X158624419Y-117182144D01*
X158573611Y-117156881D01*
X158516969Y-117159431D01*
X158464372Y-117194145D01*
X158443698Y-117218132D01*
X158438788Y-117236388D01*
X158245901Y-117236388D01*
X158247410Y-117221679D01*
X158282972Y-117126437D01*
X158342502Y-117051592D01*
X158419534Y-116999770D01*
X158507603Y-116973598D01*
X158600242Y-116975701D01*
X158690986Y-117008706D01*
X158773367Y-117075240D01*
X158819010Y-117141080D01*
X158851796Y-117235061D01*
X158857127Y-117284493D01*
X158864575Y-117353561D01*
G37*
X156074246Y-117039253D02*
X156141410Y-117078414D01*
X156170957Y-117108927D01*
X156227736Y-117200135D01*
X156246865Y-117299573D01*
X156246865Y-117367985D01*
X156183979Y-117341543D01*
X156140488Y-117314862D01*
X156106214Y-117259471D01*
X156102695Y-117248049D01*
X156064816Y-117189863D01*
X156007724Y-117158432D01*
X155942171Y-117157083D01*
X155878905Y-117189141D01*
X155869460Y-117197408D01*
X155837875Y-117233336D01*
X155832659Y-117264660D01*
X155856553Y-117295416D01*
X155912298Y-117329642D01*
X156002634Y-117371375D01*
X156008744Y-117374018D01*
X156109029Y-117420780D01*
X156177523Y-117462206D01*
X156219687Y-117503567D01*
X156240981Y-117550136D01*
X156246865Y-117607185D01*
X156239154Y-117670433D01*
X156200218Y-117751389D01*
X156131720Y-117809547D01*
X156082176Y-117827008D01*
X156012257Y-117836562D01*
X155944363Y-117834521D01*
X155895881Y-117820107D01*
X155890731Y-117816518D01*
X155877055Y-117791441D01*
X155886545Y-117747243D01*
X155903034Y-117712552D01*
X155929475Y-117698109D01*
X155979622Y-117698828D01*
X156049241Y-117694685D01*
X156094731Y-117666079D01*
X156110096Y-117613129D01*
X156110082Y-117611607D01*
X156100771Y-117580870D01*
X156069099Y-117552668D01*
X156007519Y-117520161D01*
X155923774Y-117481023D01*
X155868306Y-117459731D01*
X155836285Y-117461104D01*
X155821322Y-117489228D01*
X155817030Y-117548195D01*
X155817019Y-117642093D01*
X155816540Y-117700056D01*
X155814344Y-117771637D01*
X155810774Y-117820631D01*
X155806279Y-117838794D01*
X155805078Y-117838671D01*
X155779107Y-117828827D01*
X155736093Y-117808053D01*
X155676647Y-117777312D01*
X155683711Y-117500323D01*
X155684202Y-117481953D01*
X155689813Y-117353017D01*
X155699726Y-117255839D01*
X155715963Y-117183950D01*
X155740547Y-117130877D01*
X155775503Y-117090152D01*
X155822852Y-117055304D01*
X155823728Y-117054758D01*
X155900287Y-117026328D01*
X155988832Y-117021525D01*
X156074246Y-117039253D01*
G36*
X156074246Y-117039253D02*
G01*
X156141410Y-117078414D01*
X156170957Y-117108927D01*
X156227736Y-117200135D01*
X156246865Y-117299573D01*
X156246865Y-117367985D01*
X156183979Y-117341543D01*
X156140488Y-117314862D01*
X156106214Y-117259471D01*
X156102695Y-117248049D01*
X156064816Y-117189863D01*
X156007724Y-117158432D01*
X155942171Y-117157083D01*
X155878905Y-117189141D01*
X155869460Y-117197408D01*
X155837875Y-117233336D01*
X155832659Y-117264660D01*
X155856553Y-117295416D01*
X155912298Y-117329642D01*
X156002634Y-117371375D01*
X156008744Y-117374018D01*
X156109029Y-117420780D01*
X156177523Y-117462206D01*
X156219687Y-117503567D01*
X156240981Y-117550136D01*
X156246865Y-117607185D01*
X156239154Y-117670433D01*
X156200218Y-117751389D01*
X156131720Y-117809547D01*
X156082176Y-117827008D01*
X156012257Y-117836562D01*
X155944363Y-117834521D01*
X155895881Y-117820107D01*
X155890731Y-117816518D01*
X155877055Y-117791441D01*
X155886545Y-117747243D01*
X155903034Y-117712552D01*
X155929475Y-117698109D01*
X155979622Y-117698828D01*
X156049241Y-117694685D01*
X156094731Y-117666079D01*
X156110096Y-117613129D01*
X156110082Y-117611607D01*
X156100771Y-117580870D01*
X156069099Y-117552668D01*
X156007519Y-117520161D01*
X155923774Y-117481023D01*
X155868306Y-117459731D01*
X155836285Y-117461104D01*
X155821322Y-117489228D01*
X155817030Y-117548195D01*
X155817019Y-117642093D01*
X155816540Y-117700056D01*
X155814344Y-117771637D01*
X155810774Y-117820631D01*
X155806279Y-117838794D01*
X155805078Y-117838671D01*
X155779107Y-117828827D01*
X155736093Y-117808053D01*
X155676647Y-117777312D01*
X155683711Y-117500323D01*
X155684202Y-117481953D01*
X155689813Y-117353017D01*
X155699726Y-117255839D01*
X155715963Y-117183950D01*
X155740547Y-117130877D01*
X155775503Y-117090152D01*
X155822852Y-117055304D01*
X155823728Y-117054758D01*
X155900287Y-117026328D01*
X155988832Y-117021525D01*
X156074246Y-117039253D01*
G37*
X153217724Y-117019936D02*
X153259595Y-117030572D01*
X153298579Y-117057087D01*
X153348753Y-117106445D01*
X153381020Y-117141304D01*
X153414632Y-117186559D01*
X153429791Y-117228976D01*
X153433327Y-117282793D01*
X153433327Y-117370875D01*
X153373258Y-117339812D01*
X153325655Y-117301961D01*
X153293049Y-117250975D01*
X153287449Y-117237113D01*
X153244780Y-117183383D01*
X153185495Y-117156442D01*
X153120849Y-117159064D01*
X153062096Y-117194025D01*
X153037238Y-117222419D01*
X153022758Y-117258743D01*
X153038258Y-117291071D01*
X153086455Y-117323590D01*
X153170062Y-117360486D01*
X153182750Y-117365582D01*
X153258866Y-117398932D01*
X153324184Y-117431818D01*
X153365741Y-117457794D01*
X153407364Y-117504192D01*
X153435035Y-117578236D01*
X153432098Y-117657695D01*
X153399359Y-117732893D01*
X153337629Y-117794156D01*
X153287646Y-117820235D01*
X153191091Y-117838495D01*
X153137435Y-117836032D01*
X153087764Y-117822712D01*
X153068707Y-117794764D01*
X153075833Y-117748735D01*
X153077906Y-117742649D01*
X153094344Y-117710374D01*
X153121714Y-117698158D01*
X153173856Y-117698975D01*
X153210672Y-117700086D01*
X153253749Y-117690553D01*
X153283263Y-117662051D01*
X153300074Y-117626960D01*
X153301949Y-117590200D01*
X153301862Y-117589986D01*
X153280067Y-117570123D01*
X153233420Y-117541217D01*
X153173066Y-117508911D01*
X153110148Y-117478848D01*
X153055811Y-117456671D01*
X153021198Y-117448025D01*
X153016048Y-117456492D01*
X153009566Y-117496334D01*
X153005127Y-117561396D01*
X153003480Y-117643410D01*
X153003097Y-117700178D01*
X153001293Y-117771673D01*
X152998346Y-117820635D01*
X152994631Y-117838794D01*
X152975212Y-117832692D01*
X152936015Y-117816120D01*
X152886250Y-117793445D01*
X152886250Y-117502534D01*
X152886568Y-117427965D01*
X152889577Y-117314726D01*
X152897242Y-117230717D01*
X152911350Y-117169545D01*
X152933687Y-117124820D01*
X152966041Y-117090149D01*
X153010198Y-117059142D01*
X153066455Y-117033553D01*
X153170328Y-117018179D01*
X153217724Y-117019936D01*
G36*
X153217724Y-117019936D02*
G01*
X153259595Y-117030572D01*
X153298579Y-117057087D01*
X153348753Y-117106445D01*
X153381020Y-117141304D01*
X153414632Y-117186559D01*
X153429791Y-117228976D01*
X153433327Y-117282793D01*
X153433327Y-117370875D01*
X153373258Y-117339812D01*
X153325655Y-117301961D01*
X153293049Y-117250975D01*
X153287449Y-117237113D01*
X153244780Y-117183383D01*
X153185495Y-117156442D01*
X153120849Y-117159064D01*
X153062096Y-117194025D01*
X153037238Y-117222419D01*
X153022758Y-117258743D01*
X153038258Y-117291071D01*
X153086455Y-117323590D01*
X153170062Y-117360486D01*
X153182750Y-117365582D01*
X153258866Y-117398932D01*
X153324184Y-117431818D01*
X153365741Y-117457794D01*
X153407364Y-117504192D01*
X153435035Y-117578236D01*
X153432098Y-117657695D01*
X153399359Y-117732893D01*
X153337629Y-117794156D01*
X153287646Y-117820235D01*
X153191091Y-117838495D01*
X153137435Y-117836032D01*
X153087764Y-117822712D01*
X153068707Y-117794764D01*
X153075833Y-117748735D01*
X153077906Y-117742649D01*
X153094344Y-117710374D01*
X153121714Y-117698158D01*
X153173856Y-117698975D01*
X153210672Y-117700086D01*
X153253749Y-117690553D01*
X153283263Y-117662051D01*
X153300074Y-117626960D01*
X153301949Y-117590200D01*
X153301862Y-117589986D01*
X153280067Y-117570123D01*
X153233420Y-117541217D01*
X153173066Y-117508911D01*
X153110148Y-117478848D01*
X153055811Y-117456671D01*
X153021198Y-117448025D01*
X153016048Y-117456492D01*
X153009566Y-117496334D01*
X153005127Y-117561396D01*
X153003480Y-117643410D01*
X153003097Y-117700178D01*
X153001293Y-117771673D01*
X152998346Y-117820635D01*
X152994631Y-117838794D01*
X152975212Y-117832692D01*
X152936015Y-117816120D01*
X152886250Y-117793445D01*
X152886250Y-117502534D01*
X152886568Y-117427965D01*
X152889577Y-117314726D01*
X152897242Y-117230717D01*
X152911350Y-117169545D01*
X152933687Y-117124820D01*
X152966041Y-117090149D01*
X153010198Y-117059142D01*
X153066455Y-117033553D01*
X153170328Y-117018179D01*
X153217724Y-117019936D01*
G37*
X159601616Y-117498230D02*
X159603551Y-117648294D01*
X159604088Y-117691827D01*
X159605807Y-117837369D01*
X159606153Y-117948736D01*
X159604065Y-118029829D01*
X159598486Y-118084547D01*
X159588355Y-118116786D01*
X159572614Y-118130447D01*
X159550205Y-118129428D01*
X159520068Y-118117628D01*
X159481143Y-118098945D01*
X159472826Y-118094958D01*
X159438190Y-118075444D01*
X159420102Y-118052227D01*
X159413180Y-118013517D01*
X159412044Y-117947522D01*
X159411993Y-117829025D01*
X159289929Y-117829025D01*
X159214843Y-117825737D01*
X159155803Y-117812402D01*
X159106774Y-117785448D01*
X159103118Y-117782813D01*
X159053369Y-117738311D01*
X159018747Y-117684548D01*
X158996911Y-117614179D01*
X158985525Y-117519855D01*
X158982747Y-117413296D01*
X159177634Y-117413296D01*
X159177668Y-117431156D01*
X159179523Y-117511773D01*
X159185481Y-117564472D01*
X159197294Y-117598693D01*
X159216711Y-117623871D01*
X159217921Y-117625074D01*
X159265646Y-117657653D01*
X159311898Y-117654442D01*
X159364138Y-117614990D01*
X159376916Y-117601507D01*
X159395737Y-117573862D01*
X159406350Y-117537905D01*
X159411040Y-117483389D01*
X159412096Y-117400067D01*
X159411182Y-117349623D01*
X159401265Y-117257882D01*
X159378630Y-117197777D01*
X159341026Y-117164925D01*
X159286204Y-117154948D01*
X159263105Y-117157075D01*
X159223138Y-117178172D01*
X159196714Y-117225186D01*
X159182118Y-117302200D01*
X159177634Y-117413296D01*
X158982747Y-117413296D01*
X158982250Y-117394231D01*
X158982975Y-117302561D01*
X158986278Y-117233123D01*
X158993616Y-117184970D01*
X159006443Y-117148891D01*
X159026211Y-117115673D01*
X159044357Y-117090286D01*
X159110249Y-117021752D01*
X159184902Y-116984530D01*
X159278692Y-116972747D01*
X159386028Y-116984492D01*
X159478819Y-117026620D01*
X159552209Y-117100923D01*
X159557742Y-117108789D01*
X159570645Y-117129693D01*
X159580530Y-117153580D01*
X159587881Y-117185607D01*
X159593182Y-117230930D01*
X159596915Y-117294704D01*
X159599566Y-117382085D01*
X159599884Y-117400067D01*
X159601616Y-117498230D01*
G36*
X159601616Y-117498230D02*
G01*
X159603551Y-117648294D01*
X159604088Y-117691827D01*
X159605807Y-117837369D01*
X159606153Y-117948736D01*
X159604065Y-118029829D01*
X159598486Y-118084547D01*
X159588355Y-118116786D01*
X159572614Y-118130447D01*
X159550205Y-118129428D01*
X159520068Y-118117628D01*
X159481143Y-118098945D01*
X159472826Y-118094958D01*
X159438190Y-118075444D01*
X159420102Y-118052227D01*
X159413180Y-118013517D01*
X159412044Y-117947522D01*
X159411993Y-117829025D01*
X159289929Y-117829025D01*
X159214843Y-117825737D01*
X159155803Y-117812402D01*
X159106774Y-117785448D01*
X159103118Y-117782813D01*
X159053369Y-117738311D01*
X159018747Y-117684548D01*
X158996911Y-117614179D01*
X158985525Y-117519855D01*
X158982747Y-117413296D01*
X159177634Y-117413296D01*
X159177668Y-117431156D01*
X159179523Y-117511773D01*
X159185481Y-117564472D01*
X159197294Y-117598693D01*
X159216711Y-117623871D01*
X159217921Y-117625074D01*
X159265646Y-117657653D01*
X159311898Y-117654442D01*
X159364138Y-117614990D01*
X159376916Y-117601507D01*
X159395737Y-117573862D01*
X159406350Y-117537905D01*
X159411040Y-117483389D01*
X159412096Y-117400067D01*
X159411182Y-117349623D01*
X159401265Y-117257882D01*
X159378630Y-117197777D01*
X159341026Y-117164925D01*
X159286204Y-117154948D01*
X159263105Y-117157075D01*
X159223138Y-117178172D01*
X159196714Y-117225186D01*
X159182118Y-117302200D01*
X159177634Y-117413296D01*
X158982747Y-117413296D01*
X158982250Y-117394231D01*
X158982975Y-117302561D01*
X158986278Y-117233123D01*
X158993616Y-117184970D01*
X159006443Y-117148891D01*
X159026211Y-117115673D01*
X159044357Y-117090286D01*
X159110249Y-117021752D01*
X159184902Y-116984530D01*
X159278692Y-116972747D01*
X159386028Y-116984492D01*
X159478819Y-117026620D01*
X159552209Y-117100923D01*
X159557742Y-117108789D01*
X159570645Y-117129693D01*
X159580530Y-117153580D01*
X159587881Y-117185607D01*
X159593182Y-117230930D01*
X159596915Y-117294704D01*
X159599566Y-117382085D01*
X159599884Y-117400067D01*
X159601616Y-117498230D01*
G37*
X155971363Y-110687718D02*
X156107159Y-110687832D01*
X156209364Y-110688497D01*
X156282910Y-110690207D01*
X156332730Y-110693454D01*
X156363755Y-110698731D01*
X156380917Y-110706532D01*
X156389149Y-110717350D01*
X156393382Y-110731679D01*
X156393504Y-110732193D01*
X156400460Y-110765876D01*
X156413108Y-110830942D01*
X156430148Y-110920567D01*
X156450284Y-111027929D01*
X156472217Y-111146203D01*
X156474006Y-111155881D01*
X156495871Y-111270675D01*
X156516218Y-111371505D01*
X156533722Y-111452242D01*
X156547059Y-111506759D01*
X156554904Y-111528926D01*
X156554946Y-111528961D01*
X156579672Y-111541225D01*
X156630419Y-111561601D01*
X156696250Y-111585699D01*
X156699957Y-111587008D01*
X156784119Y-111618816D01*
X156882018Y-111658710D01*
X156973223Y-111698378D01*
X157123195Y-111766445D01*
X157455287Y-111539664D01*
X157478677Y-111523713D01*
X157578868Y-111455915D01*
X157668268Y-111396233D01*
X157741533Y-111348181D01*
X157793315Y-111315275D01*
X157818268Y-111301029D01*
X157835365Y-111304295D01*
X157874183Y-111329596D01*
X157934173Y-111379700D01*
X158016998Y-111456014D01*
X158124323Y-111559947D01*
X158133927Y-111569407D01*
X158219090Y-111654170D01*
X158294737Y-111730962D01*
X158356237Y-111794972D01*
X158398961Y-111841386D01*
X158418277Y-111865394D01*
X158418340Y-111865510D01*
X158420794Y-111883788D01*
X158411744Y-111913436D01*
X158388907Y-111958511D01*
X158350001Y-112023069D01*
X158292742Y-112111165D01*
X158214847Y-112226855D01*
X158201573Y-112246382D01*
X158134440Y-112345303D01*
X158075198Y-112432873D01*
X158027376Y-112503856D01*
X157994503Y-112553016D01*
X157980106Y-112575120D01*
X157979020Y-112579802D01*
X157985832Y-112614735D01*
X158006238Y-112671778D01*
X158036911Y-112741197D01*
X158078596Y-112831984D01*
X158125140Y-112939711D01*
X158164665Y-113037217D01*
X158174464Y-113062455D01*
X158200128Y-113126895D01*
X158218981Y-113171788D01*
X158227498Y-113188641D01*
X158236899Y-113189900D01*
X158279151Y-113197184D01*
X158348309Y-113209764D01*
X158437175Y-113226271D01*
X158538556Y-113245337D01*
X158645255Y-113265594D01*
X158750076Y-113285672D01*
X158845824Y-113304204D01*
X158925304Y-113319820D01*
X158981318Y-113331152D01*
X159006673Y-113336832D01*
X159010876Y-113338433D01*
X159021122Y-113347070D01*
X159028745Y-113365458D01*
X159034126Y-113398485D01*
X159037647Y-113451038D01*
X159039689Y-113528004D01*
X159040635Y-113634271D01*
X159040865Y-113774726D01*
X159040865Y-114201870D01*
X158938288Y-114222116D01*
X158925880Y-114224543D01*
X158859987Y-114237113D01*
X158768872Y-114254195D01*
X158662892Y-114273854D01*
X158552403Y-114294157D01*
X158508893Y-114302324D01*
X158411670Y-114322192D01*
X158330646Y-114340979D01*
X158273265Y-114356884D01*
X158246975Y-114368104D01*
X158235061Y-114386436D01*
X158213371Y-114434941D01*
X158191183Y-114497717D01*
X158183373Y-114521225D01*
X158154623Y-114598391D01*
X158117540Y-114689719D01*
X158078163Y-114780118D01*
X158057103Y-114827335D01*
X158027099Y-114897862D01*
X158006480Y-114950680D01*
X157998814Y-114976937D01*
X157999240Y-114978919D01*
X158013781Y-115006776D01*
X158046571Y-115060535D01*
X158094281Y-115134988D01*
X158153586Y-115224922D01*
X158221157Y-115325129D01*
X158443501Y-115651441D01*
X158151389Y-115944041D01*
X158123137Y-115972196D01*
X158036749Y-116056474D01*
X157959544Y-116129153D01*
X157896046Y-116186137D01*
X157850778Y-116223332D01*
X157828262Y-116236641D01*
X157803811Y-116226515D01*
X157752607Y-116197446D01*
X157680535Y-116152921D01*
X157593248Y-116096436D01*
X157496400Y-116031487D01*
X157401274Y-115967339D01*
X157315457Y-115910852D01*
X157245440Y-115866209D01*
X157196664Y-115836880D01*
X157174571Y-115826333D01*
X157173276Y-115826429D01*
X157143927Y-115836827D01*
X157091881Y-115861037D01*
X157027496Y-115894274D01*
X157026820Y-115894638D01*
X156941309Y-115937466D01*
X156882714Y-115958390D01*
X156846359Y-115958448D01*
X156827563Y-115938679D01*
X156819607Y-115919220D01*
X156798135Y-115867105D01*
X156765061Y-115786989D01*
X156722144Y-115683132D01*
X156671144Y-115559792D01*
X156613821Y-115421226D01*
X156551934Y-115271695D01*
X156495840Y-115135661D01*
X156438765Y-114996075D01*
X156388267Y-114871340D01*
X156346042Y-114765697D01*
X156313783Y-114683390D01*
X156293185Y-114628660D01*
X156285942Y-114605751D01*
X156299774Y-114584743D01*
X156338200Y-114549667D01*
X156392595Y-114508912D01*
X156523183Y-114402292D01*
X156640048Y-114266050D01*
X156725568Y-114116143D01*
X156779219Y-113956996D01*
X156800472Y-113793037D01*
X156788802Y-113628692D01*
X156743682Y-113468386D01*
X156664585Y-113316545D01*
X156550985Y-113177597D01*
X156491753Y-113123485D01*
X156349842Y-113027807D01*
X156197994Y-112965430D01*
X156040649Y-112934869D01*
X155882244Y-112934640D01*
X155727217Y-112963257D01*
X155580008Y-113019235D01*
X155445054Y-113101089D01*
X155326793Y-113207334D01*
X155229665Y-113336484D01*
X155158106Y-113487056D01*
X155116557Y-113657564D01*
X155108931Y-113739747D01*
X155119422Y-113917800D01*
X155166670Y-114086729D01*
X155249277Y-114243547D01*
X155365847Y-114385270D01*
X155514981Y-114508912D01*
X155567349Y-114548007D01*
X155606620Y-114583468D01*
X155621634Y-114605717D01*
X155615647Y-114625113D01*
X155596220Y-114677084D01*
X155564982Y-114757027D01*
X155523627Y-114860698D01*
X155473849Y-114983857D01*
X155417341Y-115122259D01*
X155355797Y-115271662D01*
X155299796Y-115407045D01*
X155241972Y-115546877D01*
X155190288Y-115671897D01*
X155146506Y-115777847D01*
X155112385Y-115860466D01*
X155089686Y-115915497D01*
X155080168Y-115938679D01*
X155080057Y-115938953D01*
X155061016Y-115958528D01*
X155024482Y-115958304D01*
X154965742Y-115937235D01*
X154880080Y-115894274D01*
X154873337Y-115890656D01*
X154809726Y-115858112D01*
X154759495Y-115835075D01*
X154733006Y-115826333D01*
X154711294Y-115836664D01*
X154662772Y-115865813D01*
X154592951Y-115910312D01*
X154507272Y-115966693D01*
X154411176Y-116031487D01*
X154316494Y-116095009D01*
X154228920Y-116151730D01*
X154156430Y-116196572D01*
X154104677Y-116226041D01*
X154079314Y-116236641D01*
X154074994Y-116235295D01*
X154044880Y-116214081D01*
X153993428Y-116170262D01*
X153925163Y-116107934D01*
X153844608Y-116031195D01*
X153756288Y-115944141D01*
X153464276Y-115651642D01*
X153919148Y-114982550D01*
X153849996Y-114832941D01*
X153849791Y-114832498D01*
X153808265Y-114737126D01*
X153765832Y-114630921D01*
X153731646Y-114536794D01*
X153726472Y-114521613D01*
X153700389Y-114451134D01*
X153676869Y-114396367D01*
X153660465Y-114368104D01*
X153653784Y-114364113D01*
X153613680Y-114350722D01*
X153545583Y-114333398D01*
X153456933Y-114313942D01*
X153355173Y-114294157D01*
X153324692Y-114288576D01*
X153214416Y-114268258D01*
X153111519Y-114249120D01*
X153026357Y-114233095D01*
X152969288Y-114222116D01*
X152866711Y-114201870D01*
X152866711Y-113774726D01*
X152866734Y-113722205D01*
X152867167Y-113594072D01*
X152868447Y-113498445D01*
X152870956Y-113430436D01*
X152875074Y-113385158D01*
X152881183Y-113357722D01*
X152889666Y-113343243D01*
X152900903Y-113336832D01*
X152911782Y-113334234D01*
X152956135Y-113325047D01*
X153026894Y-113311016D01*
X153116862Y-113293511D01*
X153218844Y-113273899D01*
X153325645Y-113253550D01*
X153430069Y-113233832D01*
X153524920Y-113216114D01*
X153603002Y-113201763D01*
X153657120Y-113192149D01*
X153680079Y-113188641D01*
X153681630Y-113186522D01*
X153694113Y-113159031D01*
X153715715Y-113106431D01*
X153742911Y-113037217D01*
X153780654Y-112943962D01*
X153827116Y-112836184D01*
X153870666Y-112741197D01*
X153880646Y-112719876D01*
X153908650Y-112653111D01*
X153925429Y-112601615D01*
X153927642Y-112575120D01*
X153926501Y-112573243D01*
X153908372Y-112545590D01*
X153872432Y-112491874D01*
X153822206Y-112417328D01*
X153761218Y-112327187D01*
X153692993Y-112226682D01*
X153616118Y-112112495D01*
X153558451Y-112023795D01*
X153519214Y-111958746D01*
X153496138Y-111913320D01*
X153486954Y-111883488D01*
X153489392Y-111865220D01*
X153490212Y-111863850D01*
X153512265Y-111837230D01*
X153557224Y-111788722D01*
X153620461Y-111723133D01*
X153697347Y-111645272D01*
X153783253Y-111559947D01*
X153872367Y-111473359D01*
X153959660Y-111391972D01*
X154023806Y-111337060D01*
X154066467Y-111307215D01*
X154089309Y-111301029D01*
X154092293Y-111302419D01*
X154123724Y-111321152D01*
X154180785Y-111357758D01*
X154258131Y-111408722D01*
X154350414Y-111470529D01*
X154452290Y-111539664D01*
X154784381Y-111766445D01*
X154934354Y-111698378D01*
X154938711Y-111696406D01*
X155030788Y-111656516D01*
X155128471Y-111616843D01*
X155211327Y-111585699D01*
X155211693Y-111585570D01*
X155277473Y-111561481D01*
X155328111Y-111541135D01*
X155352672Y-111528926D01*
X155353070Y-111528483D01*
X155361407Y-111503481D01*
X155375129Y-111446623D01*
X155392911Y-111364039D01*
X155413429Y-111261856D01*
X155435359Y-111146203D01*
X155436124Y-111142058D01*
X155458017Y-111024044D01*
X155478069Y-110917176D01*
X155494980Y-110828277D01*
X155507455Y-110764170D01*
X155514194Y-110731679D01*
X155514625Y-110729878D01*
X155519061Y-110715969D01*
X155528051Y-110705514D01*
X155546525Y-110698021D01*
X155579416Y-110692997D01*
X155631656Y-110689947D01*
X155708176Y-110688380D01*
X155813910Y-110687801D01*
X155953788Y-110687717D01*
X155971363Y-110687718D01*
G36*
X155971363Y-110687718D02*
G01*
X156107159Y-110687832D01*
X156209364Y-110688497D01*
X156282910Y-110690207D01*
X156332730Y-110693454D01*
X156363755Y-110698731D01*
X156380917Y-110706532D01*
X156389149Y-110717350D01*
X156393382Y-110731679D01*
X156393504Y-110732193D01*
X156400460Y-110765876D01*
X156413108Y-110830942D01*
X156430148Y-110920567D01*
X156450284Y-111027929D01*
X156472217Y-111146203D01*
X156474006Y-111155881D01*
X156495871Y-111270675D01*
X156516218Y-111371505D01*
X156533722Y-111452242D01*
X156547059Y-111506759D01*
X156554904Y-111528926D01*
X156554946Y-111528961D01*
X156579672Y-111541225D01*
X156630419Y-111561601D01*
X156696250Y-111585699D01*
X156699957Y-111587008D01*
X156784119Y-111618816D01*
X156882018Y-111658710D01*
X156973223Y-111698378D01*
X157123195Y-111766445D01*
X157455287Y-111539664D01*
X157478677Y-111523713D01*
X157578868Y-111455915D01*
X157668268Y-111396233D01*
X157741533Y-111348181D01*
X157793315Y-111315275D01*
X157818268Y-111301029D01*
X157835365Y-111304295D01*
X157874183Y-111329596D01*
X157934173Y-111379700D01*
X158016998Y-111456014D01*
X158124323Y-111559947D01*
X158133927Y-111569407D01*
X158219090Y-111654170D01*
X158294737Y-111730962D01*
X158356237Y-111794972D01*
X158398961Y-111841386D01*
X158418277Y-111865394D01*
X158418340Y-111865510D01*
X158420794Y-111883788D01*
X158411744Y-111913436D01*
X158388907Y-111958511D01*
X158350001Y-112023069D01*
X158292742Y-112111165D01*
X158214847Y-112226855D01*
X158201573Y-112246382D01*
X158134440Y-112345303D01*
X158075198Y-112432873D01*
X158027376Y-112503856D01*
X157994503Y-112553016D01*
X157980106Y-112575120D01*
X157979020Y-112579802D01*
X157985832Y-112614735D01*
X158006238Y-112671778D01*
X158036911Y-112741197D01*
X158078596Y-112831984D01*
X158125140Y-112939711D01*
X158164665Y-113037217D01*
X158174464Y-113062455D01*
X158200128Y-113126895D01*
X158218981Y-113171788D01*
X158227498Y-113188641D01*
X158236899Y-113189900D01*
X158279151Y-113197184D01*
X158348309Y-113209764D01*
X158437175Y-113226271D01*
X158538556Y-113245337D01*
X158645255Y-113265594D01*
X158750076Y-113285672D01*
X158845824Y-113304204D01*
X158925304Y-113319820D01*
X158981318Y-113331152D01*
X159006673Y-113336832D01*
X159010876Y-113338433D01*
X159021122Y-113347070D01*
X159028745Y-113365458D01*
X159034126Y-113398485D01*
X159037647Y-113451038D01*
X159039689Y-113528004D01*
X159040635Y-113634271D01*
X159040865Y-113774726D01*
X159040865Y-114201870D01*
X158938288Y-114222116D01*
X158925880Y-114224543D01*
X158859987Y-114237113D01*
X158768872Y-114254195D01*
X158662892Y-114273854D01*
X158552403Y-114294157D01*
X158508893Y-114302324D01*
X158411670Y-114322192D01*
X158330646Y-114340979D01*
X158273265Y-114356884D01*
X158246975Y-114368104D01*
X158235061Y-114386436D01*
X158213371Y-114434941D01*
X158191183Y-114497717D01*
X158183373Y-114521225D01*
X158154623Y-114598391D01*
X158117540Y-114689719D01*
X158078163Y-114780118D01*
X158057103Y-114827335D01*
X158027099Y-114897862D01*
X158006480Y-114950680D01*
X157998814Y-114976937D01*
X157999240Y-114978919D01*
X158013781Y-115006776D01*
X158046571Y-115060535D01*
X158094281Y-115134988D01*
X158153586Y-115224922D01*
X158221157Y-115325129D01*
X158443501Y-115651441D01*
X158151389Y-115944041D01*
X158123137Y-115972196D01*
X158036749Y-116056474D01*
X157959544Y-116129153D01*
X157896046Y-116186137D01*
X157850778Y-116223332D01*
X157828262Y-116236641D01*
X157803811Y-116226515D01*
X157752607Y-116197446D01*
X157680535Y-116152921D01*
X157593248Y-116096436D01*
X157496400Y-116031487D01*
X157401274Y-115967339D01*
X157315457Y-115910852D01*
X157245440Y-115866209D01*
X157196664Y-115836880D01*
X157174571Y-115826333D01*
X157173276Y-115826429D01*
X157143927Y-115836827D01*
X157091881Y-115861037D01*
X157027496Y-115894274D01*
X157026820Y-115894638D01*
X156941309Y-115937466D01*
X156882714Y-115958390D01*
X156846359Y-115958448D01*
X156827563Y-115938679D01*
X156819607Y-115919220D01*
X156798135Y-115867105D01*
X156765061Y-115786989D01*
X156722144Y-115683132D01*
X156671144Y-115559792D01*
X156613821Y-115421226D01*
X156551934Y-115271695D01*
X156495840Y-115135661D01*
X156438765Y-114996075D01*
X156388267Y-114871340D01*
X156346042Y-114765697D01*
X156313783Y-114683390D01*
X156293185Y-114628660D01*
X156285942Y-114605751D01*
X156299774Y-114584743D01*
X156338200Y-114549667D01*
X156392595Y-114508912D01*
X156523183Y-114402292D01*
X156640048Y-114266050D01*
X156725568Y-114116143D01*
X156779219Y-113956996D01*
X156800472Y-113793037D01*
X156788802Y-113628692D01*
X156743682Y-113468386D01*
X156664585Y-113316545D01*
X156550985Y-113177597D01*
X156491753Y-113123485D01*
X156349842Y-113027807D01*
X156197994Y-112965430D01*
X156040649Y-112934869D01*
X155882244Y-112934640D01*
X155727217Y-112963257D01*
X155580008Y-113019235D01*
X155445054Y-113101089D01*
X155326793Y-113207334D01*
X155229665Y-113336484D01*
X155158106Y-113487056D01*
X155116557Y-113657564D01*
X155108931Y-113739747D01*
X155119422Y-113917800D01*
X155166670Y-114086729D01*
X155249277Y-114243547D01*
X155365847Y-114385270D01*
X155514981Y-114508912D01*
X155567349Y-114548007D01*
X155606620Y-114583468D01*
X155621634Y-114605717D01*
X155615647Y-114625113D01*
X155596220Y-114677084D01*
X155564982Y-114757027D01*
X155523627Y-114860698D01*
X155473849Y-114983857D01*
X155417341Y-115122259D01*
X155355797Y-115271662D01*
X155299796Y-115407045D01*
X155241972Y-115546877D01*
X155190288Y-115671897D01*
X155146506Y-115777847D01*
X155112385Y-115860466D01*
X155089686Y-115915497D01*
X155080168Y-115938679D01*
X155080057Y-115938953D01*
X155061016Y-115958528D01*
X155024482Y-115958304D01*
X154965742Y-115937235D01*
X154880080Y-115894274D01*
X154873337Y-115890656D01*
X154809726Y-115858112D01*
X154759495Y-115835075D01*
X154733006Y-115826333D01*
X154711294Y-115836664D01*
X154662772Y-115865813D01*
X154592951Y-115910312D01*
X154507272Y-115966693D01*
X154411176Y-116031487D01*
X154316494Y-116095009D01*
X154228920Y-116151730D01*
X154156430Y-116196572D01*
X154104677Y-116226041D01*
X154079314Y-116236641D01*
X154074994Y-116235295D01*
X154044880Y-116214081D01*
X153993428Y-116170262D01*
X153925163Y-116107934D01*
X153844608Y-116031195D01*
X153756288Y-115944141D01*
X153464276Y-115651642D01*
X153919148Y-114982550D01*
X153849996Y-114832941D01*
X153849791Y-114832498D01*
X153808265Y-114737126D01*
X153765832Y-114630921D01*
X153731646Y-114536794D01*
X153726472Y-114521613D01*
X153700389Y-114451134D01*
X153676869Y-114396367D01*
X153660465Y-114368104D01*
X153653784Y-114364113D01*
X153613680Y-114350722D01*
X153545583Y-114333398D01*
X153456933Y-114313942D01*
X153355173Y-114294157D01*
X153324692Y-114288576D01*
X153214416Y-114268258D01*
X153111519Y-114249120D01*
X153026357Y-114233095D01*
X152969288Y-114222116D01*
X152866711Y-114201870D01*
X152866711Y-113774726D01*
X152866734Y-113722205D01*
X152867167Y-113594072D01*
X152868447Y-113498445D01*
X152870956Y-113430436D01*
X152875074Y-113385158D01*
X152881183Y-113357722D01*
X152889666Y-113343243D01*
X152900903Y-113336832D01*
X152911782Y-113334234D01*
X152956135Y-113325047D01*
X153026894Y-113311016D01*
X153116862Y-113293511D01*
X153218844Y-113273899D01*
X153325645Y-113253550D01*
X153430069Y-113233832D01*
X153524920Y-113216114D01*
X153603002Y-113201763D01*
X153657120Y-113192149D01*
X153680079Y-113188641D01*
X153681630Y-113186522D01*
X153694113Y-113159031D01*
X153715715Y-113106431D01*
X153742911Y-113037217D01*
X153780654Y-112943962D01*
X153827116Y-112836184D01*
X153870666Y-112741197D01*
X153880646Y-112719876D01*
X153908650Y-112653111D01*
X153925429Y-112601615D01*
X153927642Y-112575120D01*
X153926501Y-112573243D01*
X153908372Y-112545590D01*
X153872432Y-112491874D01*
X153822206Y-112417328D01*
X153761218Y-112327187D01*
X153692993Y-112226682D01*
X153616118Y-112112495D01*
X153558451Y-112023795D01*
X153519214Y-111958746D01*
X153496138Y-111913320D01*
X153486954Y-111883488D01*
X153489392Y-111865220D01*
X153490212Y-111863850D01*
X153512265Y-111837230D01*
X153557224Y-111788722D01*
X153620461Y-111723133D01*
X153697347Y-111645272D01*
X153783253Y-111559947D01*
X153872367Y-111473359D01*
X153959660Y-111391972D01*
X154023806Y-111337060D01*
X154066467Y-111307215D01*
X154089309Y-111301029D01*
X154092293Y-111302419D01*
X154123724Y-111321152D01*
X154180785Y-111357758D01*
X154258131Y-111408722D01*
X154350414Y-111470529D01*
X154452290Y-111539664D01*
X154784381Y-111766445D01*
X154934354Y-111698378D01*
X154938711Y-111696406D01*
X155030788Y-111656516D01*
X155128471Y-111616843D01*
X155211327Y-111585699D01*
X155211693Y-111585570D01*
X155277473Y-111561481D01*
X155328111Y-111541135D01*
X155352672Y-111528926D01*
X155353070Y-111528483D01*
X155361407Y-111503481D01*
X155375129Y-111446623D01*
X155392911Y-111364039D01*
X155413429Y-111261856D01*
X155435359Y-111146203D01*
X155436124Y-111142058D01*
X155458017Y-111024044D01*
X155478069Y-110917176D01*
X155494980Y-110828277D01*
X155507455Y-110764170D01*
X155514194Y-110731679D01*
X155514625Y-110729878D01*
X155519061Y-110715969D01*
X155528051Y-110705514D01*
X155546525Y-110698021D01*
X155579416Y-110692997D01*
X155631656Y-110689947D01*
X155708176Y-110688380D01*
X155813910Y-110687801D01*
X155953788Y-110687717D01*
X155971363Y-110687718D01*
G37*
D15*
%TO.C,D4*%
X109065000Y-113720750D02*
X109065000Y-116005750D01*
X110535000Y-113720750D02*
X109065000Y-113720750D01*
X110535000Y-116005750D02*
X110535000Y-113720750D01*
%TO.C,C26*%
X115230000Y-112895336D02*
X115230000Y-112679664D01*
X115950000Y-112895336D02*
X115950000Y-112679664D01*
%TO.C,C25*%
X119741600Y-112679664D02*
X119741600Y-112895336D01*
X120461600Y-112679664D02*
X120461600Y-112895336D01*
%TO.C,U3*%
X116290000Y-110912500D02*
X116290000Y-111712500D01*
X116290000Y-112512500D02*
X116290000Y-111712500D01*
X119410000Y-110912500D02*
X119410000Y-111712500D01*
X119410000Y-112512500D02*
X119410000Y-111712500D01*
X119690000Y-113252500D02*
X119360000Y-113012500D01*
X119690000Y-112772500D01*
X119690000Y-113252500D01*
G36*
X119690000Y-113252500D02*
G01*
X119360000Y-113012500D01*
X119690000Y-112772500D01*
X119690000Y-113252500D01*
G37*
%TO.C,JP2*%
X109348000Y-87096000D02*
X109348000Y-85696000D01*
X110048000Y-84996000D02*
X110648000Y-84996000D01*
X110648000Y-87796000D02*
X110048000Y-87796000D01*
X111348000Y-85696000D02*
X111348000Y-87096000D01*
X109348000Y-85696000D02*
G75*
G02*
X110048000Y-84996000I700000J0D01*
G01*
X110048000Y-87796000D02*
G75*
G02*
X109348000Y-87096000I-1J699999D01*
G01*
X110648000Y-84996000D02*
G75*
G02*
X111348000Y-85696000I0J-700000D01*
G01*
X111348000Y-87096000D02*
G75*
G02*
X110648000Y-87796000I-699999J-1D01*
G01*
%TO.C,R8*%
X109420000Y-117463109D02*
X109420000Y-117770391D01*
X110180000Y-117463109D02*
X110180000Y-117770391D01*
%TO.C,R6*%
X118520000Y-98086359D02*
X118520000Y-98393641D01*
X119280000Y-98086359D02*
X119280000Y-98393641D01*
%TD*%
M02*
