%TF.GenerationSoftware,KiCad,Pcbnew,8.0.2-1.fc40*%
%TF.CreationDate,2025-03-27T00:28:51+07:00*%
%TF.ProjectId,magic-epaper,6d616769-632d-4657-9061-7065722e6b69,rev?*%
%TF.SameCoordinates,Original*%
%TF.FileFunction,Soldermask,Top*%
%TF.FilePolarity,Negative*%
%FSLAX46Y46*%
G04 Gerber Fmt 4.6, Leading zero omitted, Abs format (unit mm)*
G04 Created by KiCad (PCBNEW 8.0.2-1.fc40) date 2025-03-27 00:28:51*
%MOMM*%
%LPD*%
G01*
G04 APERTURE LIST*
G04 Aperture macros list*
%AMRoundRect*
0 Rectangle with rounded corners*
0 $1 Rounding radius*
0 $2 $3 $4 $5 $6 $7 $8 $9 X,Y pos of 4 corners*
0 Add a 4 corners polygon primitive as box body*
4,1,4,$2,$3,$4,$5,$6,$7,$8,$9,$2,$3,0*
0 Add four circle primitives for the rounded corners*
1,1,$1+$1,$2,$3*
1,1,$1+$1,$4,$5*
1,1,$1+$1,$6,$7*
1,1,$1+$1,$8,$9*
0 Add four rect primitives between the rounded corners*
20,1,$1+$1,$2,$3,$4,$5,0*
20,1,$1+$1,$4,$5,$6,$7,0*
20,1,$1+$1,$6,$7,$8,$9,0*
20,1,$1+$1,$8,$9,$2,$3,0*%
G04 Aperture macros list end*
%ADD10RoundRect,0.250000X0.650000X-0.325000X0.650000X0.325000X-0.650000X0.325000X-0.650000X-0.325000X0*%
%ADD11RoundRect,0.140000X0.140000X0.170000X-0.140000X0.170000X-0.140000X-0.170000X0.140000X-0.170000X0*%
%ADD12RoundRect,0.225000X-0.225000X-0.375000X0.225000X-0.375000X0.225000X0.375000X-0.225000X0.375000X0*%
%ADD13RoundRect,0.225000X0.225000X0.375000X-0.225000X0.375000X-0.225000X-0.375000X0.225000X-0.375000X0*%
%ADD14RoundRect,0.150000X0.150000X-0.725000X0.150000X0.725000X-0.150000X0.725000X-0.150000X-0.725000X0*%
%ADD15RoundRect,0.200000X-0.275000X0.200000X-0.275000X-0.200000X0.275000X-0.200000X0.275000X0.200000X0*%
%ADD16RoundRect,0.250000X-0.650000X0.325000X-0.650000X-0.325000X0.650000X-0.325000X0.650000X0.325000X0*%
%ADD17RoundRect,0.225000X-0.225000X-0.250000X0.225000X-0.250000X0.225000X0.250000X-0.225000X0.250000X0*%
%ADD18RoundRect,0.150000X-0.587500X-0.150000X0.587500X-0.150000X0.587500X0.150000X-0.587500X0.150000X0*%
%ADD19RoundRect,0.225000X0.250000X-0.225000X0.250000X0.225000X-0.250000X0.225000X-0.250000X-0.225000X0*%
%ADD20RoundRect,0.135000X-0.185000X0.135000X-0.185000X-0.135000X0.185000X-0.135000X0.185000X0.135000X0*%
%ADD21RoundRect,0.135000X0.135000X0.185000X-0.135000X0.185000X-0.135000X-0.185000X0.135000X-0.185000X0*%
%ADD22RoundRect,0.140000X-0.140000X-0.170000X0.140000X-0.170000X0.140000X0.170000X-0.140000X0.170000X0*%
%ADD23R,1.300000X0.300000*%
%ADD24R,3.600000X2.300000*%
%ADD25R,0.800000X2.700000*%
%ADD26RoundRect,0.225000X-0.250000X0.225000X-0.250000X-0.225000X0.250000X-0.225000X0.250000X0.225000X0*%
%ADD27RoundRect,0.140000X-0.170000X0.140000X-0.170000X-0.140000X0.170000X-0.140000X0.170000X0.140000X0*%
%ADD28RoundRect,0.100000X0.100000X-0.637500X0.100000X0.637500X-0.100000X0.637500X-0.100000X-0.637500X0*%
%ADD29R,1.700000X1.700000*%
%ADD30O,1.700000X1.700000*%
%ADD31C,1.000000*%
%ADD32C,0.650000*%
G04 APERTURE END LIST*
D10*
%TO.C,C20*%
X112336868Y-113702800D03*
X112336868Y-110752800D03*
%TD*%
D11*
%TO.C,C2*%
X117757756Y-104250000D03*
X116797756Y-104250000D03*
%TD*%
D12*
%TO.C,D2*%
X115781200Y-89442752D03*
X119081200Y-89442752D03*
%TD*%
D11*
%TO.C,C30*%
X119355000Y-121078000D03*
X118395000Y-121078000D03*
%TD*%
%TO.C,C6*%
X117762200Y-100250000D03*
X116802200Y-100250000D03*
%TD*%
D13*
%TO.C,D3*%
X119036200Y-87061252D03*
X115736200Y-87061252D03*
%TD*%
D14*
%TO.C,U2*%
X115295000Y-118025000D03*
X116565000Y-118025000D03*
X117835000Y-118025000D03*
X119105000Y-118025000D03*
X119105000Y-112875000D03*
X117835000Y-112875000D03*
X116565000Y-112875000D03*
X115295000Y-112875000D03*
%TD*%
D15*
%TO.C,R9*%
X110094000Y-87349000D03*
X110094000Y-88999000D03*
%TD*%
D11*
%TO.C,C1*%
X117759978Y-102250000D03*
X116799978Y-102250000D03*
%TD*%
D16*
%TO.C,C19*%
X114445868Y-75929400D03*
X114445868Y-78879400D03*
%TD*%
D17*
%TO.C,C9*%
X115821400Y-91501400D03*
X117371400Y-91501400D03*
%TD*%
D18*
%TO.C,Q1*%
X110348700Y-83611252D03*
X110348700Y-85511252D03*
X112223700Y-84561252D03*
%TD*%
D16*
%TO.C,C23*%
X114522068Y-107788450D03*
X114522068Y-110738450D03*
%TD*%
D19*
%TO.C,C13*%
X114086200Y-86407752D03*
X114086200Y-84857752D03*
%TD*%
D15*
%TO.C,R4*%
X111618000Y-87349000D03*
X111618000Y-88999000D03*
%TD*%
D10*
%TO.C,C24*%
X110170200Y-113702800D03*
X110170200Y-110752800D03*
%TD*%
D20*
%TO.C,R3*%
X113142000Y-88680000D03*
X113142000Y-89700000D03*
%TD*%
D16*
%TO.C,C17*%
X118679200Y-75929400D03*
X118679200Y-78879400D03*
%TD*%
D11*
%TO.C,C11*%
X117764422Y-103250000D03*
X116804422Y-103250000D03*
%TD*%
D16*
%TO.C,C21*%
X118755400Y-107788450D03*
X118755400Y-110738450D03*
%TD*%
D21*
%TO.C,R1*%
X119385000Y-124178000D03*
X118365000Y-124178000D03*
%TD*%
D22*
%TO.C,C28*%
X118395000Y-126178000D03*
X119355000Y-126178000D03*
%TD*%
D16*
%TO.C,C16*%
X110162534Y-75929400D03*
X110162534Y-78879400D03*
%TD*%
%TO.C,C22*%
X116638734Y-107788450D03*
X116638734Y-110738450D03*
%TD*%
%TO.C,C18*%
X116562534Y-75929400D03*
X116562534Y-78879400D03*
%TD*%
D11*
%TO.C,C5*%
X117762200Y-98250000D03*
X116802200Y-98250000D03*
%TD*%
D23*
%TO.C,J1*%
X112850000Y-94798500D03*
X112850000Y-95298500D03*
X112850000Y-95798500D03*
X112850000Y-96298500D03*
X112850000Y-96798500D03*
X112850000Y-97298500D03*
X112850000Y-97798500D03*
X112850000Y-98298500D03*
X112850000Y-98798500D03*
X112850000Y-99298500D03*
X112850000Y-99798500D03*
X112850000Y-100298500D03*
X112850000Y-100798500D03*
X112850000Y-101298500D03*
X112850000Y-101798500D03*
X112850000Y-102298500D03*
X112850000Y-102798500D03*
X112850000Y-103298500D03*
X112850000Y-103798500D03*
X112850000Y-104298500D03*
X112850000Y-104798500D03*
X112850000Y-105298500D03*
X112850000Y-105798500D03*
X112850000Y-106298500D03*
D24*
X110900000Y-93128500D03*
X110900000Y-107968500D03*
%TD*%
D11*
%TO.C,C27*%
X119355000Y-123136000D03*
X118395000Y-123136000D03*
%TD*%
D13*
%TO.C,D1*%
X119036200Y-84661252D03*
X115736200Y-84661252D03*
%TD*%
D11*
%TO.C,C31*%
X119355000Y-120062000D03*
X118395000Y-120062000D03*
%TD*%
D25*
%TO.C,L1*%
X117536200Y-81620800D03*
X115236200Y-81620800D03*
%TD*%
D26*
%TO.C,C12*%
X118986200Y-80686252D03*
X118986200Y-82236252D03*
%TD*%
D11*
%TO.C,C29*%
X119355000Y-122094000D03*
X118395000Y-122094000D03*
%TD*%
D27*
%TO.C,C14*%
X116800000Y-123970000D03*
X116800000Y-124930000D03*
%TD*%
D11*
%TO.C,C10*%
X117762200Y-99250000D03*
X116802200Y-99250000D03*
%TD*%
D21*
%TO.C,R2*%
X119385000Y-125178000D03*
X118365000Y-125178000D03*
%TD*%
D20*
%TO.C,R7*%
X113000000Y-117040000D03*
X113000000Y-118060000D03*
%TD*%
D11*
%TO.C,C3*%
X117771088Y-105250000D03*
X116811088Y-105250000D03*
%TD*%
%TO.C,C4*%
X117773310Y-106250000D03*
X116813310Y-106250000D03*
%TD*%
%TO.C,C7*%
X117775532Y-101250000D03*
X116815532Y-101250000D03*
%TD*%
D28*
%TO.C,U1*%
X109675000Y-126425000D03*
X110325000Y-126425000D03*
X110975000Y-126425000D03*
X111625000Y-126425000D03*
X112275000Y-126425000D03*
X112925000Y-126425000D03*
X113575000Y-126425000D03*
X114225000Y-126425000D03*
X114875000Y-126425000D03*
X115525000Y-126425000D03*
X115525000Y-120700000D03*
X114875000Y-120700000D03*
X114225000Y-120700000D03*
X113575000Y-120700000D03*
X112925000Y-120700000D03*
X112275000Y-120700000D03*
X111625000Y-120700000D03*
X110975000Y-120700000D03*
X110325000Y-120700000D03*
X109675000Y-120700000D03*
%TD*%
D17*
%TO.C,C8*%
X115821400Y-93101600D03*
X117371400Y-93101600D03*
%TD*%
D16*
%TO.C,C15*%
X112279200Y-75929400D03*
X112279200Y-78879400D03*
%TD*%
D29*
%TO.C,J2*%
X136750000Y-126150000D03*
D30*
X134210000Y-126150000D03*
X131670000Y-126150000D03*
X129130000Y-126150000D03*
X126590000Y-126150000D03*
X124050000Y-126150000D03*
%TD*%
D31*
%TO.C,AE1*%
X146944141Y-122977000D03*
X142458859Y-118977000D03*
%TD*%
D32*
%TO.C,J3*%
X115225000Y-103438500D03*
X115225000Y-97658500D03*
%TD*%
M02*
