%TF.GenerationSoftware,KiCad,Pcbnew,8.0.2-1.fc40*%
%TF.CreationDate,2025-03-27T00:28:51+07:00*%
%TF.ProjectId,magic-epaper,6d616769-632d-4657-9061-7065722e6b69,rev?*%
%TF.SameCoordinates,Original*%
%TF.FileFunction,Soldermask,Bot*%
%TF.FilePolarity,Negative*%
%FSLAX46Y46*%
G04 Gerber Fmt 4.6, Leading zero omitted, Abs format (unit mm)*
G04 Created by KiCad (PCBNEW 8.0.2-1.fc40) date 2025-03-27 00:28:51*
%MOMM*%
%LPD*%
G01*
G04 APERTURE LIST*
G04 Aperture macros list*
%AMRoundRect*
0 Rectangle with rounded corners*
0 $1 Rounding radius*
0 $2 $3 $4 $5 $6 $7 $8 $9 X,Y pos of 4 corners*
0 Add a 4 corners polygon primitive as box body*
4,1,4,$2,$3,$4,$5,$6,$7,$8,$9,$2,$3,0*
0 Add four circle primitives for the rounded corners*
1,1,$1+$1,$2,$3*
1,1,$1+$1,$4,$5*
1,1,$1+$1,$6,$7*
1,1,$1+$1,$8,$9*
0 Add four rect primitives between the rounded corners*
20,1,$1+$1,$2,$3,$4,$5,0*
20,1,$1+$1,$4,$5,$6,$7,0*
20,1,$1+$1,$6,$7,$8,$9,0*
20,1,$1+$1,$8,$9,$2,$3,0*%
%AMFreePoly0*
4,1,19,0.500000,-0.750000,0.000000,-0.750000,0.000000,-0.744911,-0.071157,-0.744911,-0.207708,-0.704816,-0.327430,-0.627875,-0.420627,-0.520320,-0.479746,-0.390866,-0.500000,-0.250000,-0.500000,0.250000,-0.479746,0.390866,-0.420627,0.520320,-0.327430,0.627875,-0.207708,0.704816,-0.071157,0.744911,0.000000,0.744911,0.000000,0.750000,0.500000,0.750000,0.500000,-0.750000,0.500000,-0.750000,
$1*%
%AMFreePoly1*
4,1,19,0.000000,0.744911,0.071157,0.744911,0.207708,0.704816,0.327430,0.627875,0.420627,0.520320,0.479746,0.390866,0.500000,0.250000,0.500000,-0.250000,0.479746,-0.390866,0.420627,-0.520320,0.327430,-0.627875,0.207708,-0.704816,0.071157,-0.744911,0.000000,-0.744911,0.000000,-0.750000,-0.500000,-0.750000,-0.500000,0.750000,0.000000,0.750000,0.000000,0.744911,0.000000,0.744911,
$1*%
G04 Aperture macros list end*
%ADD10R,1.700000X1.700000*%
%ADD11O,1.700000X1.700000*%
%ADD12C,1.000000*%
%ADD13FreePoly0,270.000000*%
%ADD14FreePoly1,270.000000*%
%ADD15C,0.650000*%
%ADD16RoundRect,0.150000X0.425000X-0.150000X0.425000X0.150000X-0.425000X0.150000X-0.425000X-0.150000X0*%
%ADD17RoundRect,0.075000X0.500000X-0.075000X0.500000X0.075000X-0.500000X0.075000X-0.500000X-0.075000X0*%
%ADD18RoundRect,0.150000X0.450000X-0.600000X0.450000X0.600000X-0.450000X0.600000X-0.450000X-0.600000X0*%
%ADD19RoundRect,0.135000X-0.185000X0.135000X-0.185000X-0.135000X0.185000X-0.135000X0.185000X0.135000X0*%
%ADD20RoundRect,0.218750X-0.256250X0.218750X-0.256250X-0.218750X0.256250X-0.218750X0.256250X0.218750X0*%
%ADD21RoundRect,0.140000X-0.170000X0.140000X-0.170000X-0.140000X0.170000X-0.140000X0.170000X0.140000X0*%
%ADD22RoundRect,0.140000X0.170000X-0.140000X0.170000X0.140000X-0.170000X0.140000X-0.170000X-0.140000X0*%
%ADD23RoundRect,0.150000X0.150000X-0.512500X0.150000X0.512500X-0.150000X0.512500X-0.150000X-0.512500X0*%
%ADD24FreePoly0,90.000000*%
%ADD25FreePoly1,90.000000*%
%ADD26C,1.700000*%
%ADD27RoundRect,0.135000X0.185000X-0.135000X0.185000X0.135000X-0.185000X0.135000X-0.185000X-0.135000X0*%
G04 APERTURE END LIST*
D10*
%TO.C,J2*%
X136750000Y-126150000D03*
D11*
X134210000Y-126150000D03*
X131670000Y-126150000D03*
X129130000Y-126150000D03*
X126590000Y-126150000D03*
X124050000Y-126150000D03*
%TD*%
D12*
%TO.C,AE1*%
X146944141Y-122977000D03*
X142458859Y-118977000D03*
%TD*%
D13*
%TO.C,JP1*%
X115682000Y-80158000D03*
D14*
X115682000Y-81458000D03*
%TD*%
D15*
%TO.C,J3*%
X115225000Y-103438500D03*
X115225000Y-97658500D03*
D16*
X116300000Y-103748500D03*
X116300000Y-102948500D03*
D17*
X116300000Y-101798500D03*
X116300000Y-100798500D03*
X116300000Y-100298500D03*
X116300000Y-99298500D03*
D16*
X116300000Y-98148500D03*
X116300000Y-97348500D03*
X116300000Y-97348500D03*
X116300000Y-98148500D03*
D17*
X116300000Y-98798500D03*
X116300000Y-99798500D03*
X116300000Y-101298500D03*
X116300000Y-102298500D03*
D16*
X116300000Y-102948500D03*
X116300000Y-103748500D03*
D18*
X111795000Y-105658500D03*
X115725000Y-105658500D03*
X111795000Y-95438500D03*
X115725000Y-95438500D03*
%TD*%
D19*
%TO.C,R5*%
X118900000Y-101830000D03*
X118900000Y-102850000D03*
%TD*%
D20*
%TO.C,D4*%
X109800000Y-114418250D03*
X109800000Y-115993250D03*
%TD*%
D21*
%TO.C,C26*%
X115590000Y-112307500D03*
X115590000Y-113267500D03*
%TD*%
D22*
%TO.C,C25*%
X120101600Y-113267500D03*
X120101600Y-112307500D03*
%TD*%
D23*
%TO.C,U3*%
X118800000Y-112850000D03*
X116900000Y-112850000D03*
X117850000Y-110575000D03*
%TD*%
D24*
%TO.C,JP2*%
X110348000Y-87046000D03*
D25*
X110348000Y-85746000D03*
%TD*%
D10*
%TO.C,J4*%
X120880000Y-104240000D03*
D26*
X120880000Y-101700000D03*
X120880000Y-99160000D03*
X120880000Y-96620000D03*
%TD*%
D27*
%TO.C,R8*%
X109800000Y-118126750D03*
X109800000Y-117106750D03*
%TD*%
%TO.C,R6*%
X118900000Y-98750000D03*
X118900000Y-97730000D03*
%TD*%
M02*
